M48
; DRILL file {KiCad 7.99.0-3564-gbeb917e572-dirty} date 2023-11-16T20:45:25+0000
; FORMAT={-:-/ absolute / inch / decimal}
; #@! TF.CreationDate,2023-11-16T20:45:25+00:00
; #@! TF.GenerationSoftware,Kicad,Pcbnew,7.99.0-3564-gbeb917e572-dirty
; #@! TF.FileFunction,MixedPlating,1,2
FMAT,2
INCH
; #@! TA.AperFunction,Plated,PTH,ViaDrill
T1C0.0157
; #@! TA.AperFunction,Plated,PTH,ComponentDrill
T2C0.0300
; #@! TA.AperFunction,Plated,PTH,ComponentDrill
T3C0.0394
%
G90
G05
T1
X5.0394Y-1.9291
X5.063Y-2.1417
X5.1654Y-2.3228
X5.1739Y-2.6253
X5.1811Y-2.5197
X5.1968Y-2.2217
X5.1969Y-2.1417
X5.1973Y-2.1823
X5.2047Y-1.8819
X5.2441Y-2.0157
X5.2913Y-2.0551
X5.2913Y-2.3228
X5.2913Y-2.6063
X5.3307Y-2.1024
X5.3307Y-2.3258
X5.3465Y-2.2205
X5.3469Y-2.2621
X5.3622Y-2.1388
X5.3622Y-2.1823
X5.378Y-2.5276
X5.3836Y-2.6273
X5.4488Y-2.3307
X5.4567Y-2.0551
X5.4961Y-2.1102
X5.4961Y-2.3258
X5.5112Y-2.2626
X5.5118Y-2.2205
X5.5197Y-2.5906
X5.5276Y-2.1388
X5.5276Y-2.1823
X5.5748Y-2.5276
X5.5901Y-2.6334
X5.6121Y-2.3281
X5.6299Y-2.0472
X5.6535Y-2.3219
X5.6614Y-2.1102
X5.6693Y-1.9685
X5.6769Y-2.2598
X5.6772Y-2.2205
X5.6929Y-2.1388
X5.6929Y-2.1823
X5.7013Y-1.8666
X5.7165Y-1.7323
X5.7244Y-2.5906
X5.7638Y-2.0472
X5.7795Y-2.3307
X5.8189Y-2.063
X5.8189Y-2.3228
X5.8285Y-2.1738
X5.8346Y-2.2205
X5.8374Y-2.2624
X5.8504Y-1.7953
X5.8612Y-2.1518
X5.9449Y-2.0472
X5.9449Y-2.3307
X5.9843Y-2.3228
X5.9921Y-2.1102
X6.0Y-2.2205
X6.0003Y-2.2622
X6.0212Y-2.1396
X6.0236Y-2.1823
X6.0557Y-1.9685
X6.1024Y-2.3307
X6.1102Y-2.0472
X6.1496Y-2.1102
X6.1496Y-2.3258
X6.1654Y-2.2205
X6.1672Y-2.2624
X6.1811Y-2.1388
X6.187Y-2.1842
X6.2677Y-2.0472
X6.2677Y-2.3307
X6.315Y-2.1102
X6.315Y-2.3258
X6.3291Y-2.2631
X6.3307Y-2.2205
X6.34Y-2.1406
X6.3465Y-1.8425
X6.353Y-2.1879
X6.3858Y-1.9685
X6.4252Y-2.5276
X6.4331Y-2.0551
X6.4331Y-2.3307
X6.4803Y-2.1102
X6.4803Y-2.3228
X6.4961Y-2.2205
X6.4965Y-2.2615
X6.5088Y-1.846
X6.5112Y-2.139
X6.5118Y-2.1823
X6.5984Y-2.0551
X6.5984Y-2.3307
X6.6378Y-2.3228
X6.6457Y-1.7323
X6.6457Y-2.1102
X6.6535Y-2.2205
X6.6535Y-2.5285
X6.6538Y-2.2622
X6.6663Y-1.7953
X6.6748Y-2.1396
X6.6772Y-2.1823
X6.7087Y-1.9685
X6.7244Y-2.0472
X6.7559Y-2.3307
X6.7953Y-2.6063
X6.8031Y-2.1102
X6.8031Y-2.3258
X6.8189Y-2.2205
X6.8207Y-2.2624
X6.8346Y-2.1388
X6.8346Y-2.1823
X6.8346Y-2.6457
X6.874Y-2.5118
X6.9213Y-2.0551
X6.9291Y-2.3307
X6.9685Y-2.0866
X6.9685Y-2.3258
X6.9843Y-2.252
X6.9843Y-2.6063
X6.9916Y-2.2131
X6.9921Y-2.1732
X6.9999Y-2.134
X7.0236Y-2.6432
X7.0679Y-2.5118
X7.0876Y-2.3317
X7.1024Y-2.0472
X7.127Y-2.3307
X7.1339Y-2.0945
X7.1417Y-2.2598
X7.1654Y-2.6063
X7.2126Y-2.6457
X7.2283Y-1.8583
X7.2441Y-2.2913
X7.2598Y-2.4409
X7.378Y-1.7795
X7.3937Y-1.9213
T2
X5.198Y-1.7402
X5.198Y-2.7244
X5.2964Y-1.7402
X5.2964Y-2.7244
X5.3948Y-1.7402
X5.3948Y-2.7244
X5.4932Y-1.7402
X5.4932Y-2.7244
X5.5917Y-1.7402
X5.5917Y-2.7244
X5.6901Y-2.7244
X6.6742Y-2.7244
X6.7726Y-2.7244
X6.7728Y-1.7402
X6.8711Y-2.7244
X6.8712Y-1.7402
X6.9695Y-2.7244
X6.9696Y-1.7402
X7.0679Y-2.7244
X7.068Y-1.7402
X7.1663Y-2.7244
X7.1665Y-1.7402
T3
X6.1598Y-2.7008
X6.2598Y-2.7008
T0
M30
