%TF.GenerationSoftware,KiCad,Pcbnew,7.99.0-3522-gc5520b3eef-dirty*%
%TF.CreationDate,2023-12-16T18:02:14+00:00*%
%TF.ProjectId,VFD Replacement,56464420-5265-4706-9c61-63656d656e74,rev?*%
%TF.SameCoordinates,Original*%
%TF.FileFunction,Drillmap*%
%TF.FilePolarity,Positive*%
%FSLAX45Y45*%
G04 Gerber Fmt 4.5, Leading zero omitted, Abs format (unit mm)*
G04 Created by KiCad (PCBNEW 7.99.0-3522-gc5520b3eef-dirty) date 2023-12-16 18:02:14*
%MOMM*%
%LPD*%
G01*
G04 APERTURE LIST*
%ADD10C,0.100000*%
%ADD11C,0.200000*%
G04 APERTURE END LIST*
D10*
X12452820Y-4296163D02*
X18952820Y-4296163D01*
X18952820Y-7046162D01*
X12452820Y-7046162D01*
X12452820Y-4296163D01*
D11*
X12708596Y-7362646D02*
X12708596Y-7162646D01*
X12708596Y-7162646D02*
X12756215Y-7162646D01*
X12756215Y-7162646D02*
X12784787Y-7172170D01*
X12784787Y-7172170D02*
X12803834Y-7191218D01*
X12803834Y-7191218D02*
X12813358Y-7210265D01*
X12813358Y-7210265D02*
X12822882Y-7248360D01*
X12822882Y-7248360D02*
X12822882Y-7276932D01*
X12822882Y-7276932D02*
X12813358Y-7315027D01*
X12813358Y-7315027D02*
X12803834Y-7334075D01*
X12803834Y-7334075D02*
X12784787Y-7353122D01*
X12784787Y-7353122D02*
X12756215Y-7362646D01*
X12756215Y-7362646D02*
X12708596Y-7362646D01*
X12908596Y-7362646D02*
X12908596Y-7229313D01*
X12908596Y-7267408D02*
X12918120Y-7248360D01*
X12918120Y-7248360D02*
X12927644Y-7238837D01*
X12927644Y-7238837D02*
X12946692Y-7229313D01*
X12946692Y-7229313D02*
X12965739Y-7229313D01*
X13032406Y-7362646D02*
X13032406Y-7229313D01*
X13032406Y-7162646D02*
X13022882Y-7172170D01*
X13022882Y-7172170D02*
X13032406Y-7181694D01*
X13032406Y-7181694D02*
X13041930Y-7172170D01*
X13041930Y-7172170D02*
X13032406Y-7162646D01*
X13032406Y-7162646D02*
X13032406Y-7181694D01*
X13156215Y-7362646D02*
X13137168Y-7353122D01*
X13137168Y-7353122D02*
X13127644Y-7334075D01*
X13127644Y-7334075D02*
X13127644Y-7162646D01*
X13260977Y-7362646D02*
X13241930Y-7353122D01*
X13241930Y-7353122D02*
X13232406Y-7334075D01*
X13232406Y-7334075D02*
X13232406Y-7162646D01*
X13489549Y-7362646D02*
X13489549Y-7162646D01*
X13489549Y-7162646D02*
X13556215Y-7305503D01*
X13556215Y-7305503D02*
X13622882Y-7162646D01*
X13622882Y-7162646D02*
X13622882Y-7362646D01*
X13803834Y-7362646D02*
X13803834Y-7257884D01*
X13803834Y-7257884D02*
X13794311Y-7238837D01*
X13794311Y-7238837D02*
X13775263Y-7229313D01*
X13775263Y-7229313D02*
X13737168Y-7229313D01*
X13737168Y-7229313D02*
X13718120Y-7238837D01*
X13803834Y-7353122D02*
X13784787Y-7362646D01*
X13784787Y-7362646D02*
X13737168Y-7362646D01*
X13737168Y-7362646D02*
X13718120Y-7353122D01*
X13718120Y-7353122D02*
X13708596Y-7334075D01*
X13708596Y-7334075D02*
X13708596Y-7315027D01*
X13708596Y-7315027D02*
X13718120Y-7295980D01*
X13718120Y-7295980D02*
X13737168Y-7286456D01*
X13737168Y-7286456D02*
X13784787Y-7286456D01*
X13784787Y-7286456D02*
X13803834Y-7276932D01*
X13899073Y-7229313D02*
X13899073Y-7429313D01*
X13899073Y-7238837D02*
X13918120Y-7229313D01*
X13918120Y-7229313D02*
X13956215Y-7229313D01*
X13956215Y-7229313D02*
X13975263Y-7238837D01*
X13975263Y-7238837D02*
X13984787Y-7248360D01*
X13984787Y-7248360D02*
X13994311Y-7267408D01*
X13994311Y-7267408D02*
X13994311Y-7324551D01*
X13994311Y-7324551D02*
X13984787Y-7343599D01*
X13984787Y-7343599D02*
X13975263Y-7353122D01*
X13975263Y-7353122D02*
X13956215Y-7362646D01*
X13956215Y-7362646D02*
X13918120Y-7362646D01*
X13918120Y-7362646D02*
X13899073Y-7353122D01*
X14080025Y-7343599D02*
X14089549Y-7353122D01*
X14089549Y-7353122D02*
X14080025Y-7362646D01*
X14080025Y-7362646D02*
X14070501Y-7353122D01*
X14070501Y-7353122D02*
X14080025Y-7343599D01*
X14080025Y-7343599D02*
X14080025Y-7362646D01*
X14080025Y-7238837D02*
X14089549Y-7248360D01*
X14089549Y-7248360D02*
X14080025Y-7257884D01*
X14080025Y-7257884D02*
X14070501Y-7248360D01*
X14070501Y-7248360D02*
X14080025Y-7238837D01*
X14080025Y-7238837D02*
X14080025Y-7257884D01*
M02*
