%TF.GenerationSoftware,KiCad,Pcbnew,7.99.0-3522-gc5520b3eef-dirty*%
%TF.CreationDate,2023-11-19T20:13:53+00:00*%
%TF.ProjectId,VFD Replacement,56464420-5265-4706-9c61-63656d656e74,rev?*%
%TF.SameCoordinates,Original*%
%TF.FileFunction,Legend,Top*%
%TF.FilePolarity,Positive*%
%FSLAX46Y46*%
G04 Gerber Fmt 4.6, Leading zero omitted, Abs format (unit mm)*
G04 Created by KiCad (PCBNEW 7.99.0-3522-gc5520b3eef-dirty) date 2023-11-19 20:13:53*
%MOMM*%
%LPD*%
G01*
G04 APERTURE LIST*
%ADD10C,0.150000*%
%ADD11C,0.100000*%
%ADD12C,0.120000*%
G04 APERTURE END LIST*
D10*
X152284398Y-57493712D02*
X152284398Y-55993712D01*
X152284398Y-55993712D02*
X152684398Y-57065141D01*
X152684398Y-57065141D02*
X153084398Y-55993712D01*
X153084398Y-55993712D02*
X153084398Y-57493712D01*
X153655827Y-57493712D02*
X153655827Y-55993712D01*
X154341541Y-57493712D02*
X153827255Y-56636569D01*
X154341541Y-55993712D02*
X153655827Y-56850855D01*
X154855827Y-56922284D02*
X155770113Y-56922284D01*
X156912969Y-55993712D02*
X156341541Y-55993712D01*
X156341541Y-55993712D02*
X156284398Y-56707998D01*
X156284398Y-56707998D02*
X156341541Y-56636569D01*
X156341541Y-56636569D02*
X156455827Y-56565141D01*
X156455827Y-56565141D02*
X156741541Y-56565141D01*
X156741541Y-56565141D02*
X156855827Y-56636569D01*
X156855827Y-56636569D02*
X156912969Y-56707998D01*
X156912969Y-56707998D02*
X156970112Y-56850855D01*
X156970112Y-56850855D02*
X156970112Y-57207998D01*
X156970112Y-57207998D02*
X156912969Y-57350855D01*
X156912969Y-57350855D02*
X156855827Y-57422284D01*
X156855827Y-57422284D02*
X156741541Y-57493712D01*
X156741541Y-57493712D02*
X156455827Y-57493712D01*
X156455827Y-57493712D02*
X156341541Y-57422284D01*
X156341541Y-57422284D02*
X156284398Y-57350855D01*
X157427255Y-56136569D02*
X157484398Y-56065141D01*
X157484398Y-56065141D02*
X157598684Y-55993712D01*
X157598684Y-55993712D02*
X157884398Y-55993712D01*
X157884398Y-55993712D02*
X157998684Y-56065141D01*
X157998684Y-56065141D02*
X158055826Y-56136569D01*
X158055826Y-56136569D02*
X158112969Y-56279426D01*
X158112969Y-56279426D02*
X158112969Y-56422284D01*
X158112969Y-56422284D02*
X158055826Y-56636569D01*
X158055826Y-56636569D02*
X157370112Y-57493712D01*
X157370112Y-57493712D02*
X158112969Y-57493712D01*
X160112969Y-57493712D02*
X159541541Y-57493712D01*
X159541541Y-57493712D02*
X159541541Y-55993712D01*
X160512970Y-56707998D02*
X160912970Y-56707998D01*
X161084398Y-57493712D02*
X160512970Y-57493712D01*
X160512970Y-57493712D02*
X160512970Y-55993712D01*
X160512970Y-55993712D02*
X161084398Y-55993712D01*
X161598684Y-57493712D02*
X161598684Y-55993712D01*
X161598684Y-55993712D02*
X161884398Y-55993712D01*
X161884398Y-55993712D02*
X162055827Y-56065141D01*
X162055827Y-56065141D02*
X162170112Y-56207998D01*
X162170112Y-56207998D02*
X162227255Y-56350855D01*
X162227255Y-56350855D02*
X162284398Y-56636569D01*
X162284398Y-56636569D02*
X162284398Y-56850855D01*
X162284398Y-56850855D02*
X162227255Y-57136569D01*
X162227255Y-57136569D02*
X162170112Y-57279426D01*
X162170112Y-57279426D02*
X162055827Y-57422284D01*
X162055827Y-57422284D02*
X161884398Y-57493712D01*
X161884398Y-57493712D02*
X161598684Y-57493712D01*
X163541541Y-55993712D02*
X163941541Y-57493712D01*
X163941541Y-57493712D02*
X164341541Y-55993712D01*
X165141541Y-56707998D02*
X164741541Y-56707998D01*
X164741541Y-57493712D02*
X164741541Y-55993712D01*
X164741541Y-55993712D02*
X165312969Y-55993712D01*
X165770112Y-57493712D02*
X165770112Y-55993712D01*
X165770112Y-55993712D02*
X166055826Y-55993712D01*
X166055826Y-55993712D02*
X166227255Y-56065141D01*
X166227255Y-56065141D02*
X166341540Y-56207998D01*
X166341540Y-56207998D02*
X166398683Y-56350855D01*
X166398683Y-56350855D02*
X166455826Y-56636569D01*
X166455826Y-56636569D02*
X166455826Y-56850855D01*
X166455826Y-56850855D02*
X166398683Y-57136569D01*
X166398683Y-57136569D02*
X166341540Y-57279426D01*
X166341540Y-57279426D02*
X166227255Y-57422284D01*
X166227255Y-57422284D02*
X166055826Y-57493712D01*
X166055826Y-57493712D02*
X165770112Y-57493712D01*
X152970112Y-59908628D02*
X152570112Y-59194342D01*
X152284398Y-59908628D02*
X152284398Y-58408628D01*
X152284398Y-58408628D02*
X152741541Y-58408628D01*
X152741541Y-58408628D02*
X152855826Y-58480057D01*
X152855826Y-58480057D02*
X152912969Y-58551485D01*
X152912969Y-58551485D02*
X152970112Y-58694342D01*
X152970112Y-58694342D02*
X152970112Y-58908628D01*
X152970112Y-58908628D02*
X152912969Y-59051485D01*
X152912969Y-59051485D02*
X152855826Y-59122914D01*
X152855826Y-59122914D02*
X152741541Y-59194342D01*
X152741541Y-59194342D02*
X152284398Y-59194342D01*
X153941541Y-59837200D02*
X153827255Y-59908628D01*
X153827255Y-59908628D02*
X153598684Y-59908628D01*
X153598684Y-59908628D02*
X153484398Y-59837200D01*
X153484398Y-59837200D02*
X153427255Y-59694342D01*
X153427255Y-59694342D02*
X153427255Y-59122914D01*
X153427255Y-59122914D02*
X153484398Y-58980057D01*
X153484398Y-58980057D02*
X153598684Y-58908628D01*
X153598684Y-58908628D02*
X153827255Y-58908628D01*
X153827255Y-58908628D02*
X153941541Y-58980057D01*
X153941541Y-58980057D02*
X153998684Y-59122914D01*
X153998684Y-59122914D02*
X153998684Y-59265771D01*
X153998684Y-59265771D02*
X153427255Y-59408628D01*
X154512969Y-58908628D02*
X154512969Y-60408628D01*
X154512969Y-58980057D02*
X154627255Y-58908628D01*
X154627255Y-58908628D02*
X154855826Y-58908628D01*
X154855826Y-58908628D02*
X154970112Y-58980057D01*
X154970112Y-58980057D02*
X155027255Y-59051485D01*
X155027255Y-59051485D02*
X155084397Y-59194342D01*
X155084397Y-59194342D02*
X155084397Y-59622914D01*
X155084397Y-59622914D02*
X155027255Y-59765771D01*
X155027255Y-59765771D02*
X154970112Y-59837200D01*
X154970112Y-59837200D02*
X154855826Y-59908628D01*
X154855826Y-59908628D02*
X154627255Y-59908628D01*
X154627255Y-59908628D02*
X154512969Y-59837200D01*
X155770111Y-59908628D02*
X155655826Y-59837200D01*
X155655826Y-59837200D02*
X155598683Y-59694342D01*
X155598683Y-59694342D02*
X155598683Y-58408628D01*
X156741540Y-59908628D02*
X156741540Y-59122914D01*
X156741540Y-59122914D02*
X156684397Y-58980057D01*
X156684397Y-58980057D02*
X156570111Y-58908628D01*
X156570111Y-58908628D02*
X156341540Y-58908628D01*
X156341540Y-58908628D02*
X156227254Y-58980057D01*
X156741540Y-59837200D02*
X156627254Y-59908628D01*
X156627254Y-59908628D02*
X156341540Y-59908628D01*
X156341540Y-59908628D02*
X156227254Y-59837200D01*
X156227254Y-59837200D02*
X156170111Y-59694342D01*
X156170111Y-59694342D02*
X156170111Y-59551485D01*
X156170111Y-59551485D02*
X156227254Y-59408628D01*
X156227254Y-59408628D02*
X156341540Y-59337200D01*
X156341540Y-59337200D02*
X156627254Y-59337200D01*
X156627254Y-59337200D02*
X156741540Y-59265771D01*
X157827254Y-59837200D02*
X157712968Y-59908628D01*
X157712968Y-59908628D02*
X157484396Y-59908628D01*
X157484396Y-59908628D02*
X157370111Y-59837200D01*
X157370111Y-59837200D02*
X157312968Y-59765771D01*
X157312968Y-59765771D02*
X157255825Y-59622914D01*
X157255825Y-59622914D02*
X157255825Y-59194342D01*
X157255825Y-59194342D02*
X157312968Y-59051485D01*
X157312968Y-59051485D02*
X157370111Y-58980057D01*
X157370111Y-58980057D02*
X157484396Y-58908628D01*
X157484396Y-58908628D02*
X157712968Y-58908628D01*
X157712968Y-58908628D02*
X157827254Y-58980057D01*
X158798682Y-59837200D02*
X158684396Y-59908628D01*
X158684396Y-59908628D02*
X158455825Y-59908628D01*
X158455825Y-59908628D02*
X158341539Y-59837200D01*
X158341539Y-59837200D02*
X158284396Y-59694342D01*
X158284396Y-59694342D02*
X158284396Y-59122914D01*
X158284396Y-59122914D02*
X158341539Y-58980057D01*
X158341539Y-58980057D02*
X158455825Y-58908628D01*
X158455825Y-58908628D02*
X158684396Y-58908628D01*
X158684396Y-58908628D02*
X158798682Y-58980057D01*
X158798682Y-58980057D02*
X158855825Y-59122914D01*
X158855825Y-59122914D02*
X158855825Y-59265771D01*
X158855825Y-59265771D02*
X158284396Y-59408628D01*
X159370110Y-59908628D02*
X159370110Y-58908628D01*
X159370110Y-59051485D02*
X159427253Y-58980057D01*
X159427253Y-58980057D02*
X159541538Y-58908628D01*
X159541538Y-58908628D02*
X159712967Y-58908628D01*
X159712967Y-58908628D02*
X159827253Y-58980057D01*
X159827253Y-58980057D02*
X159884396Y-59122914D01*
X159884396Y-59122914D02*
X159884396Y-59908628D01*
X159884396Y-59122914D02*
X159941538Y-58980057D01*
X159941538Y-58980057D02*
X160055824Y-58908628D01*
X160055824Y-58908628D02*
X160227253Y-58908628D01*
X160227253Y-58908628D02*
X160341538Y-58980057D01*
X160341538Y-58980057D02*
X160398681Y-59122914D01*
X160398681Y-59122914D02*
X160398681Y-59908628D01*
X161427253Y-59837200D02*
X161312967Y-59908628D01*
X161312967Y-59908628D02*
X161084396Y-59908628D01*
X161084396Y-59908628D02*
X160970110Y-59837200D01*
X160970110Y-59837200D02*
X160912967Y-59694342D01*
X160912967Y-59694342D02*
X160912967Y-59122914D01*
X160912967Y-59122914D02*
X160970110Y-58980057D01*
X160970110Y-58980057D02*
X161084396Y-58908628D01*
X161084396Y-58908628D02*
X161312967Y-58908628D01*
X161312967Y-58908628D02*
X161427253Y-58980057D01*
X161427253Y-58980057D02*
X161484396Y-59122914D01*
X161484396Y-59122914D02*
X161484396Y-59265771D01*
X161484396Y-59265771D02*
X160912967Y-59408628D01*
X161998681Y-58908628D02*
X161998681Y-59908628D01*
X161998681Y-59051485D02*
X162055824Y-58980057D01*
X162055824Y-58980057D02*
X162170109Y-58908628D01*
X162170109Y-58908628D02*
X162341538Y-58908628D01*
X162341538Y-58908628D02*
X162455824Y-58980057D01*
X162455824Y-58980057D02*
X162512967Y-59122914D01*
X162512967Y-59122914D02*
X162512967Y-59908628D01*
X162912966Y-58908628D02*
X163370109Y-58908628D01*
X163084395Y-58408628D02*
X163084395Y-59694342D01*
X163084395Y-59694342D02*
X163141538Y-59837200D01*
X163141538Y-59837200D02*
X163255823Y-59908628D01*
X163255823Y-59908628D02*
X163370109Y-59908628D01*
X161336779Y-67688866D02*
X162098684Y-67688866D01*
X163051064Y-67069819D02*
X162574874Y-67069819D01*
X162574874Y-67069819D02*
X162527255Y-67546009D01*
X162527255Y-67546009D02*
X162574874Y-67498390D01*
X162574874Y-67498390D02*
X162670112Y-67450771D01*
X162670112Y-67450771D02*
X162908207Y-67450771D01*
X162908207Y-67450771D02*
X163003445Y-67498390D01*
X163003445Y-67498390D02*
X163051064Y-67546009D01*
X163051064Y-67546009D02*
X163098683Y-67641247D01*
X163098683Y-67641247D02*
X163098683Y-67879342D01*
X163098683Y-67879342D02*
X163051064Y-67974580D01*
X163051064Y-67974580D02*
X163003445Y-68022200D01*
X163003445Y-68022200D02*
X162908207Y-68069819D01*
X162908207Y-68069819D02*
X162670112Y-68069819D01*
X162670112Y-68069819D02*
X162574874Y-68022200D01*
X162574874Y-68022200D02*
X162527255Y-67974580D01*
X163384398Y-67069819D02*
X163717731Y-68069819D01*
X163717731Y-68069819D02*
X164051064Y-67069819D01*
X150936779Y-67688866D02*
X151698684Y-67688866D01*
X152127255Y-67165057D02*
X152174874Y-67117438D01*
X152174874Y-67117438D02*
X152270112Y-67069819D01*
X152270112Y-67069819D02*
X152508207Y-67069819D01*
X152508207Y-67069819D02*
X152603445Y-67117438D01*
X152603445Y-67117438D02*
X152651064Y-67165057D01*
X152651064Y-67165057D02*
X152698683Y-67260295D01*
X152698683Y-67260295D02*
X152698683Y-67355533D01*
X152698683Y-67355533D02*
X152651064Y-67498390D01*
X152651064Y-67498390D02*
X152079636Y-68069819D01*
X152079636Y-68069819D02*
X152698683Y-68069819D01*
X153032017Y-67069819D02*
X153698683Y-67069819D01*
X153698683Y-67069819D02*
X153270112Y-68069819D01*
X153936779Y-67069819D02*
X154270112Y-68069819D01*
X154270112Y-68069819D02*
X154603445Y-67069819D01*
X134354761Y-62450057D02*
X134259523Y-62402438D01*
X134259523Y-62402438D02*
X134164285Y-62307200D01*
X134164285Y-62307200D02*
X134021428Y-62164342D01*
X134021428Y-62164342D02*
X133926190Y-62116723D01*
X133926190Y-62116723D02*
X133830952Y-62116723D01*
X133878571Y-62354819D02*
X133783333Y-62307200D01*
X133783333Y-62307200D02*
X133688095Y-62211961D01*
X133688095Y-62211961D02*
X133640476Y-62021485D01*
X133640476Y-62021485D02*
X133640476Y-61688152D01*
X133640476Y-61688152D02*
X133688095Y-61497676D01*
X133688095Y-61497676D02*
X133783333Y-61402438D01*
X133783333Y-61402438D02*
X133878571Y-61354819D01*
X133878571Y-61354819D02*
X134069047Y-61354819D01*
X134069047Y-61354819D02*
X134164285Y-61402438D01*
X134164285Y-61402438D02*
X134259523Y-61497676D01*
X134259523Y-61497676D02*
X134307142Y-61688152D01*
X134307142Y-61688152D02*
X134307142Y-62021485D01*
X134307142Y-62021485D02*
X134259523Y-62211961D01*
X134259523Y-62211961D02*
X134164285Y-62307200D01*
X134164285Y-62307200D02*
X134069047Y-62354819D01*
X134069047Y-62354819D02*
X133878571Y-62354819D01*
X135211904Y-61354819D02*
X134735714Y-61354819D01*
X134735714Y-61354819D02*
X134688095Y-61831009D01*
X134688095Y-61831009D02*
X134735714Y-61783390D01*
X134735714Y-61783390D02*
X134830952Y-61735771D01*
X134830952Y-61735771D02*
X135069047Y-61735771D01*
X135069047Y-61735771D02*
X135164285Y-61783390D01*
X135164285Y-61783390D02*
X135211904Y-61831009D01*
X135211904Y-61831009D02*
X135259523Y-61926247D01*
X135259523Y-61926247D02*
X135259523Y-62164342D01*
X135259523Y-62164342D02*
X135211904Y-62259580D01*
X135211904Y-62259580D02*
X135164285Y-62307200D01*
X135164285Y-62307200D02*
X135069047Y-62354819D01*
X135069047Y-62354819D02*
X134830952Y-62354819D01*
X134830952Y-62354819D02*
X134735714Y-62307200D01*
X134735714Y-62307200D02*
X134688095Y-62259580D01*
X180557142Y-66424819D02*
X180223809Y-65948628D01*
X179985714Y-66424819D02*
X179985714Y-65424819D01*
X179985714Y-65424819D02*
X180366666Y-65424819D01*
X180366666Y-65424819D02*
X180461904Y-65472438D01*
X180461904Y-65472438D02*
X180509523Y-65520057D01*
X180509523Y-65520057D02*
X180557142Y-65615295D01*
X180557142Y-65615295D02*
X180557142Y-65758152D01*
X180557142Y-65758152D02*
X180509523Y-65853390D01*
X180509523Y-65853390D02*
X180461904Y-65901009D01*
X180461904Y-65901009D02*
X180366666Y-65948628D01*
X180366666Y-65948628D02*
X179985714Y-65948628D01*
X180890476Y-65424819D02*
X181509523Y-65424819D01*
X181509523Y-65424819D02*
X181176190Y-65805771D01*
X181176190Y-65805771D02*
X181319047Y-65805771D01*
X181319047Y-65805771D02*
X181414285Y-65853390D01*
X181414285Y-65853390D02*
X181461904Y-65901009D01*
X181461904Y-65901009D02*
X181509523Y-65996247D01*
X181509523Y-65996247D02*
X181509523Y-66234342D01*
X181509523Y-66234342D02*
X181461904Y-66329580D01*
X181461904Y-66329580D02*
X181414285Y-66377200D01*
X181414285Y-66377200D02*
X181319047Y-66424819D01*
X181319047Y-66424819D02*
X181033333Y-66424819D01*
X181033333Y-66424819D02*
X180938095Y-66377200D01*
X180938095Y-66377200D02*
X180890476Y-66329580D01*
X182414285Y-65424819D02*
X181938095Y-65424819D01*
X181938095Y-65424819D02*
X181890476Y-65901009D01*
X181890476Y-65901009D02*
X181938095Y-65853390D01*
X181938095Y-65853390D02*
X182033333Y-65805771D01*
X182033333Y-65805771D02*
X182271428Y-65805771D01*
X182271428Y-65805771D02*
X182366666Y-65853390D01*
X182366666Y-65853390D02*
X182414285Y-65901009D01*
X182414285Y-65901009D02*
X182461904Y-65996247D01*
X182461904Y-65996247D02*
X182461904Y-66234342D01*
X182461904Y-66234342D02*
X182414285Y-66329580D01*
X182414285Y-66329580D02*
X182366666Y-66377200D01*
X182366666Y-66377200D02*
X182271428Y-66424819D01*
X182271428Y-66424819D02*
X182033333Y-66424819D01*
X182033333Y-66424819D02*
X181938095Y-66377200D01*
X181938095Y-66377200D02*
X181890476Y-66329580D01*
X167632142Y-49604819D02*
X167298809Y-49128628D01*
X167060714Y-49604819D02*
X167060714Y-48604819D01*
X167060714Y-48604819D02*
X167441666Y-48604819D01*
X167441666Y-48604819D02*
X167536904Y-48652438D01*
X167536904Y-48652438D02*
X167584523Y-48700057D01*
X167584523Y-48700057D02*
X167632142Y-48795295D01*
X167632142Y-48795295D02*
X167632142Y-48938152D01*
X167632142Y-48938152D02*
X167584523Y-49033390D01*
X167584523Y-49033390D02*
X167536904Y-49081009D01*
X167536904Y-49081009D02*
X167441666Y-49128628D01*
X167441666Y-49128628D02*
X167060714Y-49128628D01*
X168584523Y-49604819D02*
X168013095Y-49604819D01*
X168298809Y-49604819D02*
X168298809Y-48604819D01*
X168298809Y-48604819D02*
X168203571Y-48747676D01*
X168203571Y-48747676D02*
X168108333Y-48842914D01*
X168108333Y-48842914D02*
X168013095Y-48890533D01*
X169155952Y-49033390D02*
X169060714Y-48985771D01*
X169060714Y-48985771D02*
X169013095Y-48938152D01*
X169013095Y-48938152D02*
X168965476Y-48842914D01*
X168965476Y-48842914D02*
X168965476Y-48795295D01*
X168965476Y-48795295D02*
X169013095Y-48700057D01*
X169013095Y-48700057D02*
X169060714Y-48652438D01*
X169060714Y-48652438D02*
X169155952Y-48604819D01*
X169155952Y-48604819D02*
X169346428Y-48604819D01*
X169346428Y-48604819D02*
X169441666Y-48652438D01*
X169441666Y-48652438D02*
X169489285Y-48700057D01*
X169489285Y-48700057D02*
X169536904Y-48795295D01*
X169536904Y-48795295D02*
X169536904Y-48842914D01*
X169536904Y-48842914D02*
X169489285Y-48938152D01*
X169489285Y-48938152D02*
X169441666Y-48985771D01*
X169441666Y-48985771D02*
X169346428Y-49033390D01*
X169346428Y-49033390D02*
X169155952Y-49033390D01*
X169155952Y-49033390D02*
X169060714Y-49081009D01*
X169060714Y-49081009D02*
X169013095Y-49128628D01*
X169013095Y-49128628D02*
X168965476Y-49223866D01*
X168965476Y-49223866D02*
X168965476Y-49414342D01*
X168965476Y-49414342D02*
X169013095Y-49509580D01*
X169013095Y-49509580D02*
X169060714Y-49557200D01*
X169060714Y-49557200D02*
X169155952Y-49604819D01*
X169155952Y-49604819D02*
X169346428Y-49604819D01*
X169346428Y-49604819D02*
X169441666Y-49557200D01*
X169441666Y-49557200D02*
X169489285Y-49509580D01*
X169489285Y-49509580D02*
X169536904Y-49414342D01*
X169536904Y-49414342D02*
X169536904Y-49223866D01*
X169536904Y-49223866D02*
X169489285Y-49128628D01*
X169489285Y-49128628D02*
X169441666Y-49081009D01*
X169441666Y-49081009D02*
X169346428Y-49033390D01*
X171154819Y-49566666D02*
X170678628Y-49899999D01*
X171154819Y-50138094D02*
X170154819Y-50138094D01*
X170154819Y-50138094D02*
X170154819Y-49757142D01*
X170154819Y-49757142D02*
X170202438Y-49661904D01*
X170202438Y-49661904D02*
X170250057Y-49614285D01*
X170250057Y-49614285D02*
X170345295Y-49566666D01*
X170345295Y-49566666D02*
X170488152Y-49566666D01*
X170488152Y-49566666D02*
X170583390Y-49614285D01*
X170583390Y-49614285D02*
X170631009Y-49661904D01*
X170631009Y-49661904D02*
X170678628Y-49757142D01*
X170678628Y-49757142D02*
X170678628Y-50138094D01*
X171154819Y-48614285D02*
X171154819Y-49185713D01*
X171154819Y-48899999D02*
X170154819Y-48899999D01*
X170154819Y-48899999D02*
X170297676Y-48995237D01*
X170297676Y-48995237D02*
X170392914Y-49090475D01*
X170392914Y-49090475D02*
X170440533Y-49185713D01*
D11*
X146066666Y-68657419D02*
X146066666Y-69371704D01*
X146066666Y-69371704D02*
X146019047Y-69514561D01*
X146019047Y-69514561D02*
X145923809Y-69609800D01*
X145923809Y-69609800D02*
X145780952Y-69657419D01*
X145780952Y-69657419D02*
X145685714Y-69657419D01*
X146447619Y-68657419D02*
X147066666Y-68657419D01*
X147066666Y-68657419D02*
X146733333Y-69038371D01*
X146733333Y-69038371D02*
X146876190Y-69038371D01*
X146876190Y-69038371D02*
X146971428Y-69085990D01*
X146971428Y-69085990D02*
X147019047Y-69133609D01*
X147019047Y-69133609D02*
X147066666Y-69228847D01*
X147066666Y-69228847D02*
X147066666Y-69466942D01*
X147066666Y-69466942D02*
X147019047Y-69562180D01*
X147019047Y-69562180D02*
X146971428Y-69609800D01*
X146971428Y-69609800D02*
X146876190Y-69657419D01*
X146876190Y-69657419D02*
X146590476Y-69657419D01*
X146590476Y-69657419D02*
X146495238Y-69609800D01*
X146495238Y-69609800D02*
X146447619Y-69562180D01*
D10*
X128457142Y-51804819D02*
X128123809Y-51328628D01*
X127885714Y-51804819D02*
X127885714Y-50804819D01*
X127885714Y-50804819D02*
X128266666Y-50804819D01*
X128266666Y-50804819D02*
X128361904Y-50852438D01*
X128361904Y-50852438D02*
X128409523Y-50900057D01*
X128409523Y-50900057D02*
X128457142Y-50995295D01*
X128457142Y-50995295D02*
X128457142Y-51138152D01*
X128457142Y-51138152D02*
X128409523Y-51233390D01*
X128409523Y-51233390D02*
X128361904Y-51281009D01*
X128361904Y-51281009D02*
X128266666Y-51328628D01*
X128266666Y-51328628D02*
X127885714Y-51328628D01*
X128838095Y-50900057D02*
X128885714Y-50852438D01*
X128885714Y-50852438D02*
X128980952Y-50804819D01*
X128980952Y-50804819D02*
X129219047Y-50804819D01*
X129219047Y-50804819D02*
X129314285Y-50852438D01*
X129314285Y-50852438D02*
X129361904Y-50900057D01*
X129361904Y-50900057D02*
X129409523Y-50995295D01*
X129409523Y-50995295D02*
X129409523Y-51090533D01*
X129409523Y-51090533D02*
X129361904Y-51233390D01*
X129361904Y-51233390D02*
X128790476Y-51804819D01*
X128790476Y-51804819D02*
X129409523Y-51804819D01*
X130361904Y-51804819D02*
X129790476Y-51804819D01*
X130076190Y-51804819D02*
X130076190Y-50804819D01*
X130076190Y-50804819D02*
X129980952Y-50947676D01*
X129980952Y-50947676D02*
X129885714Y-51042914D01*
X129885714Y-51042914D02*
X129790476Y-51090533D01*
X185304761Y-62250057D02*
X185209523Y-62202438D01*
X185209523Y-62202438D02*
X185114285Y-62107200D01*
X185114285Y-62107200D02*
X184971428Y-61964342D01*
X184971428Y-61964342D02*
X184876190Y-61916723D01*
X184876190Y-61916723D02*
X184780952Y-61916723D01*
X184828571Y-62154819D02*
X184733333Y-62107200D01*
X184733333Y-62107200D02*
X184638095Y-62011961D01*
X184638095Y-62011961D02*
X184590476Y-61821485D01*
X184590476Y-61821485D02*
X184590476Y-61488152D01*
X184590476Y-61488152D02*
X184638095Y-61297676D01*
X184638095Y-61297676D02*
X184733333Y-61202438D01*
X184733333Y-61202438D02*
X184828571Y-61154819D01*
X184828571Y-61154819D02*
X185019047Y-61154819D01*
X185019047Y-61154819D02*
X185114285Y-61202438D01*
X185114285Y-61202438D02*
X185209523Y-61297676D01*
X185209523Y-61297676D02*
X185257142Y-61488152D01*
X185257142Y-61488152D02*
X185257142Y-61821485D01*
X185257142Y-61821485D02*
X185209523Y-62011961D01*
X185209523Y-62011961D02*
X185114285Y-62107200D01*
X185114285Y-62107200D02*
X185019047Y-62154819D01*
X185019047Y-62154819D02*
X184828571Y-62154819D01*
X186114285Y-61488152D02*
X186114285Y-62154819D01*
X185876190Y-61107200D02*
X185638095Y-61821485D01*
X185638095Y-61821485D02*
X186257142Y-61821485D01*
X145257142Y-66554819D02*
X144923809Y-66078628D01*
X144685714Y-66554819D02*
X144685714Y-65554819D01*
X144685714Y-65554819D02*
X145066666Y-65554819D01*
X145066666Y-65554819D02*
X145161904Y-65602438D01*
X145161904Y-65602438D02*
X145209523Y-65650057D01*
X145209523Y-65650057D02*
X145257142Y-65745295D01*
X145257142Y-65745295D02*
X145257142Y-65888152D01*
X145257142Y-65888152D02*
X145209523Y-65983390D01*
X145209523Y-65983390D02*
X145161904Y-66031009D01*
X145161904Y-66031009D02*
X145066666Y-66078628D01*
X145066666Y-66078628D02*
X144685714Y-66078628D01*
X145590476Y-65554819D02*
X146209523Y-65554819D01*
X146209523Y-65554819D02*
X145876190Y-65935771D01*
X145876190Y-65935771D02*
X146019047Y-65935771D01*
X146019047Y-65935771D02*
X146114285Y-65983390D01*
X146114285Y-65983390D02*
X146161904Y-66031009D01*
X146161904Y-66031009D02*
X146209523Y-66126247D01*
X146209523Y-66126247D02*
X146209523Y-66364342D01*
X146209523Y-66364342D02*
X146161904Y-66459580D01*
X146161904Y-66459580D02*
X146114285Y-66507200D01*
X146114285Y-66507200D02*
X146019047Y-66554819D01*
X146019047Y-66554819D02*
X145733333Y-66554819D01*
X145733333Y-66554819D02*
X145638095Y-66507200D01*
X145638095Y-66507200D02*
X145590476Y-66459580D01*
X147066666Y-65554819D02*
X146876190Y-65554819D01*
X146876190Y-65554819D02*
X146780952Y-65602438D01*
X146780952Y-65602438D02*
X146733333Y-65650057D01*
X146733333Y-65650057D02*
X146638095Y-65792914D01*
X146638095Y-65792914D02*
X146590476Y-65983390D01*
X146590476Y-65983390D02*
X146590476Y-66364342D01*
X146590476Y-66364342D02*
X146638095Y-66459580D01*
X146638095Y-66459580D02*
X146685714Y-66507200D01*
X146685714Y-66507200D02*
X146780952Y-66554819D01*
X146780952Y-66554819D02*
X146971428Y-66554819D01*
X146971428Y-66554819D02*
X147066666Y-66507200D01*
X147066666Y-66507200D02*
X147114285Y-66459580D01*
X147114285Y-66459580D02*
X147161904Y-66364342D01*
X147161904Y-66364342D02*
X147161904Y-66126247D01*
X147161904Y-66126247D02*
X147114285Y-66031009D01*
X147114285Y-66031009D02*
X147066666Y-65983390D01*
X147066666Y-65983390D02*
X146971428Y-65935771D01*
X146971428Y-65935771D02*
X146780952Y-65935771D01*
X146780952Y-65935771D02*
X146685714Y-65983390D01*
X146685714Y-65983390D02*
X146638095Y-66031009D01*
X146638095Y-66031009D02*
X146590476Y-66126247D01*
X138569642Y-66554819D02*
X138236309Y-66078628D01*
X137998214Y-66554819D02*
X137998214Y-65554819D01*
X137998214Y-65554819D02*
X138379166Y-65554819D01*
X138379166Y-65554819D02*
X138474404Y-65602438D01*
X138474404Y-65602438D02*
X138522023Y-65650057D01*
X138522023Y-65650057D02*
X138569642Y-65745295D01*
X138569642Y-65745295D02*
X138569642Y-65888152D01*
X138569642Y-65888152D02*
X138522023Y-65983390D01*
X138522023Y-65983390D02*
X138474404Y-66031009D01*
X138474404Y-66031009D02*
X138379166Y-66078628D01*
X138379166Y-66078628D02*
X137998214Y-66078628D01*
X138902976Y-65554819D02*
X139522023Y-65554819D01*
X139522023Y-65554819D02*
X139188690Y-65935771D01*
X139188690Y-65935771D02*
X139331547Y-65935771D01*
X139331547Y-65935771D02*
X139426785Y-65983390D01*
X139426785Y-65983390D02*
X139474404Y-66031009D01*
X139474404Y-66031009D02*
X139522023Y-66126247D01*
X139522023Y-66126247D02*
X139522023Y-66364342D01*
X139522023Y-66364342D02*
X139474404Y-66459580D01*
X139474404Y-66459580D02*
X139426785Y-66507200D01*
X139426785Y-66507200D02*
X139331547Y-66554819D01*
X139331547Y-66554819D02*
X139045833Y-66554819D01*
X139045833Y-66554819D02*
X138950595Y-66507200D01*
X138950595Y-66507200D02*
X138902976Y-66459580D01*
X139902976Y-65650057D02*
X139950595Y-65602438D01*
X139950595Y-65602438D02*
X140045833Y-65554819D01*
X140045833Y-65554819D02*
X140283928Y-65554819D01*
X140283928Y-65554819D02*
X140379166Y-65602438D01*
X140379166Y-65602438D02*
X140426785Y-65650057D01*
X140426785Y-65650057D02*
X140474404Y-65745295D01*
X140474404Y-65745295D02*
X140474404Y-65840533D01*
X140474404Y-65840533D02*
X140426785Y-65983390D01*
X140426785Y-65983390D02*
X139855357Y-66554819D01*
X139855357Y-66554819D02*
X140474404Y-66554819D01*
X162092261Y-46000057D02*
X161997023Y-45952438D01*
X161997023Y-45952438D02*
X161901785Y-45857200D01*
X161901785Y-45857200D02*
X161758928Y-45714342D01*
X161758928Y-45714342D02*
X161663690Y-45666723D01*
X161663690Y-45666723D02*
X161568452Y-45666723D01*
X161616071Y-45904819D02*
X161520833Y-45857200D01*
X161520833Y-45857200D02*
X161425595Y-45761961D01*
X161425595Y-45761961D02*
X161377976Y-45571485D01*
X161377976Y-45571485D02*
X161377976Y-45238152D01*
X161377976Y-45238152D02*
X161425595Y-45047676D01*
X161425595Y-45047676D02*
X161520833Y-44952438D01*
X161520833Y-44952438D02*
X161616071Y-44904819D01*
X161616071Y-44904819D02*
X161806547Y-44904819D01*
X161806547Y-44904819D02*
X161901785Y-44952438D01*
X161901785Y-44952438D02*
X161997023Y-45047676D01*
X161997023Y-45047676D02*
X162044642Y-45238152D01*
X162044642Y-45238152D02*
X162044642Y-45571485D01*
X162044642Y-45571485D02*
X161997023Y-45761961D01*
X161997023Y-45761961D02*
X161901785Y-45857200D01*
X161901785Y-45857200D02*
X161806547Y-45904819D01*
X161806547Y-45904819D02*
X161616071Y-45904819D01*
X162377976Y-44904819D02*
X163044642Y-44904819D01*
X163044642Y-44904819D02*
X162616071Y-45904819D01*
X188454819Y-49042857D02*
X187978628Y-49376190D01*
X188454819Y-49614285D02*
X187454819Y-49614285D01*
X187454819Y-49614285D02*
X187454819Y-49233333D01*
X187454819Y-49233333D02*
X187502438Y-49138095D01*
X187502438Y-49138095D02*
X187550057Y-49090476D01*
X187550057Y-49090476D02*
X187645295Y-49042857D01*
X187645295Y-49042857D02*
X187788152Y-49042857D01*
X187788152Y-49042857D02*
X187883390Y-49090476D01*
X187883390Y-49090476D02*
X187931009Y-49138095D01*
X187931009Y-49138095D02*
X187978628Y-49233333D01*
X187978628Y-49233333D02*
X187978628Y-49614285D01*
X187550057Y-48661904D02*
X187502438Y-48614285D01*
X187502438Y-48614285D02*
X187454819Y-48519047D01*
X187454819Y-48519047D02*
X187454819Y-48280952D01*
X187454819Y-48280952D02*
X187502438Y-48185714D01*
X187502438Y-48185714D02*
X187550057Y-48138095D01*
X187550057Y-48138095D02*
X187645295Y-48090476D01*
X187645295Y-48090476D02*
X187740533Y-48090476D01*
X187740533Y-48090476D02*
X187883390Y-48138095D01*
X187883390Y-48138095D02*
X188454819Y-48709523D01*
X188454819Y-48709523D02*
X188454819Y-48090476D01*
X187454819Y-47471428D02*
X187454819Y-47376190D01*
X187454819Y-47376190D02*
X187502438Y-47280952D01*
X187502438Y-47280952D02*
X187550057Y-47233333D01*
X187550057Y-47233333D02*
X187645295Y-47185714D01*
X187645295Y-47185714D02*
X187835771Y-47138095D01*
X187835771Y-47138095D02*
X188073866Y-47138095D01*
X188073866Y-47138095D02*
X188264342Y-47185714D01*
X188264342Y-47185714D02*
X188359580Y-47233333D01*
X188359580Y-47233333D02*
X188407200Y-47280952D01*
X188407200Y-47280952D02*
X188454819Y-47376190D01*
X188454819Y-47376190D02*
X188454819Y-47471428D01*
X188454819Y-47471428D02*
X188407200Y-47566666D01*
X188407200Y-47566666D02*
X188359580Y-47614285D01*
X188359580Y-47614285D02*
X188264342Y-47661904D01*
X188264342Y-47661904D02*
X188073866Y-47709523D01*
X188073866Y-47709523D02*
X187835771Y-47709523D01*
X187835771Y-47709523D02*
X187645295Y-47661904D01*
X187645295Y-47661904D02*
X187550057Y-47614285D01*
X187550057Y-47614285D02*
X187502438Y-47566666D01*
X187502438Y-47566666D02*
X187454819Y-47471428D01*
X149094642Y-49967319D02*
X148761309Y-49491128D01*
X148523214Y-49967319D02*
X148523214Y-48967319D01*
X148523214Y-48967319D02*
X148904166Y-48967319D01*
X148904166Y-48967319D02*
X148999404Y-49014938D01*
X148999404Y-49014938D02*
X149047023Y-49062557D01*
X149047023Y-49062557D02*
X149094642Y-49157795D01*
X149094642Y-49157795D02*
X149094642Y-49300652D01*
X149094642Y-49300652D02*
X149047023Y-49395890D01*
X149047023Y-49395890D02*
X148999404Y-49443509D01*
X148999404Y-49443509D02*
X148904166Y-49491128D01*
X148904166Y-49491128D02*
X148523214Y-49491128D01*
X149475595Y-49062557D02*
X149523214Y-49014938D01*
X149523214Y-49014938D02*
X149618452Y-48967319D01*
X149618452Y-48967319D02*
X149856547Y-48967319D01*
X149856547Y-48967319D02*
X149951785Y-49014938D01*
X149951785Y-49014938D02*
X149999404Y-49062557D01*
X149999404Y-49062557D02*
X150047023Y-49157795D01*
X150047023Y-49157795D02*
X150047023Y-49253033D01*
X150047023Y-49253033D02*
X149999404Y-49395890D01*
X149999404Y-49395890D02*
X149427976Y-49967319D01*
X149427976Y-49967319D02*
X150047023Y-49967319D01*
X150904166Y-49300652D02*
X150904166Y-49967319D01*
X150666071Y-48919700D02*
X150427976Y-49633985D01*
X150427976Y-49633985D02*
X151047023Y-49633985D01*
X180554761Y-62250057D02*
X180459523Y-62202438D01*
X180459523Y-62202438D02*
X180364285Y-62107200D01*
X180364285Y-62107200D02*
X180221428Y-61964342D01*
X180221428Y-61964342D02*
X180126190Y-61916723D01*
X180126190Y-61916723D02*
X180030952Y-61916723D01*
X180078571Y-62154819D02*
X179983333Y-62107200D01*
X179983333Y-62107200D02*
X179888095Y-62011961D01*
X179888095Y-62011961D02*
X179840476Y-61821485D01*
X179840476Y-61821485D02*
X179840476Y-61488152D01*
X179840476Y-61488152D02*
X179888095Y-61297676D01*
X179888095Y-61297676D02*
X179983333Y-61202438D01*
X179983333Y-61202438D02*
X180078571Y-61154819D01*
X180078571Y-61154819D02*
X180269047Y-61154819D01*
X180269047Y-61154819D02*
X180364285Y-61202438D01*
X180364285Y-61202438D02*
X180459523Y-61297676D01*
X180459523Y-61297676D02*
X180507142Y-61488152D01*
X180507142Y-61488152D02*
X180507142Y-61821485D01*
X180507142Y-61821485D02*
X180459523Y-62011961D01*
X180459523Y-62011961D02*
X180364285Y-62107200D01*
X180364285Y-62107200D02*
X180269047Y-62154819D01*
X180269047Y-62154819D02*
X180078571Y-62154819D01*
X181364285Y-61154819D02*
X181173809Y-61154819D01*
X181173809Y-61154819D02*
X181078571Y-61202438D01*
X181078571Y-61202438D02*
X181030952Y-61250057D01*
X181030952Y-61250057D02*
X180935714Y-61392914D01*
X180935714Y-61392914D02*
X180888095Y-61583390D01*
X180888095Y-61583390D02*
X180888095Y-61964342D01*
X180888095Y-61964342D02*
X180935714Y-62059580D01*
X180935714Y-62059580D02*
X180983333Y-62107200D01*
X180983333Y-62107200D02*
X181078571Y-62154819D01*
X181078571Y-62154819D02*
X181269047Y-62154819D01*
X181269047Y-62154819D02*
X181364285Y-62107200D01*
X181364285Y-62107200D02*
X181411904Y-62059580D01*
X181411904Y-62059580D02*
X181459523Y-61964342D01*
X181459523Y-61964342D02*
X181459523Y-61726247D01*
X181459523Y-61726247D02*
X181411904Y-61631009D01*
X181411904Y-61631009D02*
X181364285Y-61583390D01*
X181364285Y-61583390D02*
X181269047Y-61535771D01*
X181269047Y-61535771D02*
X181078571Y-61535771D01*
X181078571Y-61535771D02*
X180983333Y-61583390D01*
X180983333Y-61583390D02*
X180935714Y-61631009D01*
X180935714Y-61631009D02*
X180888095Y-61726247D01*
D11*
X143694862Y-43657419D02*
X143694862Y-44371704D01*
X143694862Y-44371704D02*
X143647243Y-44514561D01*
X143647243Y-44514561D02*
X143552005Y-44609800D01*
X143552005Y-44609800D02*
X143409148Y-44657419D01*
X143409148Y-44657419D02*
X143313910Y-44657419D01*
X144694862Y-44657419D02*
X144123434Y-44657419D01*
X144409148Y-44657419D02*
X144409148Y-43657419D01*
X144409148Y-43657419D02*
X144313910Y-43800276D01*
X144313910Y-43800276D02*
X144218672Y-43895514D01*
X144218672Y-43895514D02*
X144123434Y-43943133D01*
D10*
X161466666Y-68454819D02*
X161466666Y-69169104D01*
X161466666Y-69169104D02*
X161419047Y-69311961D01*
X161419047Y-69311961D02*
X161323809Y-69407200D01*
X161323809Y-69407200D02*
X161180952Y-69454819D01*
X161180952Y-69454819D02*
X161085714Y-69454819D01*
X162419047Y-68454819D02*
X161942857Y-68454819D01*
X161942857Y-68454819D02*
X161895238Y-68931009D01*
X161895238Y-68931009D02*
X161942857Y-68883390D01*
X161942857Y-68883390D02*
X162038095Y-68835771D01*
X162038095Y-68835771D02*
X162276190Y-68835771D01*
X162276190Y-68835771D02*
X162371428Y-68883390D01*
X162371428Y-68883390D02*
X162419047Y-68931009D01*
X162419047Y-68931009D02*
X162466666Y-69026247D01*
X162466666Y-69026247D02*
X162466666Y-69264342D01*
X162466666Y-69264342D02*
X162419047Y-69359580D01*
X162419047Y-69359580D02*
X162371428Y-69407200D01*
X162371428Y-69407200D02*
X162276190Y-69454819D01*
X162276190Y-69454819D02*
X162038095Y-69454819D01*
X162038095Y-69454819D02*
X161942857Y-69407200D01*
X161942857Y-69407200D02*
X161895238Y-69359580D01*
X132854819Y-49741666D02*
X132378628Y-50074999D01*
X132854819Y-50313094D02*
X131854819Y-50313094D01*
X131854819Y-50313094D02*
X131854819Y-49932142D01*
X131854819Y-49932142D02*
X131902438Y-49836904D01*
X131902438Y-49836904D02*
X131950057Y-49789285D01*
X131950057Y-49789285D02*
X132045295Y-49741666D01*
X132045295Y-49741666D02*
X132188152Y-49741666D01*
X132188152Y-49741666D02*
X132283390Y-49789285D01*
X132283390Y-49789285D02*
X132331009Y-49836904D01*
X132331009Y-49836904D02*
X132378628Y-49932142D01*
X132378628Y-49932142D02*
X132378628Y-50313094D01*
X131854819Y-48836904D02*
X131854819Y-49313094D01*
X131854819Y-49313094D02*
X132331009Y-49360713D01*
X132331009Y-49360713D02*
X132283390Y-49313094D01*
X132283390Y-49313094D02*
X132235771Y-49217856D01*
X132235771Y-49217856D02*
X132235771Y-48979761D01*
X132235771Y-48979761D02*
X132283390Y-48884523D01*
X132283390Y-48884523D02*
X132331009Y-48836904D01*
X132331009Y-48836904D02*
X132426247Y-48789285D01*
X132426247Y-48789285D02*
X132664342Y-48789285D01*
X132664342Y-48789285D02*
X132759580Y-48836904D01*
X132759580Y-48836904D02*
X132807200Y-48884523D01*
X132807200Y-48884523D02*
X132854819Y-48979761D01*
X132854819Y-48979761D02*
X132854819Y-49217856D01*
X132854819Y-49217856D02*
X132807200Y-49313094D01*
X132807200Y-49313094D02*
X132759580Y-49360713D01*
D11*
X167266666Y-68657419D02*
X167266666Y-69371704D01*
X167266666Y-69371704D02*
X167219047Y-69514561D01*
X167219047Y-69514561D02*
X167123809Y-69609800D01*
X167123809Y-69609800D02*
X166980952Y-69657419D01*
X166980952Y-69657419D02*
X166885714Y-69657419D01*
X168171428Y-68990752D02*
X168171428Y-69657419D01*
X167933333Y-68609800D02*
X167695238Y-69324085D01*
X167695238Y-69324085D02*
X168314285Y-69324085D01*
D10*
X129104761Y-62450057D02*
X129009523Y-62402438D01*
X129009523Y-62402438D02*
X128914285Y-62307200D01*
X128914285Y-62307200D02*
X128771428Y-62164342D01*
X128771428Y-62164342D02*
X128676190Y-62116723D01*
X128676190Y-62116723D02*
X128580952Y-62116723D01*
X128628571Y-62354819D02*
X128533333Y-62307200D01*
X128533333Y-62307200D02*
X128438095Y-62211961D01*
X128438095Y-62211961D02*
X128390476Y-62021485D01*
X128390476Y-62021485D02*
X128390476Y-61688152D01*
X128390476Y-61688152D02*
X128438095Y-61497676D01*
X128438095Y-61497676D02*
X128533333Y-61402438D01*
X128533333Y-61402438D02*
X128628571Y-61354819D01*
X128628571Y-61354819D02*
X128819047Y-61354819D01*
X128819047Y-61354819D02*
X128914285Y-61402438D01*
X128914285Y-61402438D02*
X129009523Y-61497676D01*
X129009523Y-61497676D02*
X129057142Y-61688152D01*
X129057142Y-61688152D02*
X129057142Y-62021485D01*
X129057142Y-62021485D02*
X129009523Y-62211961D01*
X129009523Y-62211961D02*
X128914285Y-62307200D01*
X128914285Y-62307200D02*
X128819047Y-62354819D01*
X128819047Y-62354819D02*
X128628571Y-62354819D01*
X130009523Y-62354819D02*
X129438095Y-62354819D01*
X129723809Y-62354819D02*
X129723809Y-61354819D01*
X129723809Y-61354819D02*
X129628571Y-61497676D01*
X129628571Y-61497676D02*
X129533333Y-61592914D01*
X129533333Y-61592914D02*
X129438095Y-61640533D01*
X135257142Y-66554819D02*
X134923809Y-66078628D01*
X134685714Y-66554819D02*
X134685714Y-65554819D01*
X134685714Y-65554819D02*
X135066666Y-65554819D01*
X135066666Y-65554819D02*
X135161904Y-65602438D01*
X135161904Y-65602438D02*
X135209523Y-65650057D01*
X135209523Y-65650057D02*
X135257142Y-65745295D01*
X135257142Y-65745295D02*
X135257142Y-65888152D01*
X135257142Y-65888152D02*
X135209523Y-65983390D01*
X135209523Y-65983390D02*
X135161904Y-66031009D01*
X135161904Y-66031009D02*
X135066666Y-66078628D01*
X135066666Y-66078628D02*
X134685714Y-66078628D01*
X135590476Y-65554819D02*
X136209523Y-65554819D01*
X136209523Y-65554819D02*
X135876190Y-65935771D01*
X135876190Y-65935771D02*
X136019047Y-65935771D01*
X136019047Y-65935771D02*
X136114285Y-65983390D01*
X136114285Y-65983390D02*
X136161904Y-66031009D01*
X136161904Y-66031009D02*
X136209523Y-66126247D01*
X136209523Y-66126247D02*
X136209523Y-66364342D01*
X136209523Y-66364342D02*
X136161904Y-66459580D01*
X136161904Y-66459580D02*
X136114285Y-66507200D01*
X136114285Y-66507200D02*
X136019047Y-66554819D01*
X136019047Y-66554819D02*
X135733333Y-66554819D01*
X135733333Y-66554819D02*
X135638095Y-66507200D01*
X135638095Y-66507200D02*
X135590476Y-66459580D01*
X136828571Y-65554819D02*
X136923809Y-65554819D01*
X136923809Y-65554819D02*
X137019047Y-65602438D01*
X137019047Y-65602438D02*
X137066666Y-65650057D01*
X137066666Y-65650057D02*
X137114285Y-65745295D01*
X137114285Y-65745295D02*
X137161904Y-65935771D01*
X137161904Y-65935771D02*
X137161904Y-66173866D01*
X137161904Y-66173866D02*
X137114285Y-66364342D01*
X137114285Y-66364342D02*
X137066666Y-66459580D01*
X137066666Y-66459580D02*
X137019047Y-66507200D01*
X137019047Y-66507200D02*
X136923809Y-66554819D01*
X136923809Y-66554819D02*
X136828571Y-66554819D01*
X136828571Y-66554819D02*
X136733333Y-66507200D01*
X136733333Y-66507200D02*
X136685714Y-66459580D01*
X136685714Y-66459580D02*
X136638095Y-66364342D01*
X136638095Y-66364342D02*
X136590476Y-66173866D01*
X136590476Y-66173866D02*
X136590476Y-65935771D01*
X136590476Y-65935771D02*
X136638095Y-65745295D01*
X136638095Y-65745295D02*
X136685714Y-65650057D01*
X136685714Y-65650057D02*
X136733333Y-65602438D01*
X136733333Y-65602438D02*
X136828571Y-65554819D01*
X178854819Y-49666666D02*
X178378628Y-49999999D01*
X178854819Y-50238094D02*
X177854819Y-50238094D01*
X177854819Y-50238094D02*
X177854819Y-49857142D01*
X177854819Y-49857142D02*
X177902438Y-49761904D01*
X177902438Y-49761904D02*
X177950057Y-49714285D01*
X177950057Y-49714285D02*
X178045295Y-49666666D01*
X178045295Y-49666666D02*
X178188152Y-49666666D01*
X178188152Y-49666666D02*
X178283390Y-49714285D01*
X178283390Y-49714285D02*
X178331009Y-49761904D01*
X178331009Y-49761904D02*
X178378628Y-49857142D01*
X178378628Y-49857142D02*
X178378628Y-50238094D01*
X177854819Y-49333332D02*
X177854819Y-48714285D01*
X177854819Y-48714285D02*
X178235771Y-49047618D01*
X178235771Y-49047618D02*
X178235771Y-48904761D01*
X178235771Y-48904761D02*
X178283390Y-48809523D01*
X178283390Y-48809523D02*
X178331009Y-48761904D01*
X178331009Y-48761904D02*
X178426247Y-48714285D01*
X178426247Y-48714285D02*
X178664342Y-48714285D01*
X178664342Y-48714285D02*
X178759580Y-48761904D01*
X178759580Y-48761904D02*
X178807200Y-48809523D01*
X178807200Y-48809523D02*
X178854819Y-48904761D01*
X178854819Y-48904761D02*
X178854819Y-49190475D01*
X178854819Y-49190475D02*
X178807200Y-49285713D01*
X178807200Y-49285713D02*
X178759580Y-49333332D01*
X188350057Y-45795238D02*
X188302438Y-45890476D01*
X188302438Y-45890476D02*
X188207200Y-45985714D01*
X188207200Y-45985714D02*
X188064342Y-46128571D01*
X188064342Y-46128571D02*
X188016723Y-46223809D01*
X188016723Y-46223809D02*
X188016723Y-46319047D01*
X188254819Y-46271428D02*
X188207200Y-46366666D01*
X188207200Y-46366666D02*
X188111961Y-46461904D01*
X188111961Y-46461904D02*
X187921485Y-46509523D01*
X187921485Y-46509523D02*
X187588152Y-46509523D01*
X187588152Y-46509523D02*
X187397676Y-46461904D01*
X187397676Y-46461904D02*
X187302438Y-46366666D01*
X187302438Y-46366666D02*
X187254819Y-46271428D01*
X187254819Y-46271428D02*
X187254819Y-46080952D01*
X187254819Y-46080952D02*
X187302438Y-45985714D01*
X187302438Y-45985714D02*
X187397676Y-45890476D01*
X187397676Y-45890476D02*
X187588152Y-45842857D01*
X187588152Y-45842857D02*
X187921485Y-45842857D01*
X187921485Y-45842857D02*
X188111961Y-45890476D01*
X188111961Y-45890476D02*
X188207200Y-45985714D01*
X188207200Y-45985714D02*
X188254819Y-46080952D01*
X188254819Y-46080952D02*
X188254819Y-46271428D01*
X187683390Y-45271428D02*
X187635771Y-45366666D01*
X187635771Y-45366666D02*
X187588152Y-45414285D01*
X187588152Y-45414285D02*
X187492914Y-45461904D01*
X187492914Y-45461904D02*
X187445295Y-45461904D01*
X187445295Y-45461904D02*
X187350057Y-45414285D01*
X187350057Y-45414285D02*
X187302438Y-45366666D01*
X187302438Y-45366666D02*
X187254819Y-45271428D01*
X187254819Y-45271428D02*
X187254819Y-45080952D01*
X187254819Y-45080952D02*
X187302438Y-44985714D01*
X187302438Y-44985714D02*
X187350057Y-44938095D01*
X187350057Y-44938095D02*
X187445295Y-44890476D01*
X187445295Y-44890476D02*
X187492914Y-44890476D01*
X187492914Y-44890476D02*
X187588152Y-44938095D01*
X187588152Y-44938095D02*
X187635771Y-44985714D01*
X187635771Y-44985714D02*
X187683390Y-45080952D01*
X187683390Y-45080952D02*
X187683390Y-45271428D01*
X187683390Y-45271428D02*
X187731009Y-45366666D01*
X187731009Y-45366666D02*
X187778628Y-45414285D01*
X187778628Y-45414285D02*
X187873866Y-45461904D01*
X187873866Y-45461904D02*
X188064342Y-45461904D01*
X188064342Y-45461904D02*
X188159580Y-45414285D01*
X188159580Y-45414285D02*
X188207200Y-45366666D01*
X188207200Y-45366666D02*
X188254819Y-45271428D01*
X188254819Y-45271428D02*
X188254819Y-45080952D01*
X188254819Y-45080952D02*
X188207200Y-44985714D01*
X188207200Y-44985714D02*
X188159580Y-44938095D01*
X188159580Y-44938095D02*
X188064342Y-44890476D01*
X188064342Y-44890476D02*
X187873866Y-44890476D01*
X187873866Y-44890476D02*
X187778628Y-44938095D01*
X187778628Y-44938095D02*
X187731009Y-44985714D01*
X187731009Y-44985714D02*
X187683390Y-45080952D01*
X149178571Y-45450057D02*
X149083333Y-45402438D01*
X149083333Y-45402438D02*
X148988095Y-45307200D01*
X148988095Y-45307200D02*
X148845238Y-45164342D01*
X148845238Y-45164342D02*
X148750000Y-45116723D01*
X148750000Y-45116723D02*
X148654762Y-45116723D01*
X148702381Y-45354819D02*
X148607143Y-45307200D01*
X148607143Y-45307200D02*
X148511905Y-45211961D01*
X148511905Y-45211961D02*
X148464286Y-45021485D01*
X148464286Y-45021485D02*
X148464286Y-44688152D01*
X148464286Y-44688152D02*
X148511905Y-44497676D01*
X148511905Y-44497676D02*
X148607143Y-44402438D01*
X148607143Y-44402438D02*
X148702381Y-44354819D01*
X148702381Y-44354819D02*
X148892857Y-44354819D01*
X148892857Y-44354819D02*
X148988095Y-44402438D01*
X148988095Y-44402438D02*
X149083333Y-44497676D01*
X149083333Y-44497676D02*
X149130952Y-44688152D01*
X149130952Y-44688152D02*
X149130952Y-45021485D01*
X149130952Y-45021485D02*
X149083333Y-45211961D01*
X149083333Y-45211961D02*
X148988095Y-45307200D01*
X148988095Y-45307200D02*
X148892857Y-45354819D01*
X148892857Y-45354819D02*
X148702381Y-45354819D01*
X150083333Y-45354819D02*
X149511905Y-45354819D01*
X149797619Y-45354819D02*
X149797619Y-44354819D01*
X149797619Y-44354819D02*
X149702381Y-44497676D01*
X149702381Y-44497676D02*
X149607143Y-44592914D01*
X149607143Y-44592914D02*
X149511905Y-44640533D01*
X150702381Y-44354819D02*
X150797619Y-44354819D01*
X150797619Y-44354819D02*
X150892857Y-44402438D01*
X150892857Y-44402438D02*
X150940476Y-44450057D01*
X150940476Y-44450057D02*
X150988095Y-44545295D01*
X150988095Y-44545295D02*
X151035714Y-44735771D01*
X151035714Y-44735771D02*
X151035714Y-44973866D01*
X151035714Y-44973866D02*
X150988095Y-45164342D01*
X150988095Y-45164342D02*
X150940476Y-45259580D01*
X150940476Y-45259580D02*
X150892857Y-45307200D01*
X150892857Y-45307200D02*
X150797619Y-45354819D01*
X150797619Y-45354819D02*
X150702381Y-45354819D01*
X150702381Y-45354819D02*
X150607143Y-45307200D01*
X150607143Y-45307200D02*
X150559524Y-45259580D01*
X150559524Y-45259580D02*
X150511905Y-45164342D01*
X150511905Y-45164342D02*
X150464286Y-44973866D01*
X150464286Y-44973866D02*
X150464286Y-44735771D01*
X150464286Y-44735771D02*
X150511905Y-44545295D01*
X150511905Y-44545295D02*
X150559524Y-44450057D01*
X150559524Y-44450057D02*
X150607143Y-44402438D01*
X150607143Y-44402438D02*
X150702381Y-44354819D01*
X139504761Y-62350057D02*
X139409523Y-62302438D01*
X139409523Y-62302438D02*
X139314285Y-62207200D01*
X139314285Y-62207200D02*
X139171428Y-62064342D01*
X139171428Y-62064342D02*
X139076190Y-62016723D01*
X139076190Y-62016723D02*
X138980952Y-62016723D01*
X139028571Y-62254819D02*
X138933333Y-62207200D01*
X138933333Y-62207200D02*
X138838095Y-62111961D01*
X138838095Y-62111961D02*
X138790476Y-61921485D01*
X138790476Y-61921485D02*
X138790476Y-61588152D01*
X138790476Y-61588152D02*
X138838095Y-61397676D01*
X138838095Y-61397676D02*
X138933333Y-61302438D01*
X138933333Y-61302438D02*
X139028571Y-61254819D01*
X139028571Y-61254819D02*
X139219047Y-61254819D01*
X139219047Y-61254819D02*
X139314285Y-61302438D01*
X139314285Y-61302438D02*
X139409523Y-61397676D01*
X139409523Y-61397676D02*
X139457142Y-61588152D01*
X139457142Y-61588152D02*
X139457142Y-61921485D01*
X139457142Y-61921485D02*
X139409523Y-62111961D01*
X139409523Y-62111961D02*
X139314285Y-62207200D01*
X139314285Y-62207200D02*
X139219047Y-62254819D01*
X139219047Y-62254819D02*
X139028571Y-62254819D01*
X139838095Y-61350057D02*
X139885714Y-61302438D01*
X139885714Y-61302438D02*
X139980952Y-61254819D01*
X139980952Y-61254819D02*
X140219047Y-61254819D01*
X140219047Y-61254819D02*
X140314285Y-61302438D01*
X140314285Y-61302438D02*
X140361904Y-61350057D01*
X140361904Y-61350057D02*
X140409523Y-61445295D01*
X140409523Y-61445295D02*
X140409523Y-61540533D01*
X140409523Y-61540533D02*
X140361904Y-61683390D01*
X140361904Y-61683390D02*
X139790476Y-62254819D01*
X139790476Y-62254819D02*
X140409523Y-62254819D01*
D11*
X169694862Y-43657419D02*
X169694862Y-44371704D01*
X169694862Y-44371704D02*
X169647243Y-44514561D01*
X169647243Y-44514561D02*
X169552005Y-44609800D01*
X169552005Y-44609800D02*
X169409148Y-44657419D01*
X169409148Y-44657419D02*
X169313910Y-44657419D01*
X170123434Y-43752657D02*
X170171053Y-43705038D01*
X170171053Y-43705038D02*
X170266291Y-43657419D01*
X170266291Y-43657419D02*
X170504386Y-43657419D01*
X170504386Y-43657419D02*
X170599624Y-43705038D01*
X170599624Y-43705038D02*
X170647243Y-43752657D01*
X170647243Y-43752657D02*
X170694862Y-43847895D01*
X170694862Y-43847895D02*
X170694862Y-43943133D01*
X170694862Y-43943133D02*
X170647243Y-44085990D01*
X170647243Y-44085990D02*
X170075815Y-44657419D01*
X170075815Y-44657419D02*
X170694862Y-44657419D01*
D10*
X183944642Y-66424819D02*
X183611309Y-65948628D01*
X183373214Y-66424819D02*
X183373214Y-65424819D01*
X183373214Y-65424819D02*
X183754166Y-65424819D01*
X183754166Y-65424819D02*
X183849404Y-65472438D01*
X183849404Y-65472438D02*
X183897023Y-65520057D01*
X183897023Y-65520057D02*
X183944642Y-65615295D01*
X183944642Y-65615295D02*
X183944642Y-65758152D01*
X183944642Y-65758152D02*
X183897023Y-65853390D01*
X183897023Y-65853390D02*
X183849404Y-65901009D01*
X183849404Y-65901009D02*
X183754166Y-65948628D01*
X183754166Y-65948628D02*
X183373214Y-65948628D01*
X184277976Y-65424819D02*
X184897023Y-65424819D01*
X184897023Y-65424819D02*
X184563690Y-65805771D01*
X184563690Y-65805771D02*
X184706547Y-65805771D01*
X184706547Y-65805771D02*
X184801785Y-65853390D01*
X184801785Y-65853390D02*
X184849404Y-65901009D01*
X184849404Y-65901009D02*
X184897023Y-65996247D01*
X184897023Y-65996247D02*
X184897023Y-66234342D01*
X184897023Y-66234342D02*
X184849404Y-66329580D01*
X184849404Y-66329580D02*
X184801785Y-66377200D01*
X184801785Y-66377200D02*
X184706547Y-66424819D01*
X184706547Y-66424819D02*
X184420833Y-66424819D01*
X184420833Y-66424819D02*
X184325595Y-66377200D01*
X184325595Y-66377200D02*
X184277976Y-66329580D01*
X185230357Y-65424819D02*
X185897023Y-65424819D01*
X185897023Y-65424819D02*
X185468452Y-66424819D01*
X128804761Y-44300057D02*
X128709523Y-44252438D01*
X128709523Y-44252438D02*
X128614285Y-44157200D01*
X128614285Y-44157200D02*
X128471428Y-44014342D01*
X128471428Y-44014342D02*
X128376190Y-43966723D01*
X128376190Y-43966723D02*
X128280952Y-43966723D01*
X128328571Y-44204819D02*
X128233333Y-44157200D01*
X128233333Y-44157200D02*
X128138095Y-44061961D01*
X128138095Y-44061961D02*
X128090476Y-43871485D01*
X128090476Y-43871485D02*
X128090476Y-43538152D01*
X128090476Y-43538152D02*
X128138095Y-43347676D01*
X128138095Y-43347676D02*
X128233333Y-43252438D01*
X128233333Y-43252438D02*
X128328571Y-43204819D01*
X128328571Y-43204819D02*
X128519047Y-43204819D01*
X128519047Y-43204819D02*
X128614285Y-43252438D01*
X128614285Y-43252438D02*
X128709523Y-43347676D01*
X128709523Y-43347676D02*
X128757142Y-43538152D01*
X128757142Y-43538152D02*
X128757142Y-43871485D01*
X128757142Y-43871485D02*
X128709523Y-44061961D01*
X128709523Y-44061961D02*
X128614285Y-44157200D01*
X128614285Y-44157200D02*
X128519047Y-44204819D01*
X128519047Y-44204819D02*
X128328571Y-44204819D01*
X129233333Y-44204819D02*
X129423809Y-44204819D01*
X129423809Y-44204819D02*
X129519047Y-44157200D01*
X129519047Y-44157200D02*
X129566666Y-44109580D01*
X129566666Y-44109580D02*
X129661904Y-43966723D01*
X129661904Y-43966723D02*
X129709523Y-43776247D01*
X129709523Y-43776247D02*
X129709523Y-43395295D01*
X129709523Y-43395295D02*
X129661904Y-43300057D01*
X129661904Y-43300057D02*
X129614285Y-43252438D01*
X129614285Y-43252438D02*
X129519047Y-43204819D01*
X129519047Y-43204819D02*
X129328571Y-43204819D01*
X129328571Y-43204819D02*
X129233333Y-43252438D01*
X129233333Y-43252438D02*
X129185714Y-43300057D01*
X129185714Y-43300057D02*
X129138095Y-43395295D01*
X129138095Y-43395295D02*
X129138095Y-43633390D01*
X129138095Y-43633390D02*
X129185714Y-43728628D01*
X129185714Y-43728628D02*
X129233333Y-43776247D01*
X129233333Y-43776247D02*
X129328571Y-43823866D01*
X129328571Y-43823866D02*
X129519047Y-43823866D01*
X129519047Y-43823866D02*
X129614285Y-43776247D01*
X129614285Y-43776247D02*
X129661904Y-43728628D01*
X129661904Y-43728628D02*
X129709523Y-43633390D01*
X127379819Y-48892857D02*
X126903628Y-49226190D01*
X127379819Y-49464285D02*
X126379819Y-49464285D01*
X126379819Y-49464285D02*
X126379819Y-49083333D01*
X126379819Y-49083333D02*
X126427438Y-48988095D01*
X126427438Y-48988095D02*
X126475057Y-48940476D01*
X126475057Y-48940476D02*
X126570295Y-48892857D01*
X126570295Y-48892857D02*
X126713152Y-48892857D01*
X126713152Y-48892857D02*
X126808390Y-48940476D01*
X126808390Y-48940476D02*
X126856009Y-48988095D01*
X126856009Y-48988095D02*
X126903628Y-49083333D01*
X126903628Y-49083333D02*
X126903628Y-49464285D01*
X126475057Y-48511904D02*
X126427438Y-48464285D01*
X126427438Y-48464285D02*
X126379819Y-48369047D01*
X126379819Y-48369047D02*
X126379819Y-48130952D01*
X126379819Y-48130952D02*
X126427438Y-48035714D01*
X126427438Y-48035714D02*
X126475057Y-47988095D01*
X126475057Y-47988095D02*
X126570295Y-47940476D01*
X126570295Y-47940476D02*
X126665533Y-47940476D01*
X126665533Y-47940476D02*
X126808390Y-47988095D01*
X126808390Y-47988095D02*
X127379819Y-48559523D01*
X127379819Y-48559523D02*
X127379819Y-47940476D01*
X126475057Y-47559523D02*
X126427438Y-47511904D01*
X126427438Y-47511904D02*
X126379819Y-47416666D01*
X126379819Y-47416666D02*
X126379819Y-47178571D01*
X126379819Y-47178571D02*
X126427438Y-47083333D01*
X126427438Y-47083333D02*
X126475057Y-47035714D01*
X126475057Y-47035714D02*
X126570295Y-46988095D01*
X126570295Y-46988095D02*
X126665533Y-46988095D01*
X126665533Y-46988095D02*
X126808390Y-47035714D01*
X126808390Y-47035714D02*
X127379819Y-47607142D01*
X127379819Y-47607142D02*
X127379819Y-46988095D01*
X141957142Y-66554819D02*
X141623809Y-66078628D01*
X141385714Y-66554819D02*
X141385714Y-65554819D01*
X141385714Y-65554819D02*
X141766666Y-65554819D01*
X141766666Y-65554819D02*
X141861904Y-65602438D01*
X141861904Y-65602438D02*
X141909523Y-65650057D01*
X141909523Y-65650057D02*
X141957142Y-65745295D01*
X141957142Y-65745295D02*
X141957142Y-65888152D01*
X141957142Y-65888152D02*
X141909523Y-65983390D01*
X141909523Y-65983390D02*
X141861904Y-66031009D01*
X141861904Y-66031009D02*
X141766666Y-66078628D01*
X141766666Y-66078628D02*
X141385714Y-66078628D01*
X142290476Y-65554819D02*
X142909523Y-65554819D01*
X142909523Y-65554819D02*
X142576190Y-65935771D01*
X142576190Y-65935771D02*
X142719047Y-65935771D01*
X142719047Y-65935771D02*
X142814285Y-65983390D01*
X142814285Y-65983390D02*
X142861904Y-66031009D01*
X142861904Y-66031009D02*
X142909523Y-66126247D01*
X142909523Y-66126247D02*
X142909523Y-66364342D01*
X142909523Y-66364342D02*
X142861904Y-66459580D01*
X142861904Y-66459580D02*
X142814285Y-66507200D01*
X142814285Y-66507200D02*
X142719047Y-66554819D01*
X142719047Y-66554819D02*
X142433333Y-66554819D01*
X142433333Y-66554819D02*
X142338095Y-66507200D01*
X142338095Y-66507200D02*
X142290476Y-66459580D01*
X143766666Y-65888152D02*
X143766666Y-66554819D01*
X143528571Y-65507200D02*
X143290476Y-66221485D01*
X143290476Y-66221485D02*
X143909523Y-66221485D01*
X177257142Y-66424819D02*
X176923809Y-65948628D01*
X176685714Y-66424819D02*
X176685714Y-65424819D01*
X176685714Y-65424819D02*
X177066666Y-65424819D01*
X177066666Y-65424819D02*
X177161904Y-65472438D01*
X177161904Y-65472438D02*
X177209523Y-65520057D01*
X177209523Y-65520057D02*
X177257142Y-65615295D01*
X177257142Y-65615295D02*
X177257142Y-65758152D01*
X177257142Y-65758152D02*
X177209523Y-65853390D01*
X177209523Y-65853390D02*
X177161904Y-65901009D01*
X177161904Y-65901009D02*
X177066666Y-65948628D01*
X177066666Y-65948628D02*
X176685714Y-65948628D01*
X177590476Y-65424819D02*
X178209523Y-65424819D01*
X178209523Y-65424819D02*
X177876190Y-65805771D01*
X177876190Y-65805771D02*
X178019047Y-65805771D01*
X178019047Y-65805771D02*
X178114285Y-65853390D01*
X178114285Y-65853390D02*
X178161904Y-65901009D01*
X178161904Y-65901009D02*
X178209523Y-65996247D01*
X178209523Y-65996247D02*
X178209523Y-66234342D01*
X178209523Y-66234342D02*
X178161904Y-66329580D01*
X178161904Y-66329580D02*
X178114285Y-66377200D01*
X178114285Y-66377200D02*
X178019047Y-66424819D01*
X178019047Y-66424819D02*
X177733333Y-66424819D01*
X177733333Y-66424819D02*
X177638095Y-66377200D01*
X177638095Y-66377200D02*
X177590476Y-66329580D01*
X178542857Y-65424819D02*
X179161904Y-65424819D01*
X179161904Y-65424819D02*
X178828571Y-65805771D01*
X178828571Y-65805771D02*
X178971428Y-65805771D01*
X178971428Y-65805771D02*
X179066666Y-65853390D01*
X179066666Y-65853390D02*
X179114285Y-65901009D01*
X179114285Y-65901009D02*
X179161904Y-65996247D01*
X179161904Y-65996247D02*
X179161904Y-66234342D01*
X179161904Y-66234342D02*
X179114285Y-66329580D01*
X179114285Y-66329580D02*
X179066666Y-66377200D01*
X179066666Y-66377200D02*
X178971428Y-66424819D01*
X178971428Y-66424819D02*
X178685714Y-66424819D01*
X178685714Y-66424819D02*
X178590476Y-66377200D01*
X178590476Y-66377200D02*
X178542857Y-66329580D01*
X167344642Y-66424819D02*
X167011309Y-65948628D01*
X166773214Y-66424819D02*
X166773214Y-65424819D01*
X166773214Y-65424819D02*
X167154166Y-65424819D01*
X167154166Y-65424819D02*
X167249404Y-65472438D01*
X167249404Y-65472438D02*
X167297023Y-65520057D01*
X167297023Y-65520057D02*
X167344642Y-65615295D01*
X167344642Y-65615295D02*
X167344642Y-65758152D01*
X167344642Y-65758152D02*
X167297023Y-65853390D01*
X167297023Y-65853390D02*
X167249404Y-65901009D01*
X167249404Y-65901009D02*
X167154166Y-65948628D01*
X167154166Y-65948628D02*
X166773214Y-65948628D01*
X167725595Y-65520057D02*
X167773214Y-65472438D01*
X167773214Y-65472438D02*
X167868452Y-65424819D01*
X167868452Y-65424819D02*
X168106547Y-65424819D01*
X168106547Y-65424819D02*
X168201785Y-65472438D01*
X168201785Y-65472438D02*
X168249404Y-65520057D01*
X168249404Y-65520057D02*
X168297023Y-65615295D01*
X168297023Y-65615295D02*
X168297023Y-65710533D01*
X168297023Y-65710533D02*
X168249404Y-65853390D01*
X168249404Y-65853390D02*
X167677976Y-66424819D01*
X167677976Y-66424819D02*
X168297023Y-66424819D01*
X168630357Y-65424819D02*
X169297023Y-65424819D01*
X169297023Y-65424819D02*
X168868452Y-66424819D01*
X175504761Y-62350057D02*
X175409523Y-62302438D01*
X175409523Y-62302438D02*
X175314285Y-62207200D01*
X175314285Y-62207200D02*
X175171428Y-62064342D01*
X175171428Y-62064342D02*
X175076190Y-62016723D01*
X175076190Y-62016723D02*
X174980952Y-62016723D01*
X175028571Y-62254819D02*
X174933333Y-62207200D01*
X174933333Y-62207200D02*
X174838095Y-62111961D01*
X174838095Y-62111961D02*
X174790476Y-61921485D01*
X174790476Y-61921485D02*
X174790476Y-61588152D01*
X174790476Y-61588152D02*
X174838095Y-61397676D01*
X174838095Y-61397676D02*
X174933333Y-61302438D01*
X174933333Y-61302438D02*
X175028571Y-61254819D01*
X175028571Y-61254819D02*
X175219047Y-61254819D01*
X175219047Y-61254819D02*
X175314285Y-61302438D01*
X175314285Y-61302438D02*
X175409523Y-61397676D01*
X175409523Y-61397676D02*
X175457142Y-61588152D01*
X175457142Y-61588152D02*
X175457142Y-61921485D01*
X175457142Y-61921485D02*
X175409523Y-62111961D01*
X175409523Y-62111961D02*
X175314285Y-62207200D01*
X175314285Y-62207200D02*
X175219047Y-62254819D01*
X175219047Y-62254819D02*
X175028571Y-62254819D01*
X175790476Y-61254819D02*
X176409523Y-61254819D01*
X176409523Y-61254819D02*
X176076190Y-61635771D01*
X176076190Y-61635771D02*
X176219047Y-61635771D01*
X176219047Y-61635771D02*
X176314285Y-61683390D01*
X176314285Y-61683390D02*
X176361904Y-61731009D01*
X176361904Y-61731009D02*
X176409523Y-61826247D01*
X176409523Y-61826247D02*
X176409523Y-62064342D01*
X176409523Y-62064342D02*
X176361904Y-62159580D01*
X176361904Y-62159580D02*
X176314285Y-62207200D01*
X176314285Y-62207200D02*
X176219047Y-62254819D01*
X176219047Y-62254819D02*
X175933333Y-62254819D01*
X175933333Y-62254819D02*
X175838095Y-62207200D01*
X175838095Y-62207200D02*
X175790476Y-62159580D01*
X143454819Y-49691666D02*
X142978628Y-50024999D01*
X143454819Y-50263094D02*
X142454819Y-50263094D01*
X142454819Y-50263094D02*
X142454819Y-49882142D01*
X142454819Y-49882142D02*
X142502438Y-49786904D01*
X142502438Y-49786904D02*
X142550057Y-49739285D01*
X142550057Y-49739285D02*
X142645295Y-49691666D01*
X142645295Y-49691666D02*
X142788152Y-49691666D01*
X142788152Y-49691666D02*
X142883390Y-49739285D01*
X142883390Y-49739285D02*
X142931009Y-49786904D01*
X142931009Y-49786904D02*
X142978628Y-49882142D01*
X142978628Y-49882142D02*
X142978628Y-50263094D01*
X142454819Y-49358332D02*
X142454819Y-48691666D01*
X142454819Y-48691666D02*
X143454819Y-49120237D01*
X170644642Y-66424819D02*
X170311309Y-65948628D01*
X170073214Y-66424819D02*
X170073214Y-65424819D01*
X170073214Y-65424819D02*
X170454166Y-65424819D01*
X170454166Y-65424819D02*
X170549404Y-65472438D01*
X170549404Y-65472438D02*
X170597023Y-65520057D01*
X170597023Y-65520057D02*
X170644642Y-65615295D01*
X170644642Y-65615295D02*
X170644642Y-65758152D01*
X170644642Y-65758152D02*
X170597023Y-65853390D01*
X170597023Y-65853390D02*
X170549404Y-65901009D01*
X170549404Y-65901009D02*
X170454166Y-65948628D01*
X170454166Y-65948628D02*
X170073214Y-65948628D01*
X171025595Y-65520057D02*
X171073214Y-65472438D01*
X171073214Y-65472438D02*
X171168452Y-65424819D01*
X171168452Y-65424819D02*
X171406547Y-65424819D01*
X171406547Y-65424819D02*
X171501785Y-65472438D01*
X171501785Y-65472438D02*
X171549404Y-65520057D01*
X171549404Y-65520057D02*
X171597023Y-65615295D01*
X171597023Y-65615295D02*
X171597023Y-65710533D01*
X171597023Y-65710533D02*
X171549404Y-65853390D01*
X171549404Y-65853390D02*
X170977976Y-66424819D01*
X170977976Y-66424819D02*
X171597023Y-66424819D01*
X172073214Y-66424819D02*
X172263690Y-66424819D01*
X172263690Y-66424819D02*
X172358928Y-66377200D01*
X172358928Y-66377200D02*
X172406547Y-66329580D01*
X172406547Y-66329580D02*
X172501785Y-66186723D01*
X172501785Y-66186723D02*
X172549404Y-65996247D01*
X172549404Y-65996247D02*
X172549404Y-65615295D01*
X172549404Y-65615295D02*
X172501785Y-65520057D01*
X172501785Y-65520057D02*
X172454166Y-65472438D01*
X172454166Y-65472438D02*
X172358928Y-65424819D01*
X172358928Y-65424819D02*
X172168452Y-65424819D01*
X172168452Y-65424819D02*
X172073214Y-65472438D01*
X172073214Y-65472438D02*
X172025595Y-65520057D01*
X172025595Y-65520057D02*
X171977976Y-65615295D01*
X171977976Y-65615295D02*
X171977976Y-65853390D01*
X171977976Y-65853390D02*
X172025595Y-65948628D01*
X172025595Y-65948628D02*
X172073214Y-65996247D01*
X172073214Y-65996247D02*
X172168452Y-66043866D01*
X172168452Y-66043866D02*
X172358928Y-66043866D01*
X172358928Y-66043866D02*
X172454166Y-65996247D01*
X172454166Y-65996247D02*
X172501785Y-65948628D01*
X172501785Y-65948628D02*
X172549404Y-65853390D01*
X156757142Y-46254819D02*
X156423809Y-45778628D01*
X156185714Y-46254819D02*
X156185714Y-45254819D01*
X156185714Y-45254819D02*
X156566666Y-45254819D01*
X156566666Y-45254819D02*
X156661904Y-45302438D01*
X156661904Y-45302438D02*
X156709523Y-45350057D01*
X156709523Y-45350057D02*
X156757142Y-45445295D01*
X156757142Y-45445295D02*
X156757142Y-45588152D01*
X156757142Y-45588152D02*
X156709523Y-45683390D01*
X156709523Y-45683390D02*
X156661904Y-45731009D01*
X156661904Y-45731009D02*
X156566666Y-45778628D01*
X156566666Y-45778628D02*
X156185714Y-45778628D01*
X157138095Y-45350057D02*
X157185714Y-45302438D01*
X157185714Y-45302438D02*
X157280952Y-45254819D01*
X157280952Y-45254819D02*
X157519047Y-45254819D01*
X157519047Y-45254819D02*
X157614285Y-45302438D01*
X157614285Y-45302438D02*
X157661904Y-45350057D01*
X157661904Y-45350057D02*
X157709523Y-45445295D01*
X157709523Y-45445295D02*
X157709523Y-45540533D01*
X157709523Y-45540533D02*
X157661904Y-45683390D01*
X157661904Y-45683390D02*
X157090476Y-46254819D01*
X157090476Y-46254819D02*
X157709523Y-46254819D01*
X158614285Y-45254819D02*
X158138095Y-45254819D01*
X158138095Y-45254819D02*
X158090476Y-45731009D01*
X158090476Y-45731009D02*
X158138095Y-45683390D01*
X158138095Y-45683390D02*
X158233333Y-45635771D01*
X158233333Y-45635771D02*
X158471428Y-45635771D01*
X158471428Y-45635771D02*
X158566666Y-45683390D01*
X158566666Y-45683390D02*
X158614285Y-45731009D01*
X158614285Y-45731009D02*
X158661904Y-45826247D01*
X158661904Y-45826247D02*
X158661904Y-46064342D01*
X158661904Y-46064342D02*
X158614285Y-46159580D01*
X158614285Y-46159580D02*
X158566666Y-46207200D01*
X158566666Y-46207200D02*
X158471428Y-46254819D01*
X158471428Y-46254819D02*
X158233333Y-46254819D01*
X158233333Y-46254819D02*
X158138095Y-46207200D01*
X158138095Y-46207200D02*
X158090476Y-46159580D01*
X167644642Y-48042319D02*
X167311309Y-47566128D01*
X167073214Y-48042319D02*
X167073214Y-47042319D01*
X167073214Y-47042319D02*
X167454166Y-47042319D01*
X167454166Y-47042319D02*
X167549404Y-47089938D01*
X167549404Y-47089938D02*
X167597023Y-47137557D01*
X167597023Y-47137557D02*
X167644642Y-47232795D01*
X167644642Y-47232795D02*
X167644642Y-47375652D01*
X167644642Y-47375652D02*
X167597023Y-47470890D01*
X167597023Y-47470890D02*
X167549404Y-47518509D01*
X167549404Y-47518509D02*
X167454166Y-47566128D01*
X167454166Y-47566128D02*
X167073214Y-47566128D01*
X168597023Y-48042319D02*
X168025595Y-48042319D01*
X168311309Y-48042319D02*
X168311309Y-47042319D01*
X168311309Y-47042319D02*
X168216071Y-47185176D01*
X168216071Y-47185176D02*
X168120833Y-47280414D01*
X168120833Y-47280414D02*
X168025595Y-47328033D01*
X168930357Y-47042319D02*
X169597023Y-47042319D01*
X169597023Y-47042319D02*
X169168452Y-48042319D01*
D11*
X157978095Y-53297419D02*
X157978095Y-54106942D01*
X157978095Y-54106942D02*
X158025714Y-54202180D01*
X158025714Y-54202180D02*
X158073333Y-54249800D01*
X158073333Y-54249800D02*
X158168571Y-54297419D01*
X158168571Y-54297419D02*
X158359047Y-54297419D01*
X158359047Y-54297419D02*
X158454285Y-54249800D01*
X158454285Y-54249800D02*
X158501904Y-54202180D01*
X158501904Y-54202180D02*
X158549523Y-54106942D01*
X158549523Y-54106942D02*
X158549523Y-53297419D01*
X159549523Y-54297419D02*
X158978095Y-54297419D01*
X159263809Y-54297419D02*
X159263809Y-53297419D01*
X159263809Y-53297419D02*
X159168571Y-53440276D01*
X159168571Y-53440276D02*
X159073333Y-53535514D01*
X159073333Y-53535514D02*
X158978095Y-53583133D01*
D10*
X184757142Y-51854819D02*
X184423809Y-51378628D01*
X184185714Y-51854819D02*
X184185714Y-50854819D01*
X184185714Y-50854819D02*
X184566666Y-50854819D01*
X184566666Y-50854819D02*
X184661904Y-50902438D01*
X184661904Y-50902438D02*
X184709523Y-50950057D01*
X184709523Y-50950057D02*
X184757142Y-51045295D01*
X184757142Y-51045295D02*
X184757142Y-51188152D01*
X184757142Y-51188152D02*
X184709523Y-51283390D01*
X184709523Y-51283390D02*
X184661904Y-51331009D01*
X184661904Y-51331009D02*
X184566666Y-51378628D01*
X184566666Y-51378628D02*
X184185714Y-51378628D01*
X185709523Y-51854819D02*
X185138095Y-51854819D01*
X185423809Y-51854819D02*
X185423809Y-50854819D01*
X185423809Y-50854819D02*
X185328571Y-50997676D01*
X185328571Y-50997676D02*
X185233333Y-51092914D01*
X185233333Y-51092914D02*
X185138095Y-51140533D01*
X186185714Y-51854819D02*
X186376190Y-51854819D01*
X186376190Y-51854819D02*
X186471428Y-51807200D01*
X186471428Y-51807200D02*
X186519047Y-51759580D01*
X186519047Y-51759580D02*
X186614285Y-51616723D01*
X186614285Y-51616723D02*
X186661904Y-51426247D01*
X186661904Y-51426247D02*
X186661904Y-51045295D01*
X186661904Y-51045295D02*
X186614285Y-50950057D01*
X186614285Y-50950057D02*
X186566666Y-50902438D01*
X186566666Y-50902438D02*
X186471428Y-50854819D01*
X186471428Y-50854819D02*
X186280952Y-50854819D01*
X186280952Y-50854819D02*
X186185714Y-50902438D01*
X186185714Y-50902438D02*
X186138095Y-50950057D01*
X186138095Y-50950057D02*
X186090476Y-51045295D01*
X186090476Y-51045295D02*
X186090476Y-51283390D01*
X186090476Y-51283390D02*
X186138095Y-51378628D01*
X186138095Y-51378628D02*
X186185714Y-51426247D01*
X186185714Y-51426247D02*
X186280952Y-51473866D01*
X186280952Y-51473866D02*
X186471428Y-51473866D01*
X186471428Y-51473866D02*
X186566666Y-51426247D01*
X186566666Y-51426247D02*
X186614285Y-51378628D01*
X186614285Y-51378628D02*
X186661904Y-51283390D01*
X140454819Y-49691666D02*
X139978628Y-50024999D01*
X140454819Y-50263094D02*
X139454819Y-50263094D01*
X139454819Y-50263094D02*
X139454819Y-49882142D01*
X139454819Y-49882142D02*
X139502438Y-49786904D01*
X139502438Y-49786904D02*
X139550057Y-49739285D01*
X139550057Y-49739285D02*
X139645295Y-49691666D01*
X139645295Y-49691666D02*
X139788152Y-49691666D01*
X139788152Y-49691666D02*
X139883390Y-49739285D01*
X139883390Y-49739285D02*
X139931009Y-49786904D01*
X139931009Y-49786904D02*
X139978628Y-49882142D01*
X139978628Y-49882142D02*
X139978628Y-50263094D01*
X139883390Y-49120237D02*
X139835771Y-49215475D01*
X139835771Y-49215475D02*
X139788152Y-49263094D01*
X139788152Y-49263094D02*
X139692914Y-49310713D01*
X139692914Y-49310713D02*
X139645295Y-49310713D01*
X139645295Y-49310713D02*
X139550057Y-49263094D01*
X139550057Y-49263094D02*
X139502438Y-49215475D01*
X139502438Y-49215475D02*
X139454819Y-49120237D01*
X139454819Y-49120237D02*
X139454819Y-48929761D01*
X139454819Y-48929761D02*
X139502438Y-48834523D01*
X139502438Y-48834523D02*
X139550057Y-48786904D01*
X139550057Y-48786904D02*
X139645295Y-48739285D01*
X139645295Y-48739285D02*
X139692914Y-48739285D01*
X139692914Y-48739285D02*
X139788152Y-48786904D01*
X139788152Y-48786904D02*
X139835771Y-48834523D01*
X139835771Y-48834523D02*
X139883390Y-48929761D01*
X139883390Y-48929761D02*
X139883390Y-49120237D01*
X139883390Y-49120237D02*
X139931009Y-49215475D01*
X139931009Y-49215475D02*
X139978628Y-49263094D01*
X139978628Y-49263094D02*
X140073866Y-49310713D01*
X140073866Y-49310713D02*
X140264342Y-49310713D01*
X140264342Y-49310713D02*
X140359580Y-49263094D01*
X140359580Y-49263094D02*
X140407200Y-49215475D01*
X140407200Y-49215475D02*
X140454819Y-49120237D01*
X140454819Y-49120237D02*
X140454819Y-48929761D01*
X140454819Y-48929761D02*
X140407200Y-48834523D01*
X140407200Y-48834523D02*
X140359580Y-48786904D01*
X140359580Y-48786904D02*
X140264342Y-48739285D01*
X140264342Y-48739285D02*
X140073866Y-48739285D01*
X140073866Y-48739285D02*
X139978628Y-48786904D01*
X139978628Y-48786904D02*
X139931009Y-48834523D01*
X139931009Y-48834523D02*
X139883390Y-48929761D01*
X149094642Y-48467319D02*
X148761309Y-47991128D01*
X148523214Y-48467319D02*
X148523214Y-47467319D01*
X148523214Y-47467319D02*
X148904166Y-47467319D01*
X148904166Y-47467319D02*
X148999404Y-47514938D01*
X148999404Y-47514938D02*
X149047023Y-47562557D01*
X149047023Y-47562557D02*
X149094642Y-47657795D01*
X149094642Y-47657795D02*
X149094642Y-47800652D01*
X149094642Y-47800652D02*
X149047023Y-47895890D01*
X149047023Y-47895890D02*
X148999404Y-47943509D01*
X148999404Y-47943509D02*
X148904166Y-47991128D01*
X148904166Y-47991128D02*
X148523214Y-47991128D01*
X149475595Y-47562557D02*
X149523214Y-47514938D01*
X149523214Y-47514938D02*
X149618452Y-47467319D01*
X149618452Y-47467319D02*
X149856547Y-47467319D01*
X149856547Y-47467319D02*
X149951785Y-47514938D01*
X149951785Y-47514938D02*
X149999404Y-47562557D01*
X149999404Y-47562557D02*
X150047023Y-47657795D01*
X150047023Y-47657795D02*
X150047023Y-47753033D01*
X150047023Y-47753033D02*
X149999404Y-47895890D01*
X149999404Y-47895890D02*
X149427976Y-48467319D01*
X149427976Y-48467319D02*
X150047023Y-48467319D01*
X150380357Y-47467319D02*
X150999404Y-47467319D01*
X150999404Y-47467319D02*
X150666071Y-47848271D01*
X150666071Y-47848271D02*
X150808928Y-47848271D01*
X150808928Y-47848271D02*
X150904166Y-47895890D01*
X150904166Y-47895890D02*
X150951785Y-47943509D01*
X150951785Y-47943509D02*
X150999404Y-48038747D01*
X150999404Y-48038747D02*
X150999404Y-48276842D01*
X150999404Y-48276842D02*
X150951785Y-48372080D01*
X150951785Y-48372080D02*
X150904166Y-48419700D01*
X150904166Y-48419700D02*
X150808928Y-48467319D01*
X150808928Y-48467319D02*
X150523214Y-48467319D01*
X150523214Y-48467319D02*
X150427976Y-48419700D01*
X150427976Y-48419700D02*
X150380357Y-48372080D01*
X173944642Y-66424819D02*
X173611309Y-65948628D01*
X173373214Y-66424819D02*
X173373214Y-65424819D01*
X173373214Y-65424819D02*
X173754166Y-65424819D01*
X173754166Y-65424819D02*
X173849404Y-65472438D01*
X173849404Y-65472438D02*
X173897023Y-65520057D01*
X173897023Y-65520057D02*
X173944642Y-65615295D01*
X173944642Y-65615295D02*
X173944642Y-65758152D01*
X173944642Y-65758152D02*
X173897023Y-65853390D01*
X173897023Y-65853390D02*
X173849404Y-65901009D01*
X173849404Y-65901009D02*
X173754166Y-65948628D01*
X173754166Y-65948628D02*
X173373214Y-65948628D01*
X174277976Y-65424819D02*
X174897023Y-65424819D01*
X174897023Y-65424819D02*
X174563690Y-65805771D01*
X174563690Y-65805771D02*
X174706547Y-65805771D01*
X174706547Y-65805771D02*
X174801785Y-65853390D01*
X174801785Y-65853390D02*
X174849404Y-65901009D01*
X174849404Y-65901009D02*
X174897023Y-65996247D01*
X174897023Y-65996247D02*
X174897023Y-66234342D01*
X174897023Y-66234342D02*
X174849404Y-66329580D01*
X174849404Y-66329580D02*
X174801785Y-66377200D01*
X174801785Y-66377200D02*
X174706547Y-66424819D01*
X174706547Y-66424819D02*
X174420833Y-66424819D01*
X174420833Y-66424819D02*
X174325595Y-66377200D01*
X174325595Y-66377200D02*
X174277976Y-66329580D01*
X175849404Y-66424819D02*
X175277976Y-66424819D01*
X175563690Y-66424819D02*
X175563690Y-65424819D01*
X175563690Y-65424819D02*
X175468452Y-65567676D01*
X175468452Y-65567676D02*
X175373214Y-65662914D01*
X175373214Y-65662914D02*
X175277976Y-65710533D01*
X135854819Y-49541666D02*
X135378628Y-49874999D01*
X135854819Y-50113094D02*
X134854819Y-50113094D01*
X134854819Y-50113094D02*
X134854819Y-49732142D01*
X134854819Y-49732142D02*
X134902438Y-49636904D01*
X134902438Y-49636904D02*
X134950057Y-49589285D01*
X134950057Y-49589285D02*
X135045295Y-49541666D01*
X135045295Y-49541666D02*
X135188152Y-49541666D01*
X135188152Y-49541666D02*
X135283390Y-49589285D01*
X135283390Y-49589285D02*
X135331009Y-49636904D01*
X135331009Y-49636904D02*
X135378628Y-49732142D01*
X135378628Y-49732142D02*
X135378628Y-50113094D01*
X134854819Y-48684523D02*
X134854819Y-48874999D01*
X134854819Y-48874999D02*
X134902438Y-48970237D01*
X134902438Y-48970237D02*
X134950057Y-49017856D01*
X134950057Y-49017856D02*
X135092914Y-49113094D01*
X135092914Y-49113094D02*
X135283390Y-49160713D01*
X135283390Y-49160713D02*
X135664342Y-49160713D01*
X135664342Y-49160713D02*
X135759580Y-49113094D01*
X135759580Y-49113094D02*
X135807200Y-49065475D01*
X135807200Y-49065475D02*
X135854819Y-48970237D01*
X135854819Y-48970237D02*
X135854819Y-48779761D01*
X135854819Y-48779761D02*
X135807200Y-48684523D01*
X135807200Y-48684523D02*
X135759580Y-48636904D01*
X135759580Y-48636904D02*
X135664342Y-48589285D01*
X135664342Y-48589285D02*
X135426247Y-48589285D01*
X135426247Y-48589285D02*
X135331009Y-48636904D01*
X135331009Y-48636904D02*
X135283390Y-48684523D01*
X135283390Y-48684523D02*
X135235771Y-48779761D01*
X135235771Y-48779761D02*
X135235771Y-48970237D01*
X135235771Y-48970237D02*
X135283390Y-49065475D01*
X135283390Y-49065475D02*
X135331009Y-49113094D01*
X135331009Y-49113094D02*
X135426247Y-49160713D01*
X128544642Y-66554819D02*
X128211309Y-66078628D01*
X127973214Y-66554819D02*
X127973214Y-65554819D01*
X127973214Y-65554819D02*
X128354166Y-65554819D01*
X128354166Y-65554819D02*
X128449404Y-65602438D01*
X128449404Y-65602438D02*
X128497023Y-65650057D01*
X128497023Y-65650057D02*
X128544642Y-65745295D01*
X128544642Y-65745295D02*
X128544642Y-65888152D01*
X128544642Y-65888152D02*
X128497023Y-65983390D01*
X128497023Y-65983390D02*
X128449404Y-66031009D01*
X128449404Y-66031009D02*
X128354166Y-66078628D01*
X128354166Y-66078628D02*
X127973214Y-66078628D01*
X128925595Y-65650057D02*
X128973214Y-65602438D01*
X128973214Y-65602438D02*
X129068452Y-65554819D01*
X129068452Y-65554819D02*
X129306547Y-65554819D01*
X129306547Y-65554819D02*
X129401785Y-65602438D01*
X129401785Y-65602438D02*
X129449404Y-65650057D01*
X129449404Y-65650057D02*
X129497023Y-65745295D01*
X129497023Y-65745295D02*
X129497023Y-65840533D01*
X129497023Y-65840533D02*
X129449404Y-65983390D01*
X129449404Y-65983390D02*
X128877976Y-66554819D01*
X128877976Y-66554819D02*
X129497023Y-66554819D01*
X130354166Y-65554819D02*
X130163690Y-65554819D01*
X130163690Y-65554819D02*
X130068452Y-65602438D01*
X130068452Y-65602438D02*
X130020833Y-65650057D01*
X130020833Y-65650057D02*
X129925595Y-65792914D01*
X129925595Y-65792914D02*
X129877976Y-65983390D01*
X129877976Y-65983390D02*
X129877976Y-66364342D01*
X129877976Y-66364342D02*
X129925595Y-66459580D01*
X129925595Y-66459580D02*
X129973214Y-66507200D01*
X129973214Y-66507200D02*
X130068452Y-66554819D01*
X130068452Y-66554819D02*
X130258928Y-66554819D01*
X130258928Y-66554819D02*
X130354166Y-66507200D01*
X130354166Y-66507200D02*
X130401785Y-66459580D01*
X130401785Y-66459580D02*
X130449404Y-66364342D01*
X130449404Y-66364342D02*
X130449404Y-66126247D01*
X130449404Y-66126247D02*
X130401785Y-66031009D01*
X130401785Y-66031009D02*
X130354166Y-65983390D01*
X130354166Y-65983390D02*
X130258928Y-65935771D01*
X130258928Y-65935771D02*
X130068452Y-65935771D01*
X130068452Y-65935771D02*
X129973214Y-65983390D01*
X129973214Y-65983390D02*
X129925595Y-66031009D01*
X129925595Y-66031009D02*
X129877976Y-66126247D01*
X175754819Y-49666666D02*
X175278628Y-49999999D01*
X175754819Y-50238094D02*
X174754819Y-50238094D01*
X174754819Y-50238094D02*
X174754819Y-49857142D01*
X174754819Y-49857142D02*
X174802438Y-49761904D01*
X174802438Y-49761904D02*
X174850057Y-49714285D01*
X174850057Y-49714285D02*
X174945295Y-49666666D01*
X174945295Y-49666666D02*
X175088152Y-49666666D01*
X175088152Y-49666666D02*
X175183390Y-49714285D01*
X175183390Y-49714285D02*
X175231009Y-49761904D01*
X175231009Y-49761904D02*
X175278628Y-49857142D01*
X175278628Y-49857142D02*
X175278628Y-50238094D01*
X174850057Y-49285713D02*
X174802438Y-49238094D01*
X174802438Y-49238094D02*
X174754819Y-49142856D01*
X174754819Y-49142856D02*
X174754819Y-48904761D01*
X174754819Y-48904761D02*
X174802438Y-48809523D01*
X174802438Y-48809523D02*
X174850057Y-48761904D01*
X174850057Y-48761904D02*
X174945295Y-48714285D01*
X174945295Y-48714285D02*
X175040533Y-48714285D01*
X175040533Y-48714285D02*
X175183390Y-48761904D01*
X175183390Y-48761904D02*
X175754819Y-49333332D01*
X175754819Y-49333332D02*
X175754819Y-48714285D01*
X181754819Y-49691666D02*
X181278628Y-50024999D01*
X181754819Y-50263094D02*
X180754819Y-50263094D01*
X180754819Y-50263094D02*
X180754819Y-49882142D01*
X180754819Y-49882142D02*
X180802438Y-49786904D01*
X180802438Y-49786904D02*
X180850057Y-49739285D01*
X180850057Y-49739285D02*
X180945295Y-49691666D01*
X180945295Y-49691666D02*
X181088152Y-49691666D01*
X181088152Y-49691666D02*
X181183390Y-49739285D01*
X181183390Y-49739285D02*
X181231009Y-49786904D01*
X181231009Y-49786904D02*
X181278628Y-49882142D01*
X181278628Y-49882142D02*
X181278628Y-50263094D01*
X181088152Y-48834523D02*
X181754819Y-48834523D01*
X180707200Y-49072618D02*
X181421485Y-49310713D01*
X181421485Y-49310713D02*
X181421485Y-48691666D01*
X131869642Y-66554819D02*
X131536309Y-66078628D01*
X131298214Y-66554819D02*
X131298214Y-65554819D01*
X131298214Y-65554819D02*
X131679166Y-65554819D01*
X131679166Y-65554819D02*
X131774404Y-65602438D01*
X131774404Y-65602438D02*
X131822023Y-65650057D01*
X131822023Y-65650057D02*
X131869642Y-65745295D01*
X131869642Y-65745295D02*
X131869642Y-65888152D01*
X131869642Y-65888152D02*
X131822023Y-65983390D01*
X131822023Y-65983390D02*
X131774404Y-66031009D01*
X131774404Y-66031009D02*
X131679166Y-66078628D01*
X131679166Y-66078628D02*
X131298214Y-66078628D01*
X132250595Y-65650057D02*
X132298214Y-65602438D01*
X132298214Y-65602438D02*
X132393452Y-65554819D01*
X132393452Y-65554819D02*
X132631547Y-65554819D01*
X132631547Y-65554819D02*
X132726785Y-65602438D01*
X132726785Y-65602438D02*
X132774404Y-65650057D01*
X132774404Y-65650057D02*
X132822023Y-65745295D01*
X132822023Y-65745295D02*
X132822023Y-65840533D01*
X132822023Y-65840533D02*
X132774404Y-65983390D01*
X132774404Y-65983390D02*
X132202976Y-66554819D01*
X132202976Y-66554819D02*
X132822023Y-66554819D01*
X133393452Y-65983390D02*
X133298214Y-65935771D01*
X133298214Y-65935771D02*
X133250595Y-65888152D01*
X133250595Y-65888152D02*
X133202976Y-65792914D01*
X133202976Y-65792914D02*
X133202976Y-65745295D01*
X133202976Y-65745295D02*
X133250595Y-65650057D01*
X133250595Y-65650057D02*
X133298214Y-65602438D01*
X133298214Y-65602438D02*
X133393452Y-65554819D01*
X133393452Y-65554819D02*
X133583928Y-65554819D01*
X133583928Y-65554819D02*
X133679166Y-65602438D01*
X133679166Y-65602438D02*
X133726785Y-65650057D01*
X133726785Y-65650057D02*
X133774404Y-65745295D01*
X133774404Y-65745295D02*
X133774404Y-65792914D01*
X133774404Y-65792914D02*
X133726785Y-65888152D01*
X133726785Y-65888152D02*
X133679166Y-65935771D01*
X133679166Y-65935771D02*
X133583928Y-65983390D01*
X133583928Y-65983390D02*
X133393452Y-65983390D01*
X133393452Y-65983390D02*
X133298214Y-66031009D01*
X133298214Y-66031009D02*
X133250595Y-66078628D01*
X133250595Y-66078628D02*
X133202976Y-66173866D01*
X133202976Y-66173866D02*
X133202976Y-66364342D01*
X133202976Y-66364342D02*
X133250595Y-66459580D01*
X133250595Y-66459580D02*
X133298214Y-66507200D01*
X133298214Y-66507200D02*
X133393452Y-66554819D01*
X133393452Y-66554819D02*
X133583928Y-66554819D01*
X133583928Y-66554819D02*
X133679166Y-66507200D01*
X133679166Y-66507200D02*
X133726785Y-66459580D01*
X133726785Y-66459580D02*
X133774404Y-66364342D01*
X133774404Y-66364342D02*
X133774404Y-66173866D01*
X133774404Y-66173866D02*
X133726785Y-66078628D01*
X133726785Y-66078628D02*
X133679166Y-66031009D01*
X133679166Y-66031009D02*
X133583928Y-65983390D01*
D12*
%TO.C,Q5*%
X133750000Y-65110000D02*
X135150000Y-65110000D01*
X135150000Y-62790000D02*
X133250000Y-62790000D01*
%TO.C,R35*%
X180945276Y-66877500D02*
X181454724Y-66877500D01*
X180945276Y-67922500D02*
X181454724Y-67922500D01*
%TO.C,R18*%
X164732776Y-48677500D02*
X165242224Y-48677500D01*
X164732776Y-49722500D02*
X165242224Y-49722500D01*
%TO.C,R1*%
X170277500Y-47167224D02*
X170277500Y-46657776D01*
X171322500Y-47167224D02*
X171322500Y-46657776D01*
%TO.C,J3*%
D11*
X131028196Y-68200000D02*
X145528196Y-68200000D01*
X145528196Y-70200000D01*
X131028196Y-70200000D01*
X131028196Y-68200000D01*
D12*
%TO.C,R21*%
X129442224Y-49327500D02*
X128932776Y-49327500D01*
X129442224Y-50372500D02*
X128932776Y-50372500D01*
%TO.C,Q4*%
X184650000Y-64960000D02*
X186050000Y-64960000D01*
X186050000Y-62640000D02*
X184150000Y-62640000D01*
%TO.C,R36*%
X146154724Y-66877500D02*
X145645276Y-66877500D01*
X146154724Y-67922500D02*
X145645276Y-67922500D01*
%TO.C,R32*%
X139467224Y-66877500D02*
X138957776Y-66877500D01*
X139467224Y-67922500D02*
X138957776Y-67922500D01*
%TO.C,Q7*%
X164250000Y-46560000D02*
X166150000Y-46560000D01*
X165650000Y-44240000D02*
X164250000Y-44240000D01*
%TO.C,R20*%
X185132776Y-47877500D02*
X185642224Y-47877500D01*
X185132776Y-48922500D02*
X185642224Y-48922500D01*
%TO.C,R24*%
X146942224Y-48977500D02*
X146432776Y-48977500D01*
X146942224Y-50022500D02*
X146432776Y-50022500D01*
%TO.C,Q6*%
X179950000Y-64960000D02*
X181350000Y-64960000D01*
X181350000Y-62640000D02*
X179450000Y-62640000D01*
%TO.C,J1*%
D11*
X131028196Y-43200000D02*
X143028196Y-43200000D01*
X143028196Y-45200000D01*
X131028196Y-45200000D01*
X131028196Y-43200000D01*
D12*
%TO.C,J5*%
X155130000Y-69930000D02*
X155130000Y-68600000D01*
X156460000Y-69930000D02*
X155130000Y-69930000D01*
X157730000Y-67270000D02*
X160330000Y-67270000D01*
X157730000Y-69930000D02*
X157730000Y-67270000D01*
X157730000Y-69930000D02*
X160330000Y-69930000D01*
X160330000Y-69930000D02*
X160330000Y-67270000D01*
%TO.C,R5*%
X131877500Y-46632776D02*
X131877500Y-47142224D01*
X132922500Y-46632776D02*
X132922500Y-47142224D01*
%TO.C,J4*%
D11*
X168525000Y-68200000D02*
X183025000Y-68200000D01*
X183025000Y-70200000D01*
X168525000Y-70200000D01*
X168525000Y-68200000D01*
D12*
%TO.C,Q1*%
X128550000Y-65110000D02*
X129950000Y-65110000D01*
X129950000Y-62790000D02*
X128050000Y-62790000D01*
%TO.C,R30*%
X136154724Y-66877500D02*
X135645276Y-66877500D01*
X136154724Y-67922500D02*
X135645276Y-67922500D01*
%TO.C,R3*%
X177777500Y-46657776D02*
X177777500Y-47167224D01*
X178822500Y-46657776D02*
X178822500Y-47167224D01*
%TO.C,Q8*%
X184725000Y-47110000D02*
X186625000Y-47110000D01*
X186125000Y-44790000D02*
X184725000Y-44790000D01*
%TO.C,Q10*%
X146000000Y-47010000D02*
X147400000Y-47010000D01*
X147400000Y-44690000D02*
X145500000Y-44690000D01*
%TO.C,Q2*%
X138850000Y-65110000D02*
X140250000Y-65110000D01*
X140250000Y-62790000D02*
X138350000Y-62790000D01*
%TO.C,J2*%
D11*
X171028196Y-43200000D02*
X183028196Y-43200000D01*
X183028196Y-45200000D01*
X171028196Y-45200000D01*
X171028196Y-43200000D01*
D12*
%TO.C,R37*%
X184332776Y-66877500D02*
X184842224Y-66877500D01*
X184332776Y-67922500D02*
X184842224Y-67922500D01*
%TO.C,Q9*%
X128450000Y-47160000D02*
X130350000Y-47160000D01*
X129850000Y-44840000D02*
X128450000Y-44840000D01*
%TO.C,R22*%
X129467224Y-47727500D02*
X128957776Y-47727500D01*
X129467224Y-48772500D02*
X128957776Y-48772500D01*
%TO.C,R34*%
X142854724Y-66877500D02*
X142345276Y-66877500D01*
X142854724Y-67922500D02*
X142345276Y-67922500D01*
%TO.C,R33*%
X177645276Y-66877500D02*
X178154724Y-66877500D01*
X177645276Y-67922500D02*
X178154724Y-67922500D01*
%TO.C,R27*%
X167732776Y-66877500D02*
X168242224Y-66877500D01*
X167732776Y-67922500D02*
X168242224Y-67922500D01*
%TO.C,Q3*%
X174950000Y-64960000D02*
X176350000Y-64960000D01*
X176350000Y-62640000D02*
X174450000Y-62640000D01*
%TO.C,R7*%
X142377500Y-46657776D02*
X142377500Y-47167224D01*
X143422500Y-46657776D02*
X143422500Y-47167224D01*
%TO.C,R29*%
X171032776Y-66877500D02*
X171542224Y-66877500D01*
X171032776Y-67922500D02*
X171542224Y-67922500D01*
%TO.C,R25*%
X157742224Y-43877500D02*
X157232776Y-43877500D01*
X157742224Y-44922500D02*
X157232776Y-44922500D01*
%TO.C,R17*%
X164732776Y-47077500D02*
X165242224Y-47077500D01*
X164732776Y-48122500D02*
X165242224Y-48122500D01*
%TO.C,R19*%
X185132776Y-49477500D02*
X185642224Y-49477500D01*
X185132776Y-50522500D02*
X185642224Y-50522500D01*
%TO.C,R8*%
X139377500Y-46682776D02*
X139377500Y-47192224D01*
X140422500Y-46682776D02*
X140422500Y-47192224D01*
%TO.C,R23*%
X146942224Y-47477500D02*
X146432776Y-47477500D01*
X146942224Y-48522500D02*
X146432776Y-48522500D01*
%TO.C,R31*%
X174332776Y-66877500D02*
X174842224Y-66877500D01*
X174332776Y-67922500D02*
X174842224Y-67922500D01*
%TO.C,R6*%
X134877500Y-46632776D02*
X134877500Y-47142224D01*
X135922500Y-46632776D02*
X135922500Y-47142224D01*
%TO.C,R26*%
X129442224Y-66877500D02*
X128932776Y-66877500D01*
X129442224Y-67922500D02*
X128932776Y-67922500D01*
%TO.C,R2*%
X174777500Y-46657776D02*
X174777500Y-47167224D01*
X175822500Y-46657776D02*
X175822500Y-47167224D01*
%TO.C,R4*%
X180777500Y-46657776D02*
X180777500Y-47167224D01*
X181822500Y-46657776D02*
X181822500Y-47167224D01*
%TO.C,R28*%
X132767224Y-66877500D02*
X132257776Y-66877500D01*
X132767224Y-67922500D02*
X132257776Y-67922500D01*
%TD*%
M02*
