%TF.GenerationSoftware,KiCad,Pcbnew,7.99.0-3564-gbeb917e572-dirty*%
%TF.CreationDate,2023-11-16T20:45:22+00:00*%
%TF.ProjectId,VFD Replacement,56464420-5265-4706-9c61-63656d656e74,rev?*%
%TF.SameCoordinates,Original*%
%TF.FileFunction,Copper,L2,Bot*%
%TF.FilePolarity,Positive*%
%FSLAX46Y46*%
G04 Gerber Fmt 4.6, Leading zero omitted, Abs format (unit mm)*
G04 Created by KiCad (PCBNEW 7.99.0-3564-gbeb917e572-dirty) date 2023-11-16 20:45:22*
%MOMM*%
%LPD*%
G01*
G04 APERTURE LIST*
%ADD10C,0.130000*%
%TA.AperFunction,NonConductor*%
%ADD11C,0.130000*%
%TD*%
%TA.AperFunction,ComponentPad*%
%ADD12C,1.524000*%
%TD*%
%TA.AperFunction,ComponentPad*%
%ADD13R,1.700000X1.700000*%
%TD*%
%TA.AperFunction,ComponentPad*%
%ADD14O,1.700000X1.700000*%
%TD*%
%TA.AperFunction,ViaPad*%
%ADD15C,0.800000*%
%TD*%
%TA.AperFunction,Conductor*%
%ADD16C,0.400000*%
%TD*%
%TA.AperFunction,Conductor*%
%ADD17C,0.250000*%
%TD*%
G04 APERTURE END LIST*
D10*
D11*
X129923997Y-64860915D02*
X129923997Y-63860915D01*
X129923997Y-63860915D02*
X129733521Y-63860915D01*
X129733521Y-63860915D02*
X129619235Y-63908534D01*
X129619235Y-63908534D02*
X129543045Y-64003772D01*
X129543045Y-64003772D02*
X129504950Y-64099010D01*
X129504950Y-64099010D02*
X129466854Y-64289486D01*
X129466854Y-64289486D02*
X129466854Y-64432343D01*
X129466854Y-64432343D02*
X129504950Y-64622819D01*
X129504950Y-64622819D02*
X129543045Y-64718057D01*
X129543045Y-64718057D02*
X129619235Y-64813296D01*
X129619235Y-64813296D02*
X129733521Y-64860915D01*
X129733521Y-64860915D02*
X129923997Y-64860915D01*
X128514473Y-64860915D02*
X128514473Y-63860915D01*
X128514473Y-63860915D02*
X128247807Y-64575200D01*
X128247807Y-64575200D02*
X127981140Y-63860915D01*
X127981140Y-63860915D02*
X127981140Y-64860915D01*
X127600187Y-64860915D02*
X127600187Y-64194248D01*
X127600187Y-63860915D02*
X127638283Y-63908534D01*
X127638283Y-63908534D02*
X127600187Y-63956153D01*
X127600187Y-63956153D02*
X127562092Y-63908534D01*
X127562092Y-63908534D02*
X127600187Y-63860915D01*
X127600187Y-63860915D02*
X127600187Y-63956153D01*
X126876378Y-64860915D02*
X126876378Y-64337105D01*
X126876378Y-64337105D02*
X126914473Y-64241867D01*
X126914473Y-64241867D02*
X126990664Y-64194248D01*
X126990664Y-64194248D02*
X127143045Y-64194248D01*
X127143045Y-64194248D02*
X127219235Y-64241867D01*
X126876378Y-64813296D02*
X126952569Y-64860915D01*
X126952569Y-64860915D02*
X127143045Y-64860915D01*
X127143045Y-64860915D02*
X127219235Y-64813296D01*
X127219235Y-64813296D02*
X127257331Y-64718057D01*
X127257331Y-64718057D02*
X127257331Y-64622819D01*
X127257331Y-64622819D02*
X127219235Y-64527581D01*
X127219235Y-64527581D02*
X127143045Y-64479962D01*
X127143045Y-64479962D02*
X126952569Y-64479962D01*
X126952569Y-64479962D02*
X126876378Y-64432343D01*
X126381140Y-64860915D02*
X126457330Y-64813296D01*
X126457330Y-64813296D02*
X126495425Y-64718057D01*
X126495425Y-64718057D02*
X126495425Y-63860915D01*
X125962092Y-64860915D02*
X126038282Y-64813296D01*
X126038282Y-64813296D02*
X126076377Y-64718057D01*
X126076377Y-64718057D02*
X126076377Y-63860915D01*
X129962093Y-65566097D02*
X129923997Y-65518478D01*
X129923997Y-65518478D02*
X129847807Y-65470859D01*
X129847807Y-65470859D02*
X129657331Y-65470859D01*
X129657331Y-65470859D02*
X129581140Y-65518478D01*
X129581140Y-65518478D02*
X129543045Y-65566097D01*
X129543045Y-65566097D02*
X129504950Y-65661335D01*
X129504950Y-65661335D02*
X129504950Y-65756573D01*
X129504950Y-65756573D02*
X129543045Y-65899430D01*
X129543045Y-65899430D02*
X130000188Y-66470859D01*
X130000188Y-66470859D02*
X129504950Y-66470859D01*
X129009711Y-65470859D02*
X128933521Y-65470859D01*
X128933521Y-65470859D02*
X128857330Y-65518478D01*
X128857330Y-65518478D02*
X128819235Y-65566097D01*
X128819235Y-65566097D02*
X128781140Y-65661335D01*
X128781140Y-65661335D02*
X128743045Y-65851811D01*
X128743045Y-65851811D02*
X128743045Y-66089906D01*
X128743045Y-66089906D02*
X128781140Y-66280382D01*
X128781140Y-66280382D02*
X128819235Y-66375620D01*
X128819235Y-66375620D02*
X128857330Y-66423240D01*
X128857330Y-66423240D02*
X128933521Y-66470859D01*
X128933521Y-66470859D02*
X129009711Y-66470859D01*
X129009711Y-66470859D02*
X129085902Y-66423240D01*
X129085902Y-66423240D02*
X129123997Y-66375620D01*
X129123997Y-66375620D02*
X129162092Y-66280382D01*
X129162092Y-66280382D02*
X129200188Y-66089906D01*
X129200188Y-66089906D02*
X129200188Y-65851811D01*
X129200188Y-65851811D02*
X129162092Y-65661335D01*
X129162092Y-65661335D02*
X129123997Y-65566097D01*
X129123997Y-65566097D02*
X129085902Y-65518478D01*
X129085902Y-65518478D02*
X129009711Y-65470859D01*
X128438283Y-65566097D02*
X128400187Y-65518478D01*
X128400187Y-65518478D02*
X128323997Y-65470859D01*
X128323997Y-65470859D02*
X128133521Y-65470859D01*
X128133521Y-65470859D02*
X128057330Y-65518478D01*
X128057330Y-65518478D02*
X128019235Y-65566097D01*
X128019235Y-65566097D02*
X127981140Y-65661335D01*
X127981140Y-65661335D02*
X127981140Y-65756573D01*
X127981140Y-65756573D02*
X128019235Y-65899430D01*
X128019235Y-65899430D02*
X128476378Y-66470859D01*
X128476378Y-66470859D02*
X127981140Y-66470859D01*
X127714473Y-65470859D02*
X127219235Y-65470859D01*
X127219235Y-65470859D02*
X127485901Y-65851811D01*
X127485901Y-65851811D02*
X127371616Y-65851811D01*
X127371616Y-65851811D02*
X127295425Y-65899430D01*
X127295425Y-65899430D02*
X127257330Y-65947049D01*
X127257330Y-65947049D02*
X127219235Y-66042287D01*
X127219235Y-66042287D02*
X127219235Y-66280382D01*
X127219235Y-66280382D02*
X127257330Y-66375620D01*
X127257330Y-66375620D02*
X127295425Y-66423240D01*
X127295425Y-66423240D02*
X127371616Y-66470859D01*
X127371616Y-66470859D02*
X127600187Y-66470859D01*
X127600187Y-66470859D02*
X127676378Y-66423240D01*
X127676378Y-66423240D02*
X127714473Y-66375620D01*
D12*
%TO.P,J3,1,Pin_1*%
%TO.N,/G1*%
X132028196Y-69200000D03*
%TO.P,J3,2,Pin_2*%
%TO.N,/G2*%
X134528196Y-69200000D03*
%TO.P,J3,3,Pin_3*%
%TO.N,/G3*%
X137028196Y-69200000D03*
%TO.P,J3,4,Pin_4*%
%TO.N,/G4*%
X139528196Y-69200000D03*
%TO.P,J3,5,Pin_5*%
%TO.N,/G5*%
X142028196Y-69200000D03*
%TO.P,J3,6,Pin_6*%
%TO.N,/G6*%
X144528196Y-69200000D03*
%TD*%
%TO.P,J1,5,Pin_5*%
%TO.N,/F*%
X142028196Y-44200000D03*
%TO.P,J1,4,Pin_4*%
%TO.N,/G*%
X139528196Y-44200000D03*
%TO.P,J1,3,Pin_3*%
%TO.N,/E*%
X137028196Y-44200000D03*
%TO.P,J1,2,Pin_2*%
%TO.N,/D*%
X134528196Y-44200000D03*
%TO.P,J1,1,Pin_1*%
%TO.N,/Fil A*%
X132028196Y-44200000D03*
%TD*%
D13*
%TO.P,J5,1,Pin_1*%
%TO.N,-27V*%
X156460000Y-68600000D03*
D14*
%TO.P,J5,2,Pin_2*%
%TO.N,+22V*%
X159000000Y-68600000D03*
%TD*%
D12*
%TO.P,J4,1,Pin_1*%
%TO.N,/G7*%
X169525000Y-69200000D03*
%TO.P,J4,2,Pin_2*%
%TO.N,/G8*%
X172025000Y-69200000D03*
%TO.P,J4,3,Pin_3*%
%TO.N,/G9*%
X174525000Y-69200000D03*
%TO.P,J4,4,Pin_4*%
%TO.N,/G10*%
X177025000Y-69200000D03*
%TO.P,J4,5,Pin_5*%
%TO.N,/G11*%
X179525000Y-69200000D03*
%TO.P,J4,6,Pin_6*%
%TO.N,/G12*%
X182025000Y-69200000D03*
%TD*%
%TO.P,J2,5,Pin_5*%
%TO.N,/Fil B*%
X182028196Y-44200000D03*
%TO.P,J2,4,Pin_4*%
%TO.N,/DP*%
X179528196Y-44200000D03*
%TO.P,J2,3,Pin_3*%
%TO.N,/C*%
X177028196Y-44200000D03*
%TO.P,J2,2,Pin_2*%
%TO.N,/B*%
X174528196Y-44200000D03*
%TO.P,J2,1,Pin_1*%
%TO.N,/A*%
X172028196Y-44200000D03*
%TD*%
D15*
%TO.N,+22V*%
X187800000Y-48800000D03*
X184400000Y-62000000D03*
%TO.N,-27V*%
X163200000Y-64200000D03*
X170400000Y-50000000D03*
X162200000Y-50000000D03*
X144000000Y-50000000D03*
X153815902Y-50000000D03*
X128600000Y-54400000D03*
X133200000Y-51200000D03*
%TO.N,+22V*%
X161200000Y-46800000D03*
%TO.N,-27V*%
X131600000Y-64000000D03*
X134400000Y-66200000D03*
X169000000Y-64224500D03*
X172600000Y-66200000D03*
X174600000Y-63800000D03*
X177400000Y-66200000D03*
X179524500Y-63800000D03*
X182000000Y-66200000D03*
X136600000Y-64200000D03*
X140200000Y-65800000D03*
X141600000Y-64200000D03*
X145400000Y-65800000D03*
%TO.N,+22V*%
X144812299Y-47412299D03*
X148600000Y-45600000D03*
X132200000Y-47800000D03*
X128000000Y-49000000D03*
X165324500Y-46887322D03*
X169324598Y-45600000D03*
X187400000Y-45200000D03*
X183600000Y-47200000D03*
%TO.N,/Ds*%
X131200000Y-59000000D03*
%TO.N,/DPs*%
X184000000Y-58200000D03*
X177000000Y-59075500D03*
X172800000Y-59075500D03*
X168600000Y-59000000D03*
X164600000Y-59000000D03*
X160400000Y-59075500D03*
X156200000Y-59075500D03*
X152000000Y-59000000D03*
X147800000Y-59000000D03*
X143600000Y-58975500D03*
X139600000Y-59075500D03*
X135400000Y-59075500D03*
X181024968Y-59199346D03*
%TO.N,/Cs*%
X177400000Y-57200000D03*
X173246060Y-57465909D03*
X169007507Y-57458882D03*
X165011452Y-57441247D03*
X160759928Y-57483473D03*
X156646060Y-57465909D03*
X152407507Y-57458882D03*
X148270441Y-57464363D03*
X144194032Y-57399485D03*
X139983418Y-57470229D03*
X135810872Y-57457205D03*
X181400000Y-57400000D03*
%TO.N,/Es*%
X135800000Y-56400000D03*
X140000000Y-56400000D03*
X144200000Y-56400000D03*
X148200000Y-56400000D03*
X156600000Y-56400000D03*
X160800000Y-56400000D03*
X165000000Y-56400000D03*
X169000000Y-56400000D03*
X173200000Y-56400000D03*
X152400000Y-56400000D03*
X177587701Y-56212299D03*
X131999651Y-56430168D03*
%TO.N,/Gs*%
X136200000Y-55430732D03*
X140400000Y-55430732D03*
X144600000Y-55430732D03*
X148044642Y-55213899D03*
X153000000Y-55430732D03*
X157150344Y-55477576D03*
X161365001Y-55573729D03*
X165400000Y-55430732D03*
X169600000Y-55430732D03*
X173600000Y-55430732D03*
X177600000Y-55200000D03*
X132011219Y-55430732D03*
%TO.N,/Fs*%
X136200000Y-54325000D03*
X140400000Y-54325000D03*
X144600000Y-54325000D03*
X148874197Y-54656365D03*
X152939224Y-54345120D03*
X157000000Y-54325000D03*
X161037251Y-54370011D03*
X165383437Y-54331418D03*
X169539224Y-54345120D03*
X173600000Y-54325000D03*
X132000000Y-54400000D03*
X177796752Y-54202777D03*
%TO.N,/Bs*%
X177000000Y-53000000D03*
X172800000Y-53600000D03*
X168800000Y-53600000D03*
X164600000Y-53600000D03*
X160400000Y-53600000D03*
X156200000Y-53600000D03*
X152200000Y-53600000D03*
X147800000Y-52400000D03*
X143800000Y-53600000D03*
X139600000Y-53600000D03*
X181200000Y-53200000D03*
X135400000Y-53400000D03*
%TO.N,/As*%
X138600000Y-52200000D03*
X143000000Y-52000000D03*
X146400000Y-52000000D03*
X151000000Y-52000000D03*
X155200000Y-52000000D03*
X159200000Y-52000000D03*
X163400000Y-52200000D03*
X167600000Y-52200000D03*
X170800000Y-52000000D03*
X175800000Y-52200000D03*
X134400000Y-52200000D03*
X180400000Y-52000000D03*
%TO.N,/Ds*%
X138400000Y-59200000D03*
X142547408Y-59134260D03*
X146800000Y-59200000D03*
X151000000Y-59200000D03*
X155000000Y-59200000D03*
X159200000Y-59200000D03*
X163400000Y-59200000D03*
X167600000Y-59200000D03*
X171600000Y-59200000D03*
X176000000Y-59200000D03*
X134400000Y-59000000D03*
X180025808Y-59225500D03*
%TO.N,/Fil A*%
X145200000Y-44000000D03*
%TO.N,/Fil B*%
X168800000Y-44000000D03*
%TO.N,/G2*%
X131416520Y-66683533D03*
%TO.N,/G4*%
X136742389Y-66733012D03*
%TO.N,/G6*%
X141987701Y-66887701D03*
%TO.N,/G11*%
X183200000Y-67200000D03*
%TO.N,/G7*%
X173600000Y-67200000D03*
%TO.N,/G9*%
X178400000Y-67137701D03*
%TD*%
D16*
%TO.N,+22V*%
X161200000Y-46800000D02*
X165237178Y-46800000D01*
X165237178Y-46800000D02*
X165324500Y-46887322D01*
%TO.N,-27V*%
X153815902Y-50000000D02*
X144000000Y-50000000D01*
D17*
%TO.N,/As*%
X146400000Y-52000000D02*
X146800000Y-51600000D01*
X146800000Y-51600000D02*
X146800000Y-51200000D01*
%TO.N,/Bs*%
X147800000Y-52400000D02*
X147800000Y-52800000D01*
X147800000Y-52800000D02*
X148000000Y-53000000D01*
D16*
%TO.N,+22V*%
X159000000Y-63000000D02*
X160000000Y-62000000D01*
X159000000Y-68600000D02*
X159000000Y-63000000D01*
X160000000Y-62000000D02*
X160600000Y-62000000D01*
X160600000Y-62000000D02*
X184400000Y-62000000D01*
X187800000Y-48800000D02*
X187800000Y-45600000D01*
X187800000Y-45600000D02*
X187400000Y-45200000D01*
%TO.N,-27V*%
X169000000Y-64224500D02*
X163224500Y-64224500D01*
X163224500Y-64224500D02*
X163200000Y-64200000D01*
X177400000Y-66200000D02*
X177400000Y-65924500D01*
X177400000Y-65924500D02*
X179524500Y-63800000D01*
X172600000Y-66200000D02*
X172600000Y-65800000D01*
X172600000Y-65800000D02*
X174600000Y-63800000D01*
X164800000Y-50000000D02*
X162200000Y-50000000D01*
X169600000Y-50000000D02*
X164800000Y-50000000D01*
X170400000Y-50000000D02*
X169600000Y-50000000D01*
X131600000Y-51400000D02*
X131800000Y-51200000D01*
X131800000Y-51200000D02*
X133200000Y-51200000D01*
X129200000Y-53800000D02*
X131600000Y-51400000D01*
X128600000Y-54400000D02*
X129200000Y-53800000D01*
X136600000Y-64200000D02*
X136400000Y-64200000D01*
X136400000Y-64200000D02*
X134400000Y-66200000D01*
X141600000Y-64200000D02*
X141600000Y-64400000D01*
X141600000Y-64400000D02*
X140200000Y-65800000D01*
%TO.N,+22V*%
X169324598Y-45600000D02*
X170924598Y-47200000D01*
X170924598Y-47200000D02*
X183600000Y-47200000D01*
X144812299Y-47412299D02*
X132587701Y-47412299D01*
X132587701Y-47412299D02*
X132200000Y-47800000D01*
X144812299Y-47412299D02*
X146624598Y-45600000D01*
X146624598Y-45600000D02*
X148600000Y-45600000D01*
X128000000Y-49000000D02*
X129200000Y-47800000D01*
X129200000Y-47800000D02*
X132200000Y-47800000D01*
X169324598Y-45600000D02*
X166611822Y-45600000D01*
X166611822Y-45600000D02*
X165324500Y-46887322D01*
X187400000Y-45200000D02*
X185600000Y-45200000D01*
X185600000Y-45200000D02*
X183600000Y-47200000D01*
%TO.N,-27V*%
X133800000Y-66200000D02*
X131600000Y-64000000D01*
X134400000Y-66200000D02*
X133800000Y-66200000D01*
D17*
X140200000Y-65800000D02*
X138200000Y-65800000D01*
X138200000Y-65800000D02*
X136600000Y-64200000D01*
X145400000Y-65800000D02*
X143200000Y-65800000D01*
X143200000Y-65800000D02*
X141600000Y-64200000D01*
D16*
X170624500Y-64224500D02*
X169000000Y-64224500D01*
X172600000Y-66200000D02*
X170624500Y-64224500D01*
X177000000Y-66200000D02*
X174600000Y-63800000D01*
X177400000Y-66200000D02*
X177000000Y-66200000D01*
X181924500Y-66200000D02*
X179524500Y-63800000D01*
X182000000Y-66200000D02*
X181924500Y-66200000D01*
D17*
%TO.N,/G11*%
X183200000Y-67200000D02*
X181525000Y-67200000D01*
X181525000Y-67200000D02*
X179525000Y-69200000D01*
%TO.N,/G9*%
X178400000Y-67137701D02*
X176824799Y-67137701D01*
X176824799Y-67137701D02*
X174762500Y-69200000D01*
X174762500Y-69200000D02*
X174525000Y-69200000D01*
%TO.N,/G7*%
X173600000Y-67200000D02*
X171862500Y-67200000D01*
X171862500Y-67200000D02*
X169862500Y-69200000D01*
X169862500Y-69200000D02*
X169525000Y-69200000D01*
%TO.N,/Fil B*%
X168800000Y-44000000D02*
X169600000Y-44000000D01*
X169600000Y-44000000D02*
X170887000Y-45287000D01*
X170887000Y-45287000D02*
X180941196Y-45287000D01*
X180941196Y-45287000D02*
X182028196Y-44200000D01*
%TO.N,/Ds*%
X131200000Y-59000000D02*
X134400000Y-59000000D01*
%TO.N,/Gs*%
X148044642Y-55213899D02*
X148261475Y-55430732D01*
X144600000Y-55430732D02*
X147827809Y-55430732D01*
X147827809Y-55430732D02*
X148044642Y-55213899D01*
X148261475Y-55430732D02*
X153000000Y-55430732D01*
%TO.N,/DPs*%
X184000000Y-58200000D02*
X183000654Y-59199346D01*
X183000654Y-59199346D02*
X181024968Y-59199346D01*
X176800000Y-58400000D02*
X172800000Y-58400000D01*
X180800000Y-58400000D02*
X176800000Y-58400000D01*
X177000000Y-59075500D02*
X177000000Y-58600000D01*
X177000000Y-58600000D02*
X176800000Y-58400000D01*
X172800000Y-59075500D02*
X172800000Y-58400000D01*
X172800000Y-58400000D02*
X168800000Y-58400000D01*
X168600000Y-58600000D02*
X168800000Y-58400000D01*
X168800000Y-58400000D02*
X164600000Y-58400000D01*
X168600000Y-59000000D02*
X168600000Y-58600000D01*
X164600000Y-58400000D02*
X160400000Y-58400000D01*
X164600000Y-59000000D02*
X164600000Y-58400000D01*
X160400000Y-59075500D02*
X160400000Y-58400000D01*
X160400000Y-58400000D02*
X156200000Y-58400000D01*
X156200000Y-58400000D02*
X152000000Y-58400000D01*
X156200000Y-59075500D02*
X156200000Y-58400000D01*
X152000000Y-58400000D02*
X147800000Y-58400000D01*
X152000000Y-59000000D02*
X152000000Y-58400000D01*
X147800000Y-58400000D02*
X143800000Y-58400000D01*
X147800000Y-59000000D02*
X147800000Y-58400000D01*
X143800000Y-58400000D02*
X139600000Y-58400000D01*
X143600000Y-58975500D02*
X143800000Y-58775500D01*
X143800000Y-58775500D02*
X143800000Y-58400000D01*
X139600000Y-58400000D02*
X136075500Y-58400000D01*
X139600000Y-59075500D02*
X139600000Y-58400000D01*
X136075500Y-58400000D02*
X135400000Y-59075500D01*
X181024968Y-58624968D02*
X180800000Y-58400000D01*
X181024968Y-59199346D02*
X181024968Y-58624968D01*
%TO.N,/Cs*%
X140000000Y-57600000D02*
X177400000Y-57600000D01*
X177400000Y-57600000D02*
X181200000Y-57600000D01*
X177400000Y-57200000D02*
X177400000Y-57600000D01*
X135953667Y-57600000D02*
X140000000Y-57600000D01*
X139983418Y-57583418D02*
X140000000Y-57600000D01*
X139983418Y-57470229D02*
X139983418Y-57583418D01*
X135810872Y-57457205D02*
X135953667Y-57600000D01*
X181200000Y-57600000D02*
X181400000Y-57400000D01*
%TO.N,/Es*%
X132029819Y-56400000D02*
X135800000Y-56400000D01*
X135800000Y-56400000D02*
X140000000Y-56400000D01*
X140000000Y-56400000D02*
X144200000Y-56400000D01*
X144200000Y-56400000D02*
X148200000Y-56400000D01*
X148200000Y-56400000D02*
X152400000Y-56400000D01*
X152400000Y-56400000D02*
X156600000Y-56400000D01*
X156600000Y-56400000D02*
X160800000Y-56400000D01*
X160800000Y-56400000D02*
X165000000Y-56400000D01*
%TO.N,/Gs*%
X157103500Y-55430732D02*
X157150344Y-55477576D01*
X157150344Y-55477576D02*
X157197188Y-55430732D01*
X157197188Y-55430732D02*
X161222004Y-55430732D01*
X161222004Y-55430732D02*
X161365001Y-55573729D01*
X153000000Y-55430732D02*
X157103500Y-55430732D01*
X161365001Y-55573729D02*
X161507998Y-55430732D01*
X161507998Y-55430732D02*
X165400000Y-55430732D01*
%TO.N,/Es*%
X165000000Y-56400000D02*
X169000000Y-56400000D01*
X169000000Y-56400000D02*
X173200000Y-56400000D01*
X173200000Y-56400000D02*
X177400000Y-56400000D01*
X131999651Y-56430168D02*
X132029819Y-56400000D01*
X177400000Y-56400000D02*
X177587701Y-56212299D01*
%TO.N,/Gs*%
X132011219Y-55430732D02*
X136200000Y-55430732D01*
X136200000Y-55430732D02*
X140400000Y-55430732D01*
X140400000Y-55430732D02*
X144600000Y-55430732D01*
X165400000Y-55430732D02*
X169600000Y-55430732D01*
X169600000Y-55430732D02*
X173600000Y-55430732D01*
X173600000Y-55430732D02*
X177369268Y-55430732D01*
X177369268Y-55430732D02*
X177600000Y-55200000D01*
%TO.N,/Fs*%
X140400000Y-54325000D02*
X136200000Y-54325000D01*
X136200000Y-54325000D02*
X132075000Y-54325000D01*
X144600000Y-54325000D02*
X140400000Y-54325000D01*
X157000000Y-54325000D02*
X144600000Y-54325000D01*
X173600000Y-54325000D02*
X157000000Y-54325000D01*
X177674529Y-54325000D02*
X173600000Y-54325000D01*
X177796752Y-54202777D02*
X177674529Y-54325000D01*
X132075000Y-54325000D02*
X132000000Y-54400000D01*
%TO.N,/Bs*%
X177000000Y-53000000D02*
X181000000Y-53000000D01*
X172800000Y-53000000D02*
X177000000Y-53000000D01*
X168800000Y-53000000D02*
X172800000Y-53000000D01*
X172800000Y-53600000D02*
X172800000Y-53000000D01*
X164600000Y-53600000D02*
X164600000Y-53000000D01*
X164600000Y-53000000D02*
X168800000Y-53000000D01*
X168800000Y-53600000D02*
X168800000Y-53000000D01*
X160400000Y-53000000D02*
X164600000Y-53000000D01*
X156200000Y-53000000D02*
X160400000Y-53000000D01*
X160400000Y-53600000D02*
X160400000Y-53000000D01*
X152200000Y-53000000D02*
X156200000Y-53000000D01*
X156200000Y-53600000D02*
X156200000Y-53000000D01*
X148000000Y-53000000D02*
X152200000Y-53000000D01*
X152200000Y-53600000D02*
X152200000Y-53000000D01*
X143800000Y-53000000D02*
X148000000Y-53000000D01*
X143800000Y-53600000D02*
X143800000Y-53000000D01*
X139800000Y-53000000D02*
X143800000Y-53000000D01*
X135800000Y-53000000D02*
X139800000Y-53000000D01*
X139600000Y-53600000D02*
X139800000Y-53400000D01*
X139800000Y-53400000D02*
X139800000Y-53000000D01*
X135400000Y-53400000D02*
X135800000Y-53000000D01*
X181000000Y-53000000D02*
X181200000Y-53200000D01*
%TO.N,/As*%
X180400000Y-51600000D02*
X180000000Y-51200000D01*
X180400000Y-52000000D02*
X180400000Y-51600000D01*
X180000000Y-51200000D02*
X175800000Y-51200000D01*
X170800000Y-52000000D02*
X171600000Y-51200000D01*
X171600000Y-51200000D02*
X171800000Y-51200000D01*
X143000000Y-52000000D02*
X142800000Y-51800000D01*
X142800000Y-51800000D02*
X142800000Y-51200000D01*
X138600000Y-51200000D02*
X142800000Y-51200000D01*
X134400000Y-51200000D02*
X138600000Y-51200000D01*
X138600000Y-52200000D02*
X138600000Y-51200000D01*
X142800000Y-51200000D02*
X146800000Y-51200000D01*
X146800000Y-51200000D02*
X151000000Y-51200000D01*
X151000000Y-51200000D02*
X155200000Y-51200000D01*
X151000000Y-52000000D02*
X151000000Y-51200000D01*
X155200000Y-51200000D02*
X159400000Y-51200000D01*
X155200000Y-52000000D02*
X155200000Y-51200000D01*
X159400000Y-51200000D02*
X163400000Y-51200000D01*
X159200000Y-51400000D02*
X159400000Y-51200000D01*
X159200000Y-52000000D02*
X159200000Y-51400000D01*
X163400000Y-52200000D02*
X163400000Y-51200000D01*
X163400000Y-51200000D02*
X167800000Y-51200000D01*
X167800000Y-51200000D02*
X171800000Y-51200000D01*
X167600000Y-52200000D02*
X167600000Y-51400000D01*
X167600000Y-51400000D02*
X167800000Y-51200000D01*
X171800000Y-51200000D02*
X175800000Y-51200000D01*
X175800000Y-52200000D02*
X175800000Y-51200000D01*
X134400000Y-52200000D02*
X134400000Y-51200000D01*
%TO.N,/Ds*%
X134400000Y-59800000D02*
X138400000Y-59800000D01*
X138400000Y-59800000D02*
X142400000Y-59800000D01*
X138400000Y-59200000D02*
X138400000Y-59800000D01*
X142400000Y-59800000D02*
X146800000Y-59800000D01*
X142547408Y-59134260D02*
X142547408Y-59652592D01*
X142547408Y-59652592D02*
X142400000Y-59800000D01*
X146800000Y-59800000D02*
X151000000Y-59800000D01*
X146800000Y-59200000D02*
X146800000Y-59800000D01*
X151000000Y-59800000D02*
X155000000Y-59800000D01*
X151000000Y-59200000D02*
X151000000Y-59800000D01*
X155000000Y-59200000D02*
X155000000Y-59800000D01*
X155000000Y-59800000D02*
X159200000Y-59800000D01*
X159200000Y-59800000D02*
X163400000Y-59800000D01*
X159200000Y-59200000D02*
X159200000Y-59800000D01*
X163400000Y-59800000D02*
X167600000Y-59800000D01*
X163400000Y-59200000D02*
X163400000Y-59800000D01*
X167600000Y-59800000D02*
X171600000Y-59800000D01*
X167600000Y-59200000D02*
X167600000Y-59800000D01*
X171600000Y-59200000D02*
X171600000Y-59800000D01*
X171600000Y-59800000D02*
X176000000Y-59800000D01*
X176000000Y-59800000D02*
X179800000Y-59800000D01*
X176000000Y-59200000D02*
X176000000Y-59800000D01*
X134400000Y-59000000D02*
X134400000Y-59800000D01*
X179800000Y-59800000D02*
X180025808Y-59574192D01*
X180025808Y-59574192D02*
X180025808Y-59225500D01*
%TO.N,/Fil A*%
X145200000Y-44000000D02*
X144200000Y-44000000D01*
X144200000Y-44000000D02*
X142913000Y-45287000D01*
X142913000Y-45287000D02*
X133115196Y-45287000D01*
X133115196Y-45287000D02*
X132028196Y-44200000D01*
%TO.N,/G6*%
X141987701Y-66887701D02*
X141987701Y-66987701D01*
X141987701Y-66987701D02*
X144200000Y-69200000D01*
X144200000Y-69200000D02*
X144528196Y-69200000D01*
%TO.N,/G4*%
X136742389Y-66733012D02*
X136742389Y-66742389D01*
X136742389Y-66742389D02*
X139200000Y-69200000D01*
X139200000Y-69200000D02*
X139528196Y-69200000D01*
%TO.N,/G2*%
X131416520Y-66683533D02*
X131483533Y-66683533D01*
X131483533Y-66683533D02*
X134000000Y-69200000D01*
X134000000Y-69200000D02*
X134528196Y-69200000D01*
%TD*%
M02*
