%TF.GenerationSoftware,KiCad,Pcbnew,7.99.0-3522-gc5520b3eef-dirty*%
%TF.CreationDate,2023-11-19T20:13:54+00:00*%
%TF.ProjectId,VFD Replacement,56464420-5265-4706-9c61-63656d656e74,rev?*%
%TF.SameCoordinates,Original*%
%TF.FileFunction,Legend,Bot*%
%TF.FilePolarity,Positive*%
%FSLAX46Y46*%
G04 Gerber Fmt 4.6, Leading zero omitted, Abs format (unit mm)*
G04 Created by KiCad (PCBNEW 7.99.0-3522-gc5520b3eef-dirty) date 2023-11-19 20:13:54*
%MOMM*%
%LPD*%
G01*
G04 APERTURE LIST*
%ADD10C,0.037500*%
G04 APERTURE END LIST*
D10*
X128496757Y-68100145D02*
X128496757Y-68671573D01*
X128496757Y-68671573D02*
X128503900Y-68785859D01*
X128503900Y-68785859D02*
X128518186Y-68862050D01*
X128518186Y-68862050D02*
X128539614Y-68900145D01*
X128539614Y-68900145D02*
X128553900Y-68900145D01*
X128353900Y-68900145D02*
X128425328Y-68900145D01*
X128425328Y-68900145D02*
X128425328Y-68100145D01*
X128218185Y-68823954D02*
X128225328Y-68862050D01*
X128225328Y-68862050D02*
X128246756Y-68900145D01*
X128246756Y-68900145D02*
X128261042Y-68900145D01*
X128261042Y-68900145D02*
X128282471Y-68862050D01*
X128282471Y-68862050D02*
X128296756Y-68785859D01*
X128296756Y-68785859D02*
X128303899Y-68709669D01*
X128303899Y-68709669D02*
X128311042Y-68557288D01*
X128311042Y-68557288D02*
X128311042Y-68443002D01*
X128311042Y-68443002D02*
X128303899Y-68290621D01*
X128303899Y-68290621D02*
X128296756Y-68214430D01*
X128296756Y-68214430D02*
X128282471Y-68138240D01*
X128282471Y-68138240D02*
X128261042Y-68100145D01*
X128261042Y-68100145D02*
X128246756Y-68100145D01*
X128246756Y-68100145D02*
X128225328Y-68138240D01*
X128225328Y-68138240D02*
X128218185Y-68176335D01*
X128111042Y-68100145D02*
X128111042Y-68671573D01*
X128111042Y-68671573D02*
X128118185Y-68785859D01*
X128118185Y-68785859D02*
X128132471Y-68862050D01*
X128132471Y-68862050D02*
X128153899Y-68900145D01*
X128153899Y-68900145D02*
X128168185Y-68900145D01*
X127968185Y-68900145D02*
X128039613Y-68900145D01*
X128039613Y-68900145D02*
X128039613Y-68100145D01*
X127832470Y-68823954D02*
X127839613Y-68862050D01*
X127839613Y-68862050D02*
X127861041Y-68900145D01*
X127861041Y-68900145D02*
X127875327Y-68900145D01*
X127875327Y-68900145D02*
X127896756Y-68862050D01*
X127896756Y-68862050D02*
X127911041Y-68785859D01*
X127911041Y-68785859D02*
X127918184Y-68709669D01*
X127918184Y-68709669D02*
X127925327Y-68557288D01*
X127925327Y-68557288D02*
X127925327Y-68443002D01*
X127925327Y-68443002D02*
X127918184Y-68290621D01*
X127918184Y-68290621D02*
X127911041Y-68214430D01*
X127911041Y-68214430D02*
X127896756Y-68138240D01*
X127896756Y-68138240D02*
X127875327Y-68100145D01*
X127875327Y-68100145D02*
X127861041Y-68100145D01*
X127861041Y-68100145D02*
X127839613Y-68138240D01*
X127839613Y-68138240D02*
X127832470Y-68176335D01*
X127725327Y-68100145D02*
X127725327Y-68671573D01*
X127725327Y-68671573D02*
X127732470Y-68785859D01*
X127732470Y-68785859D02*
X127746756Y-68862050D01*
X127746756Y-68862050D02*
X127768184Y-68900145D01*
X127768184Y-68900145D02*
X127782470Y-68900145D01*
X127582470Y-68900145D02*
X127653898Y-68900145D01*
X127653898Y-68900145D02*
X127653898Y-68100145D01*
X127446755Y-68823954D02*
X127453898Y-68862050D01*
X127453898Y-68862050D02*
X127475326Y-68900145D01*
X127475326Y-68900145D02*
X127489612Y-68900145D01*
X127489612Y-68900145D02*
X127511041Y-68862050D01*
X127511041Y-68862050D02*
X127525326Y-68785859D01*
X127525326Y-68785859D02*
X127532469Y-68709669D01*
X127532469Y-68709669D02*
X127539612Y-68557288D01*
X127539612Y-68557288D02*
X127539612Y-68443002D01*
X127539612Y-68443002D02*
X127532469Y-68290621D01*
X127532469Y-68290621D02*
X127525326Y-68214430D01*
X127525326Y-68214430D02*
X127511041Y-68138240D01*
X127511041Y-68138240D02*
X127489612Y-68100145D01*
X127489612Y-68100145D02*
X127475326Y-68100145D01*
X127475326Y-68100145D02*
X127453898Y-68138240D01*
X127453898Y-68138240D02*
X127446755Y-68176335D01*
X127339612Y-68100145D02*
X127339612Y-68671573D01*
X127339612Y-68671573D02*
X127346755Y-68785859D01*
X127346755Y-68785859D02*
X127361041Y-68862050D01*
X127361041Y-68862050D02*
X127382469Y-68900145D01*
X127382469Y-68900145D02*
X127396755Y-68900145D01*
X127196755Y-68900145D02*
X127268183Y-68900145D01*
X127268183Y-68900145D02*
X127268183Y-68100145D01*
X127061040Y-68823954D02*
X127068183Y-68862050D01*
X127068183Y-68862050D02*
X127089611Y-68900145D01*
X127089611Y-68900145D02*
X127103897Y-68900145D01*
X127103897Y-68900145D02*
X127125326Y-68862050D01*
X127125326Y-68862050D02*
X127139611Y-68785859D01*
X127139611Y-68785859D02*
X127146754Y-68709669D01*
X127146754Y-68709669D02*
X127153897Y-68557288D01*
X127153897Y-68557288D02*
X127153897Y-68443002D01*
X127153897Y-68443002D02*
X127146754Y-68290621D01*
X127146754Y-68290621D02*
X127139611Y-68214430D01*
X127139611Y-68214430D02*
X127125326Y-68138240D01*
X127125326Y-68138240D02*
X127103897Y-68100145D01*
X127103897Y-68100145D02*
X127089611Y-68100145D01*
X127089611Y-68100145D02*
X127068183Y-68138240D01*
X127068183Y-68138240D02*
X127061040Y-68176335D01*
M02*
