M48
; DRILL file {KiCad 7.99.0-3522-gc5520b3eef-dirty} date 2023-12-16T18:02:06+0000
; FORMAT={-:-/ absolute / inch / decimal}
; #@! TF.CreationDate,2023-12-16T18:02:06+00:00
; #@! TF.GenerationSoftware,Kicad,Pcbnew,7.99.0-3522-gc5520b3eef-dirty
; #@! TF.FileFunction,Plated,1,2,PTH
FMAT,2
INCH
; #@! TA.AperFunction,Plated,PTH,ViaDrill
T1C0.0157
; #@! TA.AperFunction,Plated,PTH,ComponentDrill
T2C0.0300
; #@! TA.AperFunction,Plated,PTH,ComponentDrill
T3C0.0394
%
G90
G05
T1
X5.0039Y-1.7913
X5.0551Y-2.4724
X5.122Y-1.7717
X5.1339Y-2.5709
X5.2362Y-2.4646
X5.2402Y-2.3947
X5.3307Y-1.9134
X5.3465Y-2.5669
X5.3622Y-2.3976
X5.3661Y-2.2717
X5.4173Y-2.437
X5.4528Y-2.4685
X5.4724Y-2.314
X5.5512Y-2.563
X5.6142Y-2.2402
X5.6181Y-1.9912
X5.6772Y-1.8819
X5.685Y-1.9331
X5.7165Y-1.7323
X5.8657Y-1.7525
X5.8661Y-1.811
X6.3228Y-1.7323
X6.4094Y-1.8228
X6.5827Y-1.7608
X6.5861Y-1.8312
X6.7835Y-2.5748
X6.8465Y-2.4803
X7.0395Y-2.4833
X7.0458Y-2.5556
X7.0551Y-2.4144
X7.2244Y-1.8701
X7.2244Y-2.4843
X7.3346Y-1.7559
X7.3661Y-2.5709
T2
X5.198Y-1.7402
X5.198Y-2.7244
X5.2964Y-1.7402
X5.2964Y-2.7244
X5.3948Y-1.7402
X5.3948Y-2.7244
X5.4932Y-1.7402
X5.4932Y-2.7244
X5.5917Y-1.7402
X5.5917Y-2.7244
X5.6901Y-2.7244
X6.6742Y-2.7244
X6.7726Y-2.7244
X6.7728Y-1.7402
X6.8711Y-2.7244
X6.8712Y-1.7402
X6.9695Y-2.7244
X6.9696Y-1.7402
X7.0679Y-2.7244
X7.068Y-1.7402
X7.1663Y-2.7244
X7.1665Y-1.7402
T3
X5.6488Y-2.4528
X5.7488Y-2.4528
X5.8488Y-2.4528
X5.8496Y-2.0197
X5.9488Y-2.4528
X5.9496Y-2.0197
X6.0488Y-2.4528
X6.0496Y-2.0197
X6.1488Y-2.4528
X6.1496Y-2.0197
X6.1598Y-2.7008
X6.2488Y-2.4528
X6.2496Y-2.0197
X6.2598Y-2.7008
X6.3488Y-2.4528
X6.3496Y-2.0197
X6.4488Y-2.4528
X6.4496Y-2.0197
X6.5488Y-2.4528
X6.5496Y-2.0197
X6.6488Y-2.4528
X6.7488Y-2.4528
T0
M30
