%TF.GenerationSoftware,KiCad,Pcbnew,7.99.0-3522-gc5520b3eef-dirty*%
%TF.CreationDate,2023-12-16T18:04:07+00:00*%
%TF.ProjectId,display module,64697370-6c61-4792-906d-6f64756c652e,rev?*%
%TF.SameCoordinates,Original*%
%TF.FileFunction,Legend,Bot*%
%TF.FilePolarity,Positive*%
%FSLAX46Y46*%
G04 Gerber Fmt 4.6, Leading zero omitted, Abs format (unit mm)*
G04 Created by KiCad (PCBNEW 7.99.0-3522-gc5520b3eef-dirty) date 2023-12-16 18:04:07*
%MOMM*%
%LPD*%
G01*
G04 APERTURE LIST*
%ADD10C,0.150000*%
%ADD11C,0.025000*%
G04 APERTURE END LIST*
D10*
X167906077Y-55269819D02*
X167572744Y-56269819D01*
X167572744Y-56269819D02*
X167239411Y-55269819D01*
X166382268Y-56269819D02*
X166953696Y-56269819D01*
X166667982Y-56269819D02*
X166667982Y-55269819D01*
X166667982Y-55269819D02*
X166763220Y-55412676D01*
X166763220Y-55412676D02*
X166858458Y-55507914D01*
X166858458Y-55507914D02*
X166953696Y-55555533D01*
X165953696Y-56174580D02*
X165906077Y-56222200D01*
X165906077Y-56222200D02*
X165953696Y-56269819D01*
X165953696Y-56269819D02*
X166001315Y-56222200D01*
X166001315Y-56222200D02*
X165953696Y-56174580D01*
X165953696Y-56174580D02*
X165953696Y-56269819D01*
X165287030Y-55269819D02*
X165191792Y-55269819D01*
X165191792Y-55269819D02*
X165096554Y-55317438D01*
X165096554Y-55317438D02*
X165048935Y-55365057D01*
X165048935Y-55365057D02*
X165001316Y-55460295D01*
X165001316Y-55460295D02*
X164953697Y-55650771D01*
X164953697Y-55650771D02*
X164953697Y-55888866D01*
X164953697Y-55888866D02*
X165001316Y-56079342D01*
X165001316Y-56079342D02*
X165048935Y-56174580D01*
X165048935Y-56174580D02*
X165096554Y-56222200D01*
X165096554Y-56222200D02*
X165191792Y-56269819D01*
X165191792Y-56269819D02*
X165287030Y-56269819D01*
X165287030Y-56269819D02*
X165382268Y-56222200D01*
X165382268Y-56222200D02*
X165429887Y-56174580D01*
X165429887Y-56174580D02*
X165477506Y-56079342D01*
X165477506Y-56079342D02*
X165525125Y-55888866D01*
X165525125Y-55888866D02*
X165525125Y-55650771D01*
X165525125Y-55650771D02*
X165477506Y-55460295D01*
X165477506Y-55460295D02*
X165429887Y-55365057D01*
X165429887Y-55365057D02*
X165382268Y-55317438D01*
X165382268Y-55317438D02*
X165287030Y-55269819D01*
D11*
X136678791Y-59800795D02*
X136678791Y-60372223D01*
X136678791Y-60372223D02*
X136688314Y-60486509D01*
X136688314Y-60486509D02*
X136707362Y-60562700D01*
X136707362Y-60562700D02*
X136735933Y-60600795D01*
X136735933Y-60600795D02*
X136754981Y-60600795D01*
X136488314Y-60600795D02*
X136583552Y-60600795D01*
X136583552Y-60600795D02*
X136583552Y-59800795D01*
X136307362Y-60524604D02*
X136316886Y-60562700D01*
X136316886Y-60562700D02*
X136345457Y-60600795D01*
X136345457Y-60600795D02*
X136364505Y-60600795D01*
X136364505Y-60600795D02*
X136393076Y-60562700D01*
X136393076Y-60562700D02*
X136412124Y-60486509D01*
X136412124Y-60486509D02*
X136421647Y-60410319D01*
X136421647Y-60410319D02*
X136431171Y-60257938D01*
X136431171Y-60257938D02*
X136431171Y-60143652D01*
X136431171Y-60143652D02*
X136421647Y-59991271D01*
X136421647Y-59991271D02*
X136412124Y-59915080D01*
X136412124Y-59915080D02*
X136393076Y-59838890D01*
X136393076Y-59838890D02*
X136364505Y-59800795D01*
X136364505Y-59800795D02*
X136345457Y-59800795D01*
X136345457Y-59800795D02*
X136316886Y-59838890D01*
X136316886Y-59838890D02*
X136307362Y-59876985D01*
X136164505Y-59800795D02*
X136164505Y-60372223D01*
X136164505Y-60372223D02*
X136174028Y-60486509D01*
X136174028Y-60486509D02*
X136193076Y-60562700D01*
X136193076Y-60562700D02*
X136221647Y-60600795D01*
X136221647Y-60600795D02*
X136240695Y-60600795D01*
X135974028Y-60600795D02*
X136069266Y-60600795D01*
X136069266Y-60600795D02*
X136069266Y-59800795D01*
X135793076Y-60524604D02*
X135802600Y-60562700D01*
X135802600Y-60562700D02*
X135831171Y-60600795D01*
X135831171Y-60600795D02*
X135850219Y-60600795D01*
X135850219Y-60600795D02*
X135878790Y-60562700D01*
X135878790Y-60562700D02*
X135897838Y-60486509D01*
X135897838Y-60486509D02*
X135907361Y-60410319D01*
X135907361Y-60410319D02*
X135916885Y-60257938D01*
X135916885Y-60257938D02*
X135916885Y-60143652D01*
X135916885Y-60143652D02*
X135907361Y-59991271D01*
X135907361Y-59991271D02*
X135897838Y-59915080D01*
X135897838Y-59915080D02*
X135878790Y-59838890D01*
X135878790Y-59838890D02*
X135850219Y-59800795D01*
X135850219Y-59800795D02*
X135831171Y-59800795D01*
X135831171Y-59800795D02*
X135802600Y-59838890D01*
X135802600Y-59838890D02*
X135793076Y-59876985D01*
X135650219Y-59800795D02*
X135650219Y-60372223D01*
X135650219Y-60372223D02*
X135659742Y-60486509D01*
X135659742Y-60486509D02*
X135678790Y-60562700D01*
X135678790Y-60562700D02*
X135707361Y-60600795D01*
X135707361Y-60600795D02*
X135726409Y-60600795D01*
X135459742Y-60600795D02*
X135554980Y-60600795D01*
X135554980Y-60600795D02*
X135554980Y-59800795D01*
X135278790Y-60524604D02*
X135288314Y-60562700D01*
X135288314Y-60562700D02*
X135316885Y-60600795D01*
X135316885Y-60600795D02*
X135335933Y-60600795D01*
X135335933Y-60600795D02*
X135364504Y-60562700D01*
X135364504Y-60562700D02*
X135383552Y-60486509D01*
X135383552Y-60486509D02*
X135393075Y-60410319D01*
X135393075Y-60410319D02*
X135402599Y-60257938D01*
X135402599Y-60257938D02*
X135402599Y-60143652D01*
X135402599Y-60143652D02*
X135393075Y-59991271D01*
X135393075Y-59991271D02*
X135383552Y-59915080D01*
X135383552Y-59915080D02*
X135364504Y-59838890D01*
X135364504Y-59838890D02*
X135335933Y-59800795D01*
X135335933Y-59800795D02*
X135316885Y-59800795D01*
X135316885Y-59800795D02*
X135288314Y-59838890D01*
X135288314Y-59838890D02*
X135278790Y-59876985D01*
X135135933Y-59800795D02*
X135135933Y-60372223D01*
X135135933Y-60372223D02*
X135145456Y-60486509D01*
X135145456Y-60486509D02*
X135164504Y-60562700D01*
X135164504Y-60562700D02*
X135193075Y-60600795D01*
X135193075Y-60600795D02*
X135212123Y-60600795D01*
X134945456Y-60600795D02*
X135040694Y-60600795D01*
X135040694Y-60600795D02*
X135040694Y-59800795D01*
X134764504Y-60524604D02*
X134774028Y-60562700D01*
X134774028Y-60562700D02*
X134802599Y-60600795D01*
X134802599Y-60600795D02*
X134821647Y-60600795D01*
X134821647Y-60600795D02*
X134850218Y-60562700D01*
X134850218Y-60562700D02*
X134869266Y-60486509D01*
X134869266Y-60486509D02*
X134878789Y-60410319D01*
X134878789Y-60410319D02*
X134888313Y-60257938D01*
X134888313Y-60257938D02*
X134888313Y-60143652D01*
X134888313Y-60143652D02*
X134878789Y-59991271D01*
X134878789Y-59991271D02*
X134869266Y-59915080D01*
X134869266Y-59915080D02*
X134850218Y-59838890D01*
X134850218Y-59838890D02*
X134821647Y-59800795D01*
X134821647Y-59800795D02*
X134802599Y-59800795D01*
X134802599Y-59800795D02*
X134774028Y-59838890D01*
X134774028Y-59838890D02*
X134764504Y-59876985D01*
D10*
X168158458Y-53669819D02*
X167491792Y-53669819D01*
X167491792Y-53669819D02*
X167920363Y-54669819D01*
X167110839Y-54288866D02*
X166348935Y-54288866D01*
X165920363Y-54622200D02*
X165825125Y-54669819D01*
X165825125Y-54669819D02*
X165634649Y-54669819D01*
X165634649Y-54669819D02*
X165539411Y-54622200D01*
X165539411Y-54622200D02*
X165491792Y-54526961D01*
X165491792Y-54526961D02*
X165491792Y-54479342D01*
X165491792Y-54479342D02*
X165539411Y-54384104D01*
X165539411Y-54384104D02*
X165634649Y-54336485D01*
X165634649Y-54336485D02*
X165777506Y-54336485D01*
X165777506Y-54336485D02*
X165872744Y-54288866D01*
X165872744Y-54288866D02*
X165920363Y-54193628D01*
X165920363Y-54193628D02*
X165920363Y-54146009D01*
X165920363Y-54146009D02*
X165872744Y-54050771D01*
X165872744Y-54050771D02*
X165777506Y-54003152D01*
X165777506Y-54003152D02*
X165634649Y-54003152D01*
X165634649Y-54003152D02*
X165539411Y-54050771D01*
X164682268Y-54622200D02*
X164777506Y-54669819D01*
X164777506Y-54669819D02*
X164967982Y-54669819D01*
X164967982Y-54669819D02*
X165063220Y-54622200D01*
X165063220Y-54622200D02*
X165110839Y-54526961D01*
X165110839Y-54526961D02*
X165110839Y-54146009D01*
X165110839Y-54146009D02*
X165063220Y-54050771D01*
X165063220Y-54050771D02*
X164967982Y-54003152D01*
X164967982Y-54003152D02*
X164777506Y-54003152D01*
X164777506Y-54003152D02*
X164682268Y-54050771D01*
X164682268Y-54050771D02*
X164634649Y-54146009D01*
X164634649Y-54146009D02*
X164634649Y-54241247D01*
X164634649Y-54241247D02*
X165110839Y-54336485D01*
X163777506Y-54003152D02*
X163777506Y-54812676D01*
X163777506Y-54812676D02*
X163825125Y-54907914D01*
X163825125Y-54907914D02*
X163872744Y-54955533D01*
X163872744Y-54955533D02*
X163967982Y-55003152D01*
X163967982Y-55003152D02*
X164110839Y-55003152D01*
X164110839Y-55003152D02*
X164206077Y-54955533D01*
X163777506Y-54622200D02*
X163872744Y-54669819D01*
X163872744Y-54669819D02*
X164063220Y-54669819D01*
X164063220Y-54669819D02*
X164158458Y-54622200D01*
X164158458Y-54622200D02*
X164206077Y-54574580D01*
X164206077Y-54574580D02*
X164253696Y-54479342D01*
X164253696Y-54479342D02*
X164253696Y-54193628D01*
X164253696Y-54193628D02*
X164206077Y-54098390D01*
X164206077Y-54098390D02*
X164158458Y-54050771D01*
X164158458Y-54050771D02*
X164063220Y-54003152D01*
X164063220Y-54003152D02*
X163872744Y-54003152D01*
X163872744Y-54003152D02*
X163777506Y-54050771D01*
X162063220Y-54669819D02*
X162539410Y-54669819D01*
X162539410Y-54669819D02*
X162539410Y-53669819D01*
X161729886Y-54146009D02*
X161396553Y-54146009D01*
X161253696Y-54669819D02*
X161729886Y-54669819D01*
X161729886Y-54669819D02*
X161729886Y-53669819D01*
X161729886Y-53669819D02*
X161253696Y-53669819D01*
X160825124Y-54669819D02*
X160825124Y-53669819D01*
X160825124Y-53669819D02*
X160587029Y-53669819D01*
X160587029Y-53669819D02*
X160444172Y-53717438D01*
X160444172Y-53717438D02*
X160348934Y-53812676D01*
X160348934Y-53812676D02*
X160301315Y-53907914D01*
X160301315Y-53907914D02*
X160253696Y-54098390D01*
X160253696Y-54098390D02*
X160253696Y-54241247D01*
X160253696Y-54241247D02*
X160301315Y-54431723D01*
X160301315Y-54431723D02*
X160348934Y-54526961D01*
X160348934Y-54526961D02*
X160444172Y-54622200D01*
X160444172Y-54622200D02*
X160587029Y-54669819D01*
X160587029Y-54669819D02*
X160825124Y-54669819D01*
X159063219Y-54669819D02*
X159063219Y-53669819D01*
X159063219Y-53669819D02*
X158825124Y-53669819D01*
X158825124Y-53669819D02*
X158682267Y-53717438D01*
X158682267Y-53717438D02*
X158587029Y-53812676D01*
X158587029Y-53812676D02*
X158539410Y-53907914D01*
X158539410Y-53907914D02*
X158491791Y-54098390D01*
X158491791Y-54098390D02*
X158491791Y-54241247D01*
X158491791Y-54241247D02*
X158539410Y-54431723D01*
X158539410Y-54431723D02*
X158587029Y-54526961D01*
X158587029Y-54526961D02*
X158682267Y-54622200D01*
X158682267Y-54622200D02*
X158825124Y-54669819D01*
X158825124Y-54669819D02*
X159063219Y-54669819D01*
X158063219Y-54669819D02*
X158063219Y-54003152D01*
X158063219Y-53669819D02*
X158110838Y-53717438D01*
X158110838Y-53717438D02*
X158063219Y-53765057D01*
X158063219Y-53765057D02*
X158015600Y-53717438D01*
X158015600Y-53717438D02*
X158063219Y-53669819D01*
X158063219Y-53669819D02*
X158063219Y-53765057D01*
X157634648Y-54622200D02*
X157539410Y-54669819D01*
X157539410Y-54669819D02*
X157348934Y-54669819D01*
X157348934Y-54669819D02*
X157253696Y-54622200D01*
X157253696Y-54622200D02*
X157206077Y-54526961D01*
X157206077Y-54526961D02*
X157206077Y-54479342D01*
X157206077Y-54479342D02*
X157253696Y-54384104D01*
X157253696Y-54384104D02*
X157348934Y-54336485D01*
X157348934Y-54336485D02*
X157491791Y-54336485D01*
X157491791Y-54336485D02*
X157587029Y-54288866D01*
X157587029Y-54288866D02*
X157634648Y-54193628D01*
X157634648Y-54193628D02*
X157634648Y-54146009D01*
X157634648Y-54146009D02*
X157587029Y-54050771D01*
X157587029Y-54050771D02*
X157491791Y-54003152D01*
X157491791Y-54003152D02*
X157348934Y-54003152D01*
X157348934Y-54003152D02*
X157253696Y-54050771D01*
X156777505Y-54003152D02*
X156777505Y-55003152D01*
X156777505Y-54050771D02*
X156682267Y-54003152D01*
X156682267Y-54003152D02*
X156491791Y-54003152D01*
X156491791Y-54003152D02*
X156396553Y-54050771D01*
X156396553Y-54050771D02*
X156348934Y-54098390D01*
X156348934Y-54098390D02*
X156301315Y-54193628D01*
X156301315Y-54193628D02*
X156301315Y-54479342D01*
X156301315Y-54479342D02*
X156348934Y-54574580D01*
X156348934Y-54574580D02*
X156396553Y-54622200D01*
X156396553Y-54622200D02*
X156491791Y-54669819D01*
X156491791Y-54669819D02*
X156682267Y-54669819D01*
X156682267Y-54669819D02*
X156777505Y-54622200D01*
X155729886Y-54669819D02*
X155825124Y-54622200D01*
X155825124Y-54622200D02*
X155872743Y-54526961D01*
X155872743Y-54526961D02*
X155872743Y-53669819D01*
X154920362Y-54669819D02*
X154920362Y-54146009D01*
X154920362Y-54146009D02*
X154967981Y-54050771D01*
X154967981Y-54050771D02*
X155063219Y-54003152D01*
X155063219Y-54003152D02*
X155253695Y-54003152D01*
X155253695Y-54003152D02*
X155348933Y-54050771D01*
X154920362Y-54622200D02*
X155015600Y-54669819D01*
X155015600Y-54669819D02*
X155253695Y-54669819D01*
X155253695Y-54669819D02*
X155348933Y-54622200D01*
X155348933Y-54622200D02*
X155396552Y-54526961D01*
X155396552Y-54526961D02*
X155396552Y-54431723D01*
X155396552Y-54431723D02*
X155348933Y-54336485D01*
X155348933Y-54336485D02*
X155253695Y-54288866D01*
X155253695Y-54288866D02*
X155015600Y-54288866D01*
X155015600Y-54288866D02*
X154920362Y-54241247D01*
X154539409Y-54003152D02*
X154301314Y-54669819D01*
X154063219Y-54003152D02*
X154301314Y-54669819D01*
X154301314Y-54669819D02*
X154396552Y-54907914D01*
X154396552Y-54907914D02*
X154444171Y-54955533D01*
X154444171Y-54955533D02*
X154539409Y-55003152D01*
X152920361Y-54669819D02*
X152920361Y-53669819D01*
X152920361Y-53669819D02*
X152587028Y-54384104D01*
X152587028Y-54384104D02*
X152253695Y-53669819D01*
X152253695Y-53669819D02*
X152253695Y-54669819D01*
X151634647Y-54669819D02*
X151729885Y-54622200D01*
X151729885Y-54622200D02*
X151777504Y-54574580D01*
X151777504Y-54574580D02*
X151825123Y-54479342D01*
X151825123Y-54479342D02*
X151825123Y-54193628D01*
X151825123Y-54193628D02*
X151777504Y-54098390D01*
X151777504Y-54098390D02*
X151729885Y-54050771D01*
X151729885Y-54050771D02*
X151634647Y-54003152D01*
X151634647Y-54003152D02*
X151491790Y-54003152D01*
X151491790Y-54003152D02*
X151396552Y-54050771D01*
X151396552Y-54050771D02*
X151348933Y-54098390D01*
X151348933Y-54098390D02*
X151301314Y-54193628D01*
X151301314Y-54193628D02*
X151301314Y-54479342D01*
X151301314Y-54479342D02*
X151348933Y-54574580D01*
X151348933Y-54574580D02*
X151396552Y-54622200D01*
X151396552Y-54622200D02*
X151491790Y-54669819D01*
X151491790Y-54669819D02*
X151634647Y-54669819D01*
X150444171Y-54669819D02*
X150444171Y-53669819D01*
X150444171Y-54622200D02*
X150539409Y-54669819D01*
X150539409Y-54669819D02*
X150729885Y-54669819D01*
X150729885Y-54669819D02*
X150825123Y-54622200D01*
X150825123Y-54622200D02*
X150872742Y-54574580D01*
X150872742Y-54574580D02*
X150920361Y-54479342D01*
X150920361Y-54479342D02*
X150920361Y-54193628D01*
X150920361Y-54193628D02*
X150872742Y-54098390D01*
X150872742Y-54098390D02*
X150825123Y-54050771D01*
X150825123Y-54050771D02*
X150729885Y-54003152D01*
X150729885Y-54003152D02*
X150539409Y-54003152D01*
X150539409Y-54003152D02*
X150444171Y-54050771D01*
X149539409Y-54003152D02*
X149539409Y-54669819D01*
X149967980Y-54003152D02*
X149967980Y-54526961D01*
X149967980Y-54526961D02*
X149920361Y-54622200D01*
X149920361Y-54622200D02*
X149825123Y-54669819D01*
X149825123Y-54669819D02*
X149682266Y-54669819D01*
X149682266Y-54669819D02*
X149587028Y-54622200D01*
X149587028Y-54622200D02*
X149539409Y-54574580D01*
X148920361Y-54669819D02*
X149015599Y-54622200D01*
X149015599Y-54622200D02*
X149063218Y-54526961D01*
X149063218Y-54526961D02*
X149063218Y-53669819D01*
X148158456Y-54622200D02*
X148253694Y-54669819D01*
X148253694Y-54669819D02*
X148444170Y-54669819D01*
X148444170Y-54669819D02*
X148539408Y-54622200D01*
X148539408Y-54622200D02*
X148587027Y-54526961D01*
X148587027Y-54526961D02*
X148587027Y-54146009D01*
X148587027Y-54146009D02*
X148539408Y-54050771D01*
X148539408Y-54050771D02*
X148444170Y-54003152D01*
X148444170Y-54003152D02*
X148253694Y-54003152D01*
X148253694Y-54003152D02*
X148158456Y-54050771D01*
X148158456Y-54050771D02*
X148110837Y-54146009D01*
X148110837Y-54146009D02*
X148110837Y-54241247D01*
X148110837Y-54241247D02*
X148587027Y-54336485D01*
M02*
