%TF.GenerationSoftware,KiCad,Pcbnew,7.99.0-3522-gc5520b3eef-dirty*%
%TF.CreationDate,2023-12-16T18:04:05+00:00*%
%TF.ProjectId,display module,64697370-6c61-4792-906d-6f64756c652e,rev?*%
%TF.SameCoordinates,Original*%
%TF.FileFunction,Drillmap*%
%TF.FilePolarity,Positive*%
%FSLAX45Y45*%
G04 Gerber Fmt 4.5, Leading zero omitted, Abs format (unit mm)*
G04 Created by KiCad (PCBNEW 7.99.0-3522-gc5520b3eef-dirty) date 2023-12-16 18:04:05*
%MOMM*%
%LPD*%
G01*
G04 APERTURE LIST*
%ADD10C,0.100000*%
%ADD11C,0.200000*%
G04 APERTURE END LIST*
D10*
X13092820Y-5060000D02*
X18280000Y-5060000D01*
X18280000Y-6160000D01*
X13092820Y-6160000D01*
X13092820Y-5060000D01*
D11*
D10*
X13203614Y-5417573D02*
X13243614Y-5457573D01*
X13243614Y-5417573D02*
X13203614Y-5457573D01*
X13212603Y-5528546D02*
X13252603Y-5568546D01*
X13252603Y-5528546D02*
X13212603Y-5568546D01*
X13230000Y-5630000D02*
X13270000Y-5670000D01*
X13270000Y-5630000D02*
X13230000Y-5670000D01*
X13420000Y-5200000D02*
X13460000Y-5240000D01*
X13460000Y-5200000D02*
X13420000Y-5240000D01*
X13420000Y-5880000D02*
X13460000Y-5920000D01*
X13460000Y-5880000D02*
X13420000Y-5920000D01*
X13520000Y-5127550D02*
X13560000Y-5167550D01*
X13560000Y-5127550D02*
X13520000Y-5167550D01*
X13520000Y-5320000D02*
X13560000Y-5360000D01*
X13560000Y-5320000D02*
X13520000Y-5360000D01*
X13520000Y-5887550D02*
X13560000Y-5927550D01*
X13560000Y-5887550D02*
X13520000Y-5927550D01*
X13560000Y-5620000D02*
X13600000Y-5660000D01*
X13600000Y-5620000D02*
X13560000Y-5660000D01*
X13561087Y-5725720D02*
X13601087Y-5765720D01*
X13601087Y-5725720D02*
X13561087Y-5765720D01*
X13600000Y-5412500D02*
X13640000Y-5452500D01*
X13640000Y-5412500D02*
X13600000Y-5452500D01*
X13600000Y-5523073D02*
X13640000Y-5563073D01*
X13640000Y-5523073D02*
X13600000Y-5563073D01*
X13820000Y-5900000D02*
X13860000Y-5940000D01*
X13860000Y-5900000D02*
X13820000Y-5940000D01*
X13840000Y-5200000D02*
X13880000Y-5240000D01*
X13880000Y-5200000D02*
X13840000Y-5240000D01*
X13940000Y-5340000D02*
X13980000Y-5380000D01*
X13980000Y-5340000D02*
X13940000Y-5380000D01*
X13940000Y-5887550D02*
X13980000Y-5927550D01*
X13980000Y-5887550D02*
X13940000Y-5927550D01*
X13978342Y-5727023D02*
X14018342Y-5767023D01*
X14018342Y-5727023D02*
X13978342Y-5767023D01*
X13980000Y-5620000D02*
X14020000Y-5660000D01*
X14020000Y-5620000D02*
X13980000Y-5660000D01*
X14020000Y-5412500D02*
X14060000Y-5452500D01*
X14060000Y-5412500D02*
X14020000Y-5452500D01*
X14020000Y-5523073D02*
X14060000Y-5563073D01*
X14060000Y-5523073D02*
X14020000Y-5563073D01*
X14100000Y-5992450D02*
X14140000Y-6032450D01*
X14140000Y-5992450D02*
X14100000Y-6032450D01*
X14234741Y-5893426D02*
X14274741Y-5933426D01*
X14274741Y-5893426D02*
X14234741Y-5933426D01*
X14280000Y-5200000D02*
X14320000Y-5240000D01*
X14320000Y-5200000D02*
X14280000Y-5240000D01*
X14340000Y-5877550D02*
X14380000Y-5917550D01*
X14380000Y-5877550D02*
X14340000Y-5917550D01*
X14360000Y-5340000D02*
X14400000Y-5380000D01*
X14400000Y-5340000D02*
X14360000Y-5380000D01*
X14399403Y-5719948D02*
X14439403Y-5759948D01*
X14439403Y-5719948D02*
X14399403Y-5759948D01*
X14400000Y-5620000D02*
X14440000Y-5660000D01*
X14440000Y-5620000D02*
X14400000Y-5660000D01*
X14440000Y-5412500D02*
X14480000Y-5452500D01*
X14480000Y-5412500D02*
X14440000Y-5452500D01*
X14440000Y-5523073D02*
X14480000Y-5563073D01*
X14480000Y-5523073D02*
X14440000Y-5563073D01*
X14660000Y-5900000D02*
X14700000Y-5940000D01*
X14700000Y-5900000D02*
X14660000Y-5940000D01*
X14661250Y-5201250D02*
X14701250Y-5241250D01*
X14701250Y-5201250D02*
X14661250Y-5241250D01*
X14760000Y-5280000D02*
X14800000Y-5320000D01*
X14800000Y-5280000D02*
X14760000Y-5320000D01*
X14760000Y-5880000D02*
X14800000Y-5920000D01*
X14800000Y-5880000D02*
X14760000Y-5920000D01*
X14784464Y-5501390D02*
X14824464Y-5541390D01*
X14824464Y-5501390D02*
X14784464Y-5541390D01*
X14800000Y-5620000D02*
X14840000Y-5660000D01*
X14840000Y-5620000D02*
X14800000Y-5660000D01*
X14807044Y-5726436D02*
X14847044Y-5766436D01*
X14847044Y-5726436D02*
X14807044Y-5766436D01*
X14867420Y-5445637D02*
X14907420Y-5485637D01*
X14907420Y-5445637D02*
X14867420Y-5485637D01*
X15076250Y-5200000D02*
X15116250Y-5240000D01*
X15116250Y-5200000D02*
X15076250Y-5240000D01*
X15080000Y-5900000D02*
X15120000Y-5940000D01*
X15120000Y-5900000D02*
X15080000Y-5940000D01*
X15180000Y-5880000D02*
X15220000Y-5920000D01*
X15220000Y-5880000D02*
X15180000Y-5920000D01*
X15181930Y-5284390D02*
X15221930Y-5324390D01*
X15221930Y-5284390D02*
X15181930Y-5324390D01*
X15220000Y-5620000D02*
X15260000Y-5660000D01*
X15260000Y-5620000D02*
X15220000Y-5660000D01*
X15220751Y-5725888D02*
X15260751Y-5765888D01*
X15260751Y-5725888D02*
X15220751Y-5765888D01*
X15296594Y-5443678D02*
X15336594Y-5483678D01*
X15336594Y-5443678D02*
X15296594Y-5483678D01*
X15306927Y-5547550D02*
X15346927Y-5587550D01*
X15346927Y-5547550D02*
X15306927Y-5587550D01*
X15340000Y-5200000D02*
X15380000Y-5240000D01*
X15380000Y-5200000D02*
X15340000Y-5240000D01*
X15480000Y-5900000D02*
X15520000Y-5940000D01*
X15520000Y-5900000D02*
X15480000Y-5940000D01*
X15580700Y-5300000D02*
X15620700Y-5340000D01*
X15620700Y-5300000D02*
X15580700Y-5340000D01*
X15600000Y-5887550D02*
X15640000Y-5927550D01*
X15640000Y-5887550D02*
X15600000Y-5927550D01*
X15640000Y-5520050D02*
X15680000Y-5560050D01*
X15680000Y-5520050D02*
X15640000Y-5560050D01*
X15640000Y-5620000D02*
X15680000Y-5660000D01*
X15680000Y-5620000D02*
X15640000Y-5660000D01*
X15644606Y-5726591D02*
X15684606Y-5766591D01*
X15684606Y-5726591D02*
X15644606Y-5766591D01*
X15699665Y-5432023D02*
X15739665Y-5472023D01*
X15739665Y-5432023D02*
X15699665Y-5472023D01*
X15900000Y-5900000D02*
X15940000Y-5940000D01*
X15940000Y-5900000D02*
X15900000Y-5940000D01*
X15906250Y-5200000D02*
X15946250Y-5240000D01*
X15946250Y-5200000D02*
X15906250Y-5240000D01*
X16020000Y-5340000D02*
X16060000Y-5380000D01*
X16060000Y-5340000D02*
X16020000Y-5380000D01*
X16020000Y-5887550D02*
X16060000Y-5927550D01*
X16060000Y-5887550D02*
X16020000Y-5927550D01*
X16055993Y-5728347D02*
X16095993Y-5768347D01*
X16095993Y-5728347D02*
X16055993Y-5768347D01*
X16060000Y-5620000D02*
X16100000Y-5660000D01*
X16100000Y-5620000D02*
X16060000Y-5660000D01*
X16083725Y-5417001D02*
X16123725Y-5457001D01*
X16123725Y-5417001D02*
X16083725Y-5457001D01*
X16116500Y-5537373D02*
X16156500Y-5577373D01*
X16156500Y-5537373D02*
X16116500Y-5577373D01*
X16320000Y-5200000D02*
X16360000Y-5240000D01*
X16360000Y-5200000D02*
X16320000Y-5240000D01*
X16320000Y-5900000D02*
X16360000Y-5940000D01*
X16360000Y-5900000D02*
X16320000Y-5940000D01*
X16410700Y-5300882D02*
X16450700Y-5340882D01*
X16450700Y-5300882D02*
X16410700Y-5340882D01*
X16440000Y-5880000D02*
X16480000Y-5920000D01*
X16480000Y-5880000D02*
X16440000Y-5920000D01*
X16455758Y-5716966D02*
X16495758Y-5756966D01*
X16495758Y-5716966D02*
X16455758Y-5756966D01*
X16518344Y-5413142D02*
X16558344Y-5453142D01*
X16558344Y-5413142D02*
X16518344Y-5453142D01*
X16520000Y-5523073D02*
X16560000Y-5563073D01*
X16560000Y-5523073D02*
X16520000Y-5563073D01*
X16540000Y-5631500D02*
X16580000Y-5671500D01*
X16580000Y-5631500D02*
X16540000Y-5671500D01*
X16560000Y-5200000D02*
X16600000Y-5240000D01*
X16600000Y-5200000D02*
X16560000Y-5240000D01*
X16740000Y-5892450D02*
X16780000Y-5932450D01*
X16780000Y-5892450D02*
X16740000Y-5932450D01*
X16840000Y-5880000D02*
X16880000Y-5920000D01*
X16880000Y-5880000D02*
X16840000Y-5920000D01*
X16860000Y-5340000D02*
X16900000Y-5380000D01*
X16900000Y-5340000D02*
X16860000Y-5380000D01*
X16880000Y-5620000D02*
X16920000Y-5660000D01*
X16920000Y-5620000D02*
X16880000Y-5660000D01*
X16880751Y-5725888D02*
X16920751Y-5765888D01*
X16920751Y-5725888D02*
X16880751Y-5765888D01*
X16933922Y-5414512D02*
X16973922Y-5454512D01*
X16973922Y-5414512D02*
X16933922Y-5454512D01*
X16940000Y-5523073D02*
X16980000Y-5563073D01*
X16980000Y-5523073D02*
X16940000Y-5563073D01*
X17140000Y-5900000D02*
X17180000Y-5940000D01*
X17180000Y-5900000D02*
X17140000Y-5940000D01*
X17160000Y-5207550D02*
X17200000Y-5247550D01*
X17200000Y-5207550D02*
X17160000Y-5247550D01*
X17260000Y-5340000D02*
X17300000Y-5380000D01*
X17300000Y-5340000D02*
X17260000Y-5380000D01*
X17260000Y-5887550D02*
X17300000Y-5927550D01*
X17300000Y-5887550D02*
X17260000Y-5927550D01*
X17300000Y-5620000D02*
X17340000Y-5660000D01*
X17340000Y-5620000D02*
X17300000Y-5660000D01*
X17304606Y-5726591D02*
X17344606Y-5766591D01*
X17344606Y-5726591D02*
X17304606Y-5766591D01*
X17340000Y-5412500D02*
X17380000Y-5452500D01*
X17380000Y-5412500D02*
X17340000Y-5452500D01*
X17340000Y-5523073D02*
X17380000Y-5563073D01*
X17380000Y-5523073D02*
X17340000Y-5563073D01*
X17420000Y-5972450D02*
X17460000Y-6012450D01*
X17460000Y-5972450D02*
X17420000Y-6012450D01*
X17566250Y-5206250D02*
X17606250Y-5246250D01*
X17606250Y-5206250D02*
X17566250Y-5246250D01*
X17580000Y-5900000D02*
X17620000Y-5940000D01*
X17620000Y-5900000D02*
X17580000Y-5940000D01*
X17680000Y-5280000D02*
X17720000Y-5320000D01*
X17720000Y-5280000D02*
X17680000Y-5320000D01*
X17680000Y-5887550D02*
X17720000Y-5927550D01*
X17720000Y-5887550D02*
X17680000Y-5927550D01*
X17720000Y-5700000D02*
X17760000Y-5740000D01*
X17760000Y-5700000D02*
X17720000Y-5740000D01*
X17738770Y-5601230D02*
X17778770Y-5641230D01*
X17778770Y-5601230D02*
X17738770Y-5641230D01*
X17740000Y-5500000D02*
X17780000Y-5540000D01*
X17780000Y-5500000D02*
X17740000Y-5540000D01*
X17759675Y-5400278D02*
X17799675Y-5440278D01*
X17799675Y-5400278D02*
X17759675Y-5440278D01*
X17960000Y-5207550D02*
X18000000Y-5247550D01*
X18000000Y-5207550D02*
X17960000Y-5247550D01*
X17982581Y-5902550D02*
X18022581Y-5942550D01*
X18022581Y-5902550D02*
X17982581Y-5942550D01*
X18082497Y-5899935D02*
X18122497Y-5939935D01*
X18122497Y-5899935D02*
X18082497Y-5939935D01*
X18100000Y-5300000D02*
X18140000Y-5340000D01*
X18140000Y-5300000D02*
X18100000Y-5340000D01*
X18120000Y-5560000D02*
X18160000Y-5600000D01*
X18160000Y-5560000D02*
X18120000Y-5600000D01*
X18120000Y-5720000D02*
X18160000Y-5760000D01*
X18160000Y-5720000D02*
X18120000Y-5760000D01*
X14450000Y-6160000D02*
G75*
G02*
X14450000Y-6160000I-50000J0D01*
G01*
X14704000Y-6160000D02*
G75*
G02*
X14704000Y-6160000I-50000J0D01*
G01*
X14958000Y-6160000D02*
G75*
G02*
X14958000Y-6160000I-50000J0D01*
G01*
X14960000Y-5060000D02*
G75*
G02*
X14960000Y-5060000I-50000J0D01*
G01*
X15212000Y-6160000D02*
G75*
G02*
X15212000Y-6160000I-50000J0D01*
G01*
X15214000Y-5060000D02*
G75*
G02*
X15214000Y-5060000I-50000J0D01*
G01*
X15466000Y-6160000D02*
G75*
G02*
X15466000Y-6160000I-50000J0D01*
G01*
X15468000Y-5060000D02*
G75*
G02*
X15468000Y-5060000I-50000J0D01*
G01*
X15720000Y-6160000D02*
G75*
G02*
X15720000Y-6160000I-50000J0D01*
G01*
X15722000Y-5060000D02*
G75*
G02*
X15722000Y-5060000I-50000J0D01*
G01*
X15974000Y-6160000D02*
G75*
G02*
X15974000Y-6160000I-50000J0D01*
G01*
X15976000Y-5060000D02*
G75*
G02*
X15976000Y-5060000I-50000J0D01*
G01*
X16228000Y-6160000D02*
G75*
G02*
X16228000Y-6160000I-50000J0D01*
G01*
X16230000Y-5060000D02*
G75*
G02*
X16230000Y-5060000I-50000J0D01*
G01*
X16482000Y-6160000D02*
G75*
G02*
X16482000Y-6160000I-50000J0D01*
G01*
X16484000Y-5060000D02*
G75*
G02*
X16484000Y-5060000I-50000J0D01*
G01*
X16736000Y-6160000D02*
G75*
G02*
X16736000Y-6160000I-50000J0D01*
G01*
X16738000Y-5060000D02*
G75*
G02*
X16738000Y-5060000I-50000J0D01*
G01*
X16990000Y-6160000D02*
G75*
G02*
X16990000Y-6160000I-50000J0D01*
G01*
X17244000Y-6160000D02*
G75*
G02*
X17244000Y-6160000I-50000J0D01*
G01*
D11*
X13348596Y-6476484D02*
X13348596Y-6276484D01*
X13348596Y-6276484D02*
X13396215Y-6276484D01*
X13396215Y-6276484D02*
X13424787Y-6286008D01*
X13424787Y-6286008D02*
X13443834Y-6305055D01*
X13443834Y-6305055D02*
X13453358Y-6324103D01*
X13453358Y-6324103D02*
X13462882Y-6362198D01*
X13462882Y-6362198D02*
X13462882Y-6390769D01*
X13462882Y-6390769D02*
X13453358Y-6428865D01*
X13453358Y-6428865D02*
X13443834Y-6447912D01*
X13443834Y-6447912D02*
X13424787Y-6466960D01*
X13424787Y-6466960D02*
X13396215Y-6476484D01*
X13396215Y-6476484D02*
X13348596Y-6476484D01*
X13548596Y-6476484D02*
X13548596Y-6343150D01*
X13548596Y-6381246D02*
X13558120Y-6362198D01*
X13558120Y-6362198D02*
X13567644Y-6352674D01*
X13567644Y-6352674D02*
X13586692Y-6343150D01*
X13586692Y-6343150D02*
X13605739Y-6343150D01*
X13672406Y-6476484D02*
X13672406Y-6343150D01*
X13672406Y-6276484D02*
X13662882Y-6286008D01*
X13662882Y-6286008D02*
X13672406Y-6295531D01*
X13672406Y-6295531D02*
X13681930Y-6286008D01*
X13681930Y-6286008D02*
X13672406Y-6276484D01*
X13672406Y-6276484D02*
X13672406Y-6295531D01*
X13796215Y-6476484D02*
X13777168Y-6466960D01*
X13777168Y-6466960D02*
X13767644Y-6447912D01*
X13767644Y-6447912D02*
X13767644Y-6276484D01*
X13900977Y-6476484D02*
X13881930Y-6466960D01*
X13881930Y-6466960D02*
X13872406Y-6447912D01*
X13872406Y-6447912D02*
X13872406Y-6276484D01*
X14129549Y-6476484D02*
X14129549Y-6276484D01*
X14129549Y-6276484D02*
X14196215Y-6419341D01*
X14196215Y-6419341D02*
X14262882Y-6276484D01*
X14262882Y-6276484D02*
X14262882Y-6476484D01*
X14443834Y-6476484D02*
X14443834Y-6371722D01*
X14443834Y-6371722D02*
X14434311Y-6352674D01*
X14434311Y-6352674D02*
X14415263Y-6343150D01*
X14415263Y-6343150D02*
X14377168Y-6343150D01*
X14377168Y-6343150D02*
X14358120Y-6352674D01*
X14443834Y-6466960D02*
X14424787Y-6476484D01*
X14424787Y-6476484D02*
X14377168Y-6476484D01*
X14377168Y-6476484D02*
X14358120Y-6466960D01*
X14358120Y-6466960D02*
X14348596Y-6447912D01*
X14348596Y-6447912D02*
X14348596Y-6428865D01*
X14348596Y-6428865D02*
X14358120Y-6409817D01*
X14358120Y-6409817D02*
X14377168Y-6400293D01*
X14377168Y-6400293D02*
X14424787Y-6400293D01*
X14424787Y-6400293D02*
X14443834Y-6390769D01*
X14539073Y-6343150D02*
X14539073Y-6543150D01*
X14539073Y-6352674D02*
X14558120Y-6343150D01*
X14558120Y-6343150D02*
X14596215Y-6343150D01*
X14596215Y-6343150D02*
X14615263Y-6352674D01*
X14615263Y-6352674D02*
X14624787Y-6362198D01*
X14624787Y-6362198D02*
X14634311Y-6381246D01*
X14634311Y-6381246D02*
X14634311Y-6438388D01*
X14634311Y-6438388D02*
X14624787Y-6457436D01*
X14624787Y-6457436D02*
X14615263Y-6466960D01*
X14615263Y-6466960D02*
X14596215Y-6476484D01*
X14596215Y-6476484D02*
X14558120Y-6476484D01*
X14558120Y-6476484D02*
X14539073Y-6466960D01*
X14720025Y-6457436D02*
X14729549Y-6466960D01*
X14729549Y-6466960D02*
X14720025Y-6476484D01*
X14720025Y-6476484D02*
X14710501Y-6466960D01*
X14710501Y-6466960D02*
X14720025Y-6457436D01*
X14720025Y-6457436D02*
X14720025Y-6476484D01*
X14720025Y-6352674D02*
X14729549Y-6362198D01*
X14729549Y-6362198D02*
X14720025Y-6371722D01*
X14720025Y-6371722D02*
X14710501Y-6362198D01*
X14710501Y-6362198D02*
X14720025Y-6352674D01*
X14720025Y-6352674D02*
X14720025Y-6371722D01*
D10*
X13047820Y-6785000D02*
X13087820Y-6825000D01*
X13087820Y-6785000D02*
X13047820Y-6825000D01*
D11*
X13386692Y-6696484D02*
X13405739Y-6696484D01*
X13405739Y-6696484D02*
X13424787Y-6706008D01*
X13424787Y-6706008D02*
X13434311Y-6715531D01*
X13434311Y-6715531D02*
X13443834Y-6734579D01*
X13443834Y-6734579D02*
X13453358Y-6772674D01*
X13453358Y-6772674D02*
X13453358Y-6820293D01*
X13453358Y-6820293D02*
X13443834Y-6858388D01*
X13443834Y-6858388D02*
X13434311Y-6877436D01*
X13434311Y-6877436D02*
X13424787Y-6886960D01*
X13424787Y-6886960D02*
X13405739Y-6896484D01*
X13405739Y-6896484D02*
X13386692Y-6896484D01*
X13386692Y-6896484D02*
X13367644Y-6886960D01*
X13367644Y-6886960D02*
X13358120Y-6877436D01*
X13358120Y-6877436D02*
X13348596Y-6858388D01*
X13348596Y-6858388D02*
X13339073Y-6820293D01*
X13339073Y-6820293D02*
X13339073Y-6772674D01*
X13339073Y-6772674D02*
X13348596Y-6734579D01*
X13348596Y-6734579D02*
X13358120Y-6715531D01*
X13358120Y-6715531D02*
X13367644Y-6706008D01*
X13367644Y-6706008D02*
X13386692Y-6696484D01*
X13539073Y-6877436D02*
X13548596Y-6886960D01*
X13548596Y-6886960D02*
X13539073Y-6896484D01*
X13539073Y-6896484D02*
X13529549Y-6886960D01*
X13529549Y-6886960D02*
X13539073Y-6877436D01*
X13539073Y-6877436D02*
X13539073Y-6896484D01*
X13720025Y-6763150D02*
X13720025Y-6896484D01*
X13672406Y-6686960D02*
X13624787Y-6829817D01*
X13624787Y-6829817D02*
X13748596Y-6829817D01*
X13862882Y-6696484D02*
X13881930Y-6696484D01*
X13881930Y-6696484D02*
X13900977Y-6706008D01*
X13900977Y-6706008D02*
X13910501Y-6715531D01*
X13910501Y-6715531D02*
X13920025Y-6734579D01*
X13920025Y-6734579D02*
X13929549Y-6772674D01*
X13929549Y-6772674D02*
X13929549Y-6820293D01*
X13929549Y-6820293D02*
X13920025Y-6858388D01*
X13920025Y-6858388D02*
X13910501Y-6877436D01*
X13910501Y-6877436D02*
X13900977Y-6886960D01*
X13900977Y-6886960D02*
X13881930Y-6896484D01*
X13881930Y-6896484D02*
X13862882Y-6896484D01*
X13862882Y-6896484D02*
X13843834Y-6886960D01*
X13843834Y-6886960D02*
X13834311Y-6877436D01*
X13834311Y-6877436D02*
X13824787Y-6858388D01*
X13824787Y-6858388D02*
X13815263Y-6820293D01*
X13815263Y-6820293D02*
X13815263Y-6772674D01*
X13815263Y-6772674D02*
X13824787Y-6734579D01*
X13824787Y-6734579D02*
X13834311Y-6715531D01*
X13834311Y-6715531D02*
X13843834Y-6706008D01*
X13843834Y-6706008D02*
X13862882Y-6696484D01*
X14053358Y-6696484D02*
X14072406Y-6696484D01*
X14072406Y-6696484D02*
X14091454Y-6706008D01*
X14091454Y-6706008D02*
X14100977Y-6715531D01*
X14100977Y-6715531D02*
X14110501Y-6734579D01*
X14110501Y-6734579D02*
X14120025Y-6772674D01*
X14120025Y-6772674D02*
X14120025Y-6820293D01*
X14120025Y-6820293D02*
X14110501Y-6858388D01*
X14110501Y-6858388D02*
X14100977Y-6877436D01*
X14100977Y-6877436D02*
X14091454Y-6886960D01*
X14091454Y-6886960D02*
X14072406Y-6896484D01*
X14072406Y-6896484D02*
X14053358Y-6896484D01*
X14053358Y-6896484D02*
X14034311Y-6886960D01*
X14034311Y-6886960D02*
X14024787Y-6877436D01*
X14024787Y-6877436D02*
X14015263Y-6858388D01*
X14015263Y-6858388D02*
X14005739Y-6820293D01*
X14005739Y-6820293D02*
X14005739Y-6772674D01*
X14005739Y-6772674D02*
X14015263Y-6734579D01*
X14015263Y-6734579D02*
X14024787Y-6715531D01*
X14024787Y-6715531D02*
X14034311Y-6706008D01*
X14034311Y-6706008D02*
X14053358Y-6696484D01*
X14205739Y-6896484D02*
X14205739Y-6763150D01*
X14205739Y-6782198D02*
X14215263Y-6772674D01*
X14215263Y-6772674D02*
X14234311Y-6763150D01*
X14234311Y-6763150D02*
X14262882Y-6763150D01*
X14262882Y-6763150D02*
X14281930Y-6772674D01*
X14281930Y-6772674D02*
X14291454Y-6791722D01*
X14291454Y-6791722D02*
X14291454Y-6896484D01*
X14291454Y-6791722D02*
X14300977Y-6772674D01*
X14300977Y-6772674D02*
X14320025Y-6763150D01*
X14320025Y-6763150D02*
X14348596Y-6763150D01*
X14348596Y-6763150D02*
X14367644Y-6772674D01*
X14367644Y-6772674D02*
X14377168Y-6791722D01*
X14377168Y-6791722D02*
X14377168Y-6896484D01*
X14472406Y-6896484D02*
X14472406Y-6763150D01*
X14472406Y-6782198D02*
X14481930Y-6772674D01*
X14481930Y-6772674D02*
X14500977Y-6763150D01*
X14500977Y-6763150D02*
X14529549Y-6763150D01*
X14529549Y-6763150D02*
X14548596Y-6772674D01*
X14548596Y-6772674D02*
X14558120Y-6791722D01*
X14558120Y-6791722D02*
X14558120Y-6896484D01*
X14558120Y-6791722D02*
X14567644Y-6772674D01*
X14567644Y-6772674D02*
X14586692Y-6763150D01*
X14586692Y-6763150D02*
X14615263Y-6763150D01*
X14615263Y-6763150D02*
X14634311Y-6772674D01*
X14634311Y-6772674D02*
X14643835Y-6791722D01*
X14643835Y-6791722D02*
X14643835Y-6896484D01*
X15034311Y-6686960D02*
X14862882Y-6944103D01*
X15291454Y-6696484D02*
X15310501Y-6696484D01*
X15310501Y-6696484D02*
X15329549Y-6706008D01*
X15329549Y-6706008D02*
X15339073Y-6715531D01*
X15339073Y-6715531D02*
X15348597Y-6734579D01*
X15348597Y-6734579D02*
X15358120Y-6772674D01*
X15358120Y-6772674D02*
X15358120Y-6820293D01*
X15358120Y-6820293D02*
X15348597Y-6858388D01*
X15348597Y-6858388D02*
X15339073Y-6877436D01*
X15339073Y-6877436D02*
X15329549Y-6886960D01*
X15329549Y-6886960D02*
X15310501Y-6896484D01*
X15310501Y-6896484D02*
X15291454Y-6896484D01*
X15291454Y-6896484D02*
X15272406Y-6886960D01*
X15272406Y-6886960D02*
X15262882Y-6877436D01*
X15262882Y-6877436D02*
X15253358Y-6858388D01*
X15253358Y-6858388D02*
X15243835Y-6820293D01*
X15243835Y-6820293D02*
X15243835Y-6772674D01*
X15243835Y-6772674D02*
X15253358Y-6734579D01*
X15253358Y-6734579D02*
X15262882Y-6715531D01*
X15262882Y-6715531D02*
X15272406Y-6706008D01*
X15272406Y-6706008D02*
X15291454Y-6696484D01*
X15443835Y-6877436D02*
X15453358Y-6886960D01*
X15453358Y-6886960D02*
X15443835Y-6896484D01*
X15443835Y-6896484D02*
X15434311Y-6886960D01*
X15434311Y-6886960D02*
X15443835Y-6877436D01*
X15443835Y-6877436D02*
X15443835Y-6896484D01*
X15577168Y-6696484D02*
X15596216Y-6696484D01*
X15596216Y-6696484D02*
X15615263Y-6706008D01*
X15615263Y-6706008D02*
X15624787Y-6715531D01*
X15624787Y-6715531D02*
X15634311Y-6734579D01*
X15634311Y-6734579D02*
X15643835Y-6772674D01*
X15643835Y-6772674D02*
X15643835Y-6820293D01*
X15643835Y-6820293D02*
X15634311Y-6858388D01*
X15634311Y-6858388D02*
X15624787Y-6877436D01*
X15624787Y-6877436D02*
X15615263Y-6886960D01*
X15615263Y-6886960D02*
X15596216Y-6896484D01*
X15596216Y-6896484D02*
X15577168Y-6896484D01*
X15577168Y-6896484D02*
X15558120Y-6886960D01*
X15558120Y-6886960D02*
X15548597Y-6877436D01*
X15548597Y-6877436D02*
X15539073Y-6858388D01*
X15539073Y-6858388D02*
X15529549Y-6820293D01*
X15529549Y-6820293D02*
X15529549Y-6772674D01*
X15529549Y-6772674D02*
X15539073Y-6734579D01*
X15539073Y-6734579D02*
X15548597Y-6715531D01*
X15548597Y-6715531D02*
X15558120Y-6706008D01*
X15558120Y-6706008D02*
X15577168Y-6696484D01*
X15834311Y-6896484D02*
X15720025Y-6896484D01*
X15777168Y-6896484D02*
X15777168Y-6696484D01*
X15777168Y-6696484D02*
X15758120Y-6725055D01*
X15758120Y-6725055D02*
X15739073Y-6744103D01*
X15739073Y-6744103D02*
X15720025Y-6753627D01*
X16015263Y-6696484D02*
X15920025Y-6696484D01*
X15920025Y-6696484D02*
X15910501Y-6791722D01*
X15910501Y-6791722D02*
X15920025Y-6782198D01*
X15920025Y-6782198D02*
X15939073Y-6772674D01*
X15939073Y-6772674D02*
X15986692Y-6772674D01*
X15986692Y-6772674D02*
X16005739Y-6782198D01*
X16005739Y-6782198D02*
X16015263Y-6791722D01*
X16015263Y-6791722D02*
X16024787Y-6810769D01*
X16024787Y-6810769D02*
X16024787Y-6858388D01*
X16024787Y-6858388D02*
X16015263Y-6877436D01*
X16015263Y-6877436D02*
X16005739Y-6886960D01*
X16005739Y-6886960D02*
X15986692Y-6896484D01*
X15986692Y-6896484D02*
X15939073Y-6896484D01*
X15939073Y-6896484D02*
X15920025Y-6886960D01*
X15920025Y-6886960D02*
X15910501Y-6877436D01*
X16091454Y-6696484D02*
X16224787Y-6696484D01*
X16224787Y-6696484D02*
X16139073Y-6896484D01*
X16291454Y-6696484D02*
X16291454Y-6734579D01*
X16367644Y-6696484D02*
X16367644Y-6734579D01*
X16662882Y-6972674D02*
X16653359Y-6963150D01*
X16653359Y-6963150D02*
X16634311Y-6934579D01*
X16634311Y-6934579D02*
X16624787Y-6915531D01*
X16624787Y-6915531D02*
X16615263Y-6886960D01*
X16615263Y-6886960D02*
X16605740Y-6839341D01*
X16605740Y-6839341D02*
X16605740Y-6801246D01*
X16605740Y-6801246D02*
X16615263Y-6753627D01*
X16615263Y-6753627D02*
X16624787Y-6725055D01*
X16624787Y-6725055D02*
X16634311Y-6706008D01*
X16634311Y-6706008D02*
X16653359Y-6677436D01*
X16653359Y-6677436D02*
X16662882Y-6667912D01*
X16843835Y-6896484D02*
X16729549Y-6896484D01*
X16786692Y-6896484D02*
X16786692Y-6696484D01*
X16786692Y-6696484D02*
X16767644Y-6725055D01*
X16767644Y-6725055D02*
X16748597Y-6744103D01*
X16748597Y-6744103D02*
X16729549Y-6753627D01*
X16967644Y-6696484D02*
X16986692Y-6696484D01*
X16986692Y-6696484D02*
X17005740Y-6706008D01*
X17005740Y-6706008D02*
X17015263Y-6715531D01*
X17015263Y-6715531D02*
X17024787Y-6734579D01*
X17024787Y-6734579D02*
X17034311Y-6772674D01*
X17034311Y-6772674D02*
X17034311Y-6820293D01*
X17034311Y-6820293D02*
X17024787Y-6858388D01*
X17024787Y-6858388D02*
X17015263Y-6877436D01*
X17015263Y-6877436D02*
X17005740Y-6886960D01*
X17005740Y-6886960D02*
X16986692Y-6896484D01*
X16986692Y-6896484D02*
X16967644Y-6896484D01*
X16967644Y-6896484D02*
X16948597Y-6886960D01*
X16948597Y-6886960D02*
X16939073Y-6877436D01*
X16939073Y-6877436D02*
X16929549Y-6858388D01*
X16929549Y-6858388D02*
X16920025Y-6820293D01*
X16920025Y-6820293D02*
X16920025Y-6772674D01*
X16920025Y-6772674D02*
X16929549Y-6734579D01*
X16929549Y-6734579D02*
X16939073Y-6715531D01*
X16939073Y-6715531D02*
X16948597Y-6706008D01*
X16948597Y-6706008D02*
X16967644Y-6696484D01*
X17158121Y-6696484D02*
X17177168Y-6696484D01*
X17177168Y-6696484D02*
X17196216Y-6706008D01*
X17196216Y-6706008D02*
X17205740Y-6715531D01*
X17205740Y-6715531D02*
X17215263Y-6734579D01*
X17215263Y-6734579D02*
X17224787Y-6772674D01*
X17224787Y-6772674D02*
X17224787Y-6820293D01*
X17224787Y-6820293D02*
X17215263Y-6858388D01*
X17215263Y-6858388D02*
X17205740Y-6877436D01*
X17205740Y-6877436D02*
X17196216Y-6886960D01*
X17196216Y-6886960D02*
X17177168Y-6896484D01*
X17177168Y-6896484D02*
X17158121Y-6896484D01*
X17158121Y-6896484D02*
X17139073Y-6886960D01*
X17139073Y-6886960D02*
X17129549Y-6877436D01*
X17129549Y-6877436D02*
X17120025Y-6858388D01*
X17120025Y-6858388D02*
X17110502Y-6820293D01*
X17110502Y-6820293D02*
X17110502Y-6772674D01*
X17110502Y-6772674D02*
X17120025Y-6734579D01*
X17120025Y-6734579D02*
X17129549Y-6715531D01*
X17129549Y-6715531D02*
X17139073Y-6706008D01*
X17139073Y-6706008D02*
X17158121Y-6696484D01*
X17462883Y-6896484D02*
X17462883Y-6696484D01*
X17548597Y-6896484D02*
X17548597Y-6791722D01*
X17548597Y-6791722D02*
X17539073Y-6772674D01*
X17539073Y-6772674D02*
X17520025Y-6763150D01*
X17520025Y-6763150D02*
X17491454Y-6763150D01*
X17491454Y-6763150D02*
X17472406Y-6772674D01*
X17472406Y-6772674D02*
X17462883Y-6782198D01*
X17672406Y-6896484D02*
X17653359Y-6886960D01*
X17653359Y-6886960D02*
X17643835Y-6877436D01*
X17643835Y-6877436D02*
X17634311Y-6858388D01*
X17634311Y-6858388D02*
X17634311Y-6801246D01*
X17634311Y-6801246D02*
X17643835Y-6782198D01*
X17643835Y-6782198D02*
X17653359Y-6772674D01*
X17653359Y-6772674D02*
X17672406Y-6763150D01*
X17672406Y-6763150D02*
X17700978Y-6763150D01*
X17700978Y-6763150D02*
X17720025Y-6772674D01*
X17720025Y-6772674D02*
X17729549Y-6782198D01*
X17729549Y-6782198D02*
X17739073Y-6801246D01*
X17739073Y-6801246D02*
X17739073Y-6858388D01*
X17739073Y-6858388D02*
X17729549Y-6877436D01*
X17729549Y-6877436D02*
X17720025Y-6886960D01*
X17720025Y-6886960D02*
X17700978Y-6896484D01*
X17700978Y-6896484D02*
X17672406Y-6896484D01*
X17853359Y-6896484D02*
X17834311Y-6886960D01*
X17834311Y-6886960D02*
X17824787Y-6867912D01*
X17824787Y-6867912D02*
X17824787Y-6696484D01*
X18005740Y-6886960D02*
X17986692Y-6896484D01*
X17986692Y-6896484D02*
X17948597Y-6896484D01*
X17948597Y-6896484D02*
X17929549Y-6886960D01*
X17929549Y-6886960D02*
X17920025Y-6867912D01*
X17920025Y-6867912D02*
X17920025Y-6791722D01*
X17920025Y-6791722D02*
X17929549Y-6772674D01*
X17929549Y-6772674D02*
X17948597Y-6763150D01*
X17948597Y-6763150D02*
X17986692Y-6763150D01*
X17986692Y-6763150D02*
X18005740Y-6772674D01*
X18005740Y-6772674D02*
X18015264Y-6791722D01*
X18015264Y-6791722D02*
X18015264Y-6810769D01*
X18015264Y-6810769D02*
X17920025Y-6829817D01*
X18091454Y-6886960D02*
X18110502Y-6896484D01*
X18110502Y-6896484D02*
X18148597Y-6896484D01*
X18148597Y-6896484D02*
X18167645Y-6886960D01*
X18167645Y-6886960D02*
X18177168Y-6867912D01*
X18177168Y-6867912D02*
X18177168Y-6858388D01*
X18177168Y-6858388D02*
X18167645Y-6839341D01*
X18167645Y-6839341D02*
X18148597Y-6829817D01*
X18148597Y-6829817D02*
X18120025Y-6829817D01*
X18120025Y-6829817D02*
X18100978Y-6820293D01*
X18100978Y-6820293D02*
X18091454Y-6801246D01*
X18091454Y-6801246D02*
X18091454Y-6791722D01*
X18091454Y-6791722D02*
X18100978Y-6772674D01*
X18100978Y-6772674D02*
X18120025Y-6763150D01*
X18120025Y-6763150D02*
X18148597Y-6763150D01*
X18148597Y-6763150D02*
X18167645Y-6772674D01*
X18243835Y-6972674D02*
X18253359Y-6963150D01*
X18253359Y-6963150D02*
X18272406Y-6934579D01*
X18272406Y-6934579D02*
X18281930Y-6915531D01*
X18281930Y-6915531D02*
X18291454Y-6886960D01*
X18291454Y-6886960D02*
X18300978Y-6839341D01*
X18300978Y-6839341D02*
X18300978Y-6801246D01*
X18300978Y-6801246D02*
X18291454Y-6753627D01*
X18291454Y-6753627D02*
X18281930Y-6725055D01*
X18281930Y-6725055D02*
X18272406Y-6706008D01*
X18272406Y-6706008D02*
X18253359Y-6677436D01*
X18253359Y-6677436D02*
X18243835Y-6667912D01*
D10*
X13087820Y-7069000D02*
G75*
G02*
X13087820Y-7069000I-50000J0D01*
G01*
D11*
X13453358Y-7160484D02*
X13339073Y-7160484D01*
X13396215Y-7160484D02*
X13396215Y-6960484D01*
X13396215Y-6960484D02*
X13377168Y-6989055D01*
X13377168Y-6989055D02*
X13358120Y-7008103D01*
X13358120Y-7008103D02*
X13339073Y-7017627D01*
X13539073Y-7141436D02*
X13548596Y-7150960D01*
X13548596Y-7150960D02*
X13539073Y-7160484D01*
X13539073Y-7160484D02*
X13529549Y-7150960D01*
X13529549Y-7150960D02*
X13539073Y-7141436D01*
X13539073Y-7141436D02*
X13539073Y-7160484D01*
X13672406Y-6960484D02*
X13691454Y-6960484D01*
X13691454Y-6960484D02*
X13710501Y-6970008D01*
X13710501Y-6970008D02*
X13720025Y-6979531D01*
X13720025Y-6979531D02*
X13729549Y-6998579D01*
X13729549Y-6998579D02*
X13739073Y-7036674D01*
X13739073Y-7036674D02*
X13739073Y-7084293D01*
X13739073Y-7084293D02*
X13729549Y-7122388D01*
X13729549Y-7122388D02*
X13720025Y-7141436D01*
X13720025Y-7141436D02*
X13710501Y-7150960D01*
X13710501Y-7150960D02*
X13691454Y-7160484D01*
X13691454Y-7160484D02*
X13672406Y-7160484D01*
X13672406Y-7160484D02*
X13653358Y-7150960D01*
X13653358Y-7150960D02*
X13643834Y-7141436D01*
X13643834Y-7141436D02*
X13634311Y-7122388D01*
X13634311Y-7122388D02*
X13624787Y-7084293D01*
X13624787Y-7084293D02*
X13624787Y-7036674D01*
X13624787Y-7036674D02*
X13634311Y-6998579D01*
X13634311Y-6998579D02*
X13643834Y-6979531D01*
X13643834Y-6979531D02*
X13653358Y-6970008D01*
X13653358Y-6970008D02*
X13672406Y-6960484D01*
X13862882Y-6960484D02*
X13881930Y-6960484D01*
X13881930Y-6960484D02*
X13900977Y-6970008D01*
X13900977Y-6970008D02*
X13910501Y-6979531D01*
X13910501Y-6979531D02*
X13920025Y-6998579D01*
X13920025Y-6998579D02*
X13929549Y-7036674D01*
X13929549Y-7036674D02*
X13929549Y-7084293D01*
X13929549Y-7084293D02*
X13920025Y-7122388D01*
X13920025Y-7122388D02*
X13910501Y-7141436D01*
X13910501Y-7141436D02*
X13900977Y-7150960D01*
X13900977Y-7150960D02*
X13881930Y-7160484D01*
X13881930Y-7160484D02*
X13862882Y-7160484D01*
X13862882Y-7160484D02*
X13843834Y-7150960D01*
X13843834Y-7150960D02*
X13834311Y-7141436D01*
X13834311Y-7141436D02*
X13824787Y-7122388D01*
X13824787Y-7122388D02*
X13815263Y-7084293D01*
X13815263Y-7084293D02*
X13815263Y-7036674D01*
X13815263Y-7036674D02*
X13824787Y-6998579D01*
X13824787Y-6998579D02*
X13834311Y-6979531D01*
X13834311Y-6979531D02*
X13843834Y-6970008D01*
X13843834Y-6970008D02*
X13862882Y-6960484D01*
X14053358Y-6960484D02*
X14072406Y-6960484D01*
X14072406Y-6960484D02*
X14091454Y-6970008D01*
X14091454Y-6970008D02*
X14100977Y-6979531D01*
X14100977Y-6979531D02*
X14110501Y-6998579D01*
X14110501Y-6998579D02*
X14120025Y-7036674D01*
X14120025Y-7036674D02*
X14120025Y-7084293D01*
X14120025Y-7084293D02*
X14110501Y-7122388D01*
X14110501Y-7122388D02*
X14100977Y-7141436D01*
X14100977Y-7141436D02*
X14091454Y-7150960D01*
X14091454Y-7150960D02*
X14072406Y-7160484D01*
X14072406Y-7160484D02*
X14053358Y-7160484D01*
X14053358Y-7160484D02*
X14034311Y-7150960D01*
X14034311Y-7150960D02*
X14024787Y-7141436D01*
X14024787Y-7141436D02*
X14015263Y-7122388D01*
X14015263Y-7122388D02*
X14005739Y-7084293D01*
X14005739Y-7084293D02*
X14005739Y-7036674D01*
X14005739Y-7036674D02*
X14015263Y-6998579D01*
X14015263Y-6998579D02*
X14024787Y-6979531D01*
X14024787Y-6979531D02*
X14034311Y-6970008D01*
X14034311Y-6970008D02*
X14053358Y-6960484D01*
X14205739Y-7160484D02*
X14205739Y-7027150D01*
X14205739Y-7046198D02*
X14215263Y-7036674D01*
X14215263Y-7036674D02*
X14234311Y-7027150D01*
X14234311Y-7027150D02*
X14262882Y-7027150D01*
X14262882Y-7027150D02*
X14281930Y-7036674D01*
X14281930Y-7036674D02*
X14291454Y-7055722D01*
X14291454Y-7055722D02*
X14291454Y-7160484D01*
X14291454Y-7055722D02*
X14300977Y-7036674D01*
X14300977Y-7036674D02*
X14320025Y-7027150D01*
X14320025Y-7027150D02*
X14348596Y-7027150D01*
X14348596Y-7027150D02*
X14367644Y-7036674D01*
X14367644Y-7036674D02*
X14377168Y-7055722D01*
X14377168Y-7055722D02*
X14377168Y-7160484D01*
X14472406Y-7160484D02*
X14472406Y-7027150D01*
X14472406Y-7046198D02*
X14481930Y-7036674D01*
X14481930Y-7036674D02*
X14500977Y-7027150D01*
X14500977Y-7027150D02*
X14529549Y-7027150D01*
X14529549Y-7027150D02*
X14548596Y-7036674D01*
X14548596Y-7036674D02*
X14558120Y-7055722D01*
X14558120Y-7055722D02*
X14558120Y-7160484D01*
X14558120Y-7055722D02*
X14567644Y-7036674D01*
X14567644Y-7036674D02*
X14586692Y-7027150D01*
X14586692Y-7027150D02*
X14615263Y-7027150D01*
X14615263Y-7027150D02*
X14634311Y-7036674D01*
X14634311Y-7036674D02*
X14643835Y-7055722D01*
X14643835Y-7055722D02*
X14643835Y-7160484D01*
X15034311Y-6950960D02*
X14862882Y-7208103D01*
X15291454Y-6960484D02*
X15310501Y-6960484D01*
X15310501Y-6960484D02*
X15329549Y-6970008D01*
X15329549Y-6970008D02*
X15339073Y-6979531D01*
X15339073Y-6979531D02*
X15348597Y-6998579D01*
X15348597Y-6998579D02*
X15358120Y-7036674D01*
X15358120Y-7036674D02*
X15358120Y-7084293D01*
X15358120Y-7084293D02*
X15348597Y-7122388D01*
X15348597Y-7122388D02*
X15339073Y-7141436D01*
X15339073Y-7141436D02*
X15329549Y-7150960D01*
X15329549Y-7150960D02*
X15310501Y-7160484D01*
X15310501Y-7160484D02*
X15291454Y-7160484D01*
X15291454Y-7160484D02*
X15272406Y-7150960D01*
X15272406Y-7150960D02*
X15262882Y-7141436D01*
X15262882Y-7141436D02*
X15253358Y-7122388D01*
X15253358Y-7122388D02*
X15243835Y-7084293D01*
X15243835Y-7084293D02*
X15243835Y-7036674D01*
X15243835Y-7036674D02*
X15253358Y-6998579D01*
X15253358Y-6998579D02*
X15262882Y-6979531D01*
X15262882Y-6979531D02*
X15272406Y-6970008D01*
X15272406Y-6970008D02*
X15291454Y-6960484D01*
X15443835Y-7141436D02*
X15453358Y-7150960D01*
X15453358Y-7150960D02*
X15443835Y-7160484D01*
X15443835Y-7160484D02*
X15434311Y-7150960D01*
X15434311Y-7150960D02*
X15443835Y-7141436D01*
X15443835Y-7141436D02*
X15443835Y-7160484D01*
X15577168Y-6960484D02*
X15596216Y-6960484D01*
X15596216Y-6960484D02*
X15615263Y-6970008D01*
X15615263Y-6970008D02*
X15624787Y-6979531D01*
X15624787Y-6979531D02*
X15634311Y-6998579D01*
X15634311Y-6998579D02*
X15643835Y-7036674D01*
X15643835Y-7036674D02*
X15643835Y-7084293D01*
X15643835Y-7084293D02*
X15634311Y-7122388D01*
X15634311Y-7122388D02*
X15624787Y-7141436D01*
X15624787Y-7141436D02*
X15615263Y-7150960D01*
X15615263Y-7150960D02*
X15596216Y-7160484D01*
X15596216Y-7160484D02*
X15577168Y-7160484D01*
X15577168Y-7160484D02*
X15558120Y-7150960D01*
X15558120Y-7150960D02*
X15548597Y-7141436D01*
X15548597Y-7141436D02*
X15539073Y-7122388D01*
X15539073Y-7122388D02*
X15529549Y-7084293D01*
X15529549Y-7084293D02*
X15529549Y-7036674D01*
X15529549Y-7036674D02*
X15539073Y-6998579D01*
X15539073Y-6998579D02*
X15548597Y-6979531D01*
X15548597Y-6979531D02*
X15558120Y-6970008D01*
X15558120Y-6970008D02*
X15577168Y-6960484D01*
X15710501Y-6960484D02*
X15834311Y-6960484D01*
X15834311Y-6960484D02*
X15767644Y-7036674D01*
X15767644Y-7036674D02*
X15796216Y-7036674D01*
X15796216Y-7036674D02*
X15815263Y-7046198D01*
X15815263Y-7046198D02*
X15824787Y-7055722D01*
X15824787Y-7055722D02*
X15834311Y-7074769D01*
X15834311Y-7074769D02*
X15834311Y-7122388D01*
X15834311Y-7122388D02*
X15824787Y-7141436D01*
X15824787Y-7141436D02*
X15815263Y-7150960D01*
X15815263Y-7150960D02*
X15796216Y-7160484D01*
X15796216Y-7160484D02*
X15739073Y-7160484D01*
X15739073Y-7160484D02*
X15720025Y-7150960D01*
X15720025Y-7150960D02*
X15710501Y-7141436D01*
X15929549Y-7160484D02*
X15967644Y-7160484D01*
X15967644Y-7160484D02*
X15986692Y-7150960D01*
X15986692Y-7150960D02*
X15996216Y-7141436D01*
X15996216Y-7141436D02*
X16015263Y-7112865D01*
X16015263Y-7112865D02*
X16024787Y-7074769D01*
X16024787Y-7074769D02*
X16024787Y-6998579D01*
X16024787Y-6998579D02*
X16015263Y-6979531D01*
X16015263Y-6979531D02*
X16005739Y-6970008D01*
X16005739Y-6970008D02*
X15986692Y-6960484D01*
X15986692Y-6960484D02*
X15948597Y-6960484D01*
X15948597Y-6960484D02*
X15929549Y-6970008D01*
X15929549Y-6970008D02*
X15920025Y-6979531D01*
X15920025Y-6979531D02*
X15910501Y-6998579D01*
X15910501Y-6998579D02*
X15910501Y-7046198D01*
X15910501Y-7046198D02*
X15920025Y-7065246D01*
X15920025Y-7065246D02*
X15929549Y-7074769D01*
X15929549Y-7074769D02*
X15948597Y-7084293D01*
X15948597Y-7084293D02*
X15986692Y-7084293D01*
X15986692Y-7084293D02*
X16005739Y-7074769D01*
X16005739Y-7074769D02*
X16015263Y-7065246D01*
X16015263Y-7065246D02*
X16024787Y-7046198D01*
X16196216Y-7027150D02*
X16196216Y-7160484D01*
X16148597Y-6950960D02*
X16100978Y-7093817D01*
X16100978Y-7093817D02*
X16224787Y-7093817D01*
X16291454Y-6960484D02*
X16291454Y-6998579D01*
X16367644Y-6960484D02*
X16367644Y-6998579D01*
X16662882Y-7236674D02*
X16653359Y-7227150D01*
X16653359Y-7227150D02*
X16634311Y-7198579D01*
X16634311Y-7198579D02*
X16624787Y-7179531D01*
X16624787Y-7179531D02*
X16615263Y-7150960D01*
X16615263Y-7150960D02*
X16605740Y-7103341D01*
X16605740Y-7103341D02*
X16605740Y-7065246D01*
X16605740Y-7065246D02*
X16615263Y-7017627D01*
X16615263Y-7017627D02*
X16624787Y-6989055D01*
X16624787Y-6989055D02*
X16634311Y-6970008D01*
X16634311Y-6970008D02*
X16653359Y-6941436D01*
X16653359Y-6941436D02*
X16662882Y-6931912D01*
X16729549Y-6979531D02*
X16739073Y-6970008D01*
X16739073Y-6970008D02*
X16758120Y-6960484D01*
X16758120Y-6960484D02*
X16805740Y-6960484D01*
X16805740Y-6960484D02*
X16824787Y-6970008D01*
X16824787Y-6970008D02*
X16834311Y-6979531D01*
X16834311Y-6979531D02*
X16843835Y-6998579D01*
X16843835Y-6998579D02*
X16843835Y-7017627D01*
X16843835Y-7017627D02*
X16834311Y-7046198D01*
X16834311Y-7046198D02*
X16720025Y-7160484D01*
X16720025Y-7160484D02*
X16843835Y-7160484D01*
X16967644Y-6960484D02*
X16986692Y-6960484D01*
X16986692Y-6960484D02*
X17005740Y-6970008D01*
X17005740Y-6970008D02*
X17015263Y-6979531D01*
X17015263Y-6979531D02*
X17024787Y-6998579D01*
X17024787Y-6998579D02*
X17034311Y-7036674D01*
X17034311Y-7036674D02*
X17034311Y-7084293D01*
X17034311Y-7084293D02*
X17024787Y-7122388D01*
X17024787Y-7122388D02*
X17015263Y-7141436D01*
X17015263Y-7141436D02*
X17005740Y-7150960D01*
X17005740Y-7150960D02*
X16986692Y-7160484D01*
X16986692Y-7160484D02*
X16967644Y-7160484D01*
X16967644Y-7160484D02*
X16948597Y-7150960D01*
X16948597Y-7150960D02*
X16939073Y-7141436D01*
X16939073Y-7141436D02*
X16929549Y-7122388D01*
X16929549Y-7122388D02*
X16920025Y-7084293D01*
X16920025Y-7084293D02*
X16920025Y-7036674D01*
X16920025Y-7036674D02*
X16929549Y-6998579D01*
X16929549Y-6998579D02*
X16939073Y-6979531D01*
X16939073Y-6979531D02*
X16948597Y-6970008D01*
X16948597Y-6970008D02*
X16967644Y-6960484D01*
X17272406Y-7160484D02*
X17272406Y-6960484D01*
X17358121Y-7160484D02*
X17358121Y-7055722D01*
X17358121Y-7055722D02*
X17348597Y-7036674D01*
X17348597Y-7036674D02*
X17329549Y-7027150D01*
X17329549Y-7027150D02*
X17300978Y-7027150D01*
X17300978Y-7027150D02*
X17281930Y-7036674D01*
X17281930Y-7036674D02*
X17272406Y-7046198D01*
X17481930Y-7160484D02*
X17462883Y-7150960D01*
X17462883Y-7150960D02*
X17453359Y-7141436D01*
X17453359Y-7141436D02*
X17443835Y-7122388D01*
X17443835Y-7122388D02*
X17443835Y-7065246D01*
X17443835Y-7065246D02*
X17453359Y-7046198D01*
X17453359Y-7046198D02*
X17462883Y-7036674D01*
X17462883Y-7036674D02*
X17481930Y-7027150D01*
X17481930Y-7027150D02*
X17510502Y-7027150D01*
X17510502Y-7027150D02*
X17529549Y-7036674D01*
X17529549Y-7036674D02*
X17539073Y-7046198D01*
X17539073Y-7046198D02*
X17548597Y-7065246D01*
X17548597Y-7065246D02*
X17548597Y-7122388D01*
X17548597Y-7122388D02*
X17539073Y-7141436D01*
X17539073Y-7141436D02*
X17529549Y-7150960D01*
X17529549Y-7150960D02*
X17510502Y-7160484D01*
X17510502Y-7160484D02*
X17481930Y-7160484D01*
X17662883Y-7160484D02*
X17643835Y-7150960D01*
X17643835Y-7150960D02*
X17634311Y-7131912D01*
X17634311Y-7131912D02*
X17634311Y-6960484D01*
X17815264Y-7150960D02*
X17796216Y-7160484D01*
X17796216Y-7160484D02*
X17758121Y-7160484D01*
X17758121Y-7160484D02*
X17739073Y-7150960D01*
X17739073Y-7150960D02*
X17729549Y-7131912D01*
X17729549Y-7131912D02*
X17729549Y-7055722D01*
X17729549Y-7055722D02*
X17739073Y-7036674D01*
X17739073Y-7036674D02*
X17758121Y-7027150D01*
X17758121Y-7027150D02*
X17796216Y-7027150D01*
X17796216Y-7027150D02*
X17815264Y-7036674D01*
X17815264Y-7036674D02*
X17824787Y-7055722D01*
X17824787Y-7055722D02*
X17824787Y-7074769D01*
X17824787Y-7074769D02*
X17729549Y-7093817D01*
X17900978Y-7150960D02*
X17920025Y-7160484D01*
X17920025Y-7160484D02*
X17958121Y-7160484D01*
X17958121Y-7160484D02*
X17977168Y-7150960D01*
X17977168Y-7150960D02*
X17986692Y-7131912D01*
X17986692Y-7131912D02*
X17986692Y-7122388D01*
X17986692Y-7122388D02*
X17977168Y-7103341D01*
X17977168Y-7103341D02*
X17958121Y-7093817D01*
X17958121Y-7093817D02*
X17929549Y-7093817D01*
X17929549Y-7093817D02*
X17910502Y-7084293D01*
X17910502Y-7084293D02*
X17900978Y-7065246D01*
X17900978Y-7065246D02*
X17900978Y-7055722D01*
X17900978Y-7055722D02*
X17910502Y-7036674D01*
X17910502Y-7036674D02*
X17929549Y-7027150D01*
X17929549Y-7027150D02*
X17958121Y-7027150D01*
X17958121Y-7027150D02*
X17977168Y-7036674D01*
X18053359Y-7236674D02*
X18062883Y-7227150D01*
X18062883Y-7227150D02*
X18081930Y-7198579D01*
X18081930Y-7198579D02*
X18091454Y-7179531D01*
X18091454Y-7179531D02*
X18100978Y-7150960D01*
X18100978Y-7150960D02*
X18110502Y-7103341D01*
X18110502Y-7103341D02*
X18110502Y-7065246D01*
X18110502Y-7065246D02*
X18100978Y-7017627D01*
X18100978Y-7017627D02*
X18091454Y-6989055D01*
X18091454Y-6989055D02*
X18081930Y-6970008D01*
X18081930Y-6970008D02*
X18062883Y-6941436D01*
X18062883Y-6941436D02*
X18053359Y-6931912D01*
M02*
