%TF.GenerationSoftware,KiCad,Pcbnew,7.99.0-3522-gc5520b3eef-dirty*%
%TF.CreationDate,2023-11-19T20:57:40+00:00*%
%TF.ProjectId,display module,64697370-6c61-4792-906d-6f64756c652e,rev?*%
%TF.SameCoordinates,Original*%
%TF.FileFunction,Copper,L2,Bot*%
%TF.FilePolarity,Positive*%
%FSLAX46Y46*%
G04 Gerber Fmt 4.6, Leading zero omitted, Abs format (unit mm)*
G04 Created by KiCad (PCBNEW 7.99.0-3522-gc5520b3eef-dirty) date 2023-11-19 20:57:40*
%MOMM*%
%LPD*%
G01*
G04 APERTURE LIST*
%TA.AperFunction,ComponentPad*%
%ADD10R,2.000000X2.000000*%
%TD*%
%TA.AperFunction,ComponentPad*%
%ADD11O,2.000000X2.000000*%
%TD*%
%TA.AperFunction,ComponentPad*%
%ADD12R,1.700000X1.700000*%
%TD*%
%TA.AperFunction,ViaPad*%
%ADD13C,0.800000*%
%TD*%
%TA.AperFunction,Conductor*%
%ADD14C,0.250000*%
%TD*%
G04 APERTURE END LIST*
D10*
%TO.P,J2,1,Pin_1*%
%TO.N,/G1*%
X144000000Y-61600000D03*
D11*
%TO.P,J2,2,Pin_2*%
%TO.N,/G2*%
X146540000Y-61600000D03*
%TO.P,J2,3,Pin_3*%
%TO.N,/G3*%
X149080000Y-61600000D03*
%TO.P,J2,4,Pin_4*%
%TO.N,/G4*%
X151620000Y-61600000D03*
%TO.P,J2,5,Pin_5*%
%TO.N,/G5*%
X154160000Y-61600000D03*
%TO.P,J2,6,Pin_6*%
%TO.N,/G6*%
X156700000Y-61600000D03*
%TO.P,J2,7,Pin_7*%
%TO.N,/G7*%
X159240000Y-61600000D03*
%TO.P,J2,8,Pin_8*%
%TO.N,/G8*%
X161780000Y-61600000D03*
%TO.P,J2,9,Pin_9*%
%TO.N,/G9*%
X164320000Y-61600000D03*
%TO.P,J2,10,Pin_10*%
%TO.N,/G10*%
X166860000Y-61600000D03*
%TO.P,J2,11,Pin_11*%
%TO.N,/G11*%
X169400000Y-61600000D03*
%TO.P,J2,12,Pin_12*%
%TO.N,/G12*%
X171940000Y-61600000D03*
%TD*%
D12*
%TO.P,J1,1,Pin_1*%
%TO.N,/D*%
X149100000Y-50600000D03*
D11*
%TO.P,J1,2,Pin_2*%
%TO.N,/E*%
X151640000Y-50600000D03*
%TO.P,J1,3,Pin_3*%
%TO.N,/G*%
X154180000Y-50600000D03*
%TO.P,J1,4,Pin_4*%
%TO.N,/F*%
X156720000Y-50600000D03*
%TO.P,J1,5,Pin_5*%
%TO.N,/A*%
X159260000Y-50600000D03*
%TO.P,J1,6,Pin_6*%
%TO.N,/B*%
X161800000Y-50600000D03*
%TO.P,J1,7,Pin_7*%
%TO.N,/C*%
X164340000Y-50600000D03*
%TO.P,J1,8,Pin_8*%
%TO.N,/DP*%
X166880000Y-50600000D03*
%TD*%
D13*
%TO.N,/F*%
X153165945Y-54636776D03*
X169539224Y-54345120D03*
X144600000Y-54325000D03*
X173600000Y-54325000D03*
X132236144Y-54375732D03*
X140400000Y-54325000D03*
X148874197Y-54656365D03*
X157196646Y-54520229D03*
X161037251Y-54370011D03*
X177796752Y-54202777D03*
X136200000Y-54325000D03*
X165383437Y-54331418D03*
%TO.N,/G*%
X153269268Y-55675500D03*
X140400000Y-55430732D03*
X161365001Y-55573729D03*
X165400000Y-55430732D03*
X156600000Y-55400497D03*
X177600000Y-55200000D03*
X144600000Y-55430732D03*
X132326032Y-55485456D03*
X173600000Y-55430732D03*
X169600000Y-55430732D03*
X148044642Y-55213899D03*
X136200000Y-55430732D03*
%TO.N,/D*%
X146800000Y-59200000D03*
X151000000Y-59200000D03*
X134400000Y-59000000D03*
X180025808Y-59225500D03*
X171600000Y-59200000D03*
X138400000Y-59200000D03*
X155000000Y-59200000D03*
X135400000Y-51475500D03*
X142547408Y-59134260D03*
X167600000Y-59124500D03*
X163400000Y-59200000D03*
X159200000Y-59200000D03*
X176000000Y-59200000D03*
%TO.N,/E*%
X156600000Y-56400000D03*
X135800000Y-56400000D03*
X173200000Y-56400000D03*
X165600000Y-56515000D03*
X148200000Y-56400000D03*
X160800000Y-56400000D03*
X177587701Y-56212299D03*
X144200000Y-56400000D03*
X132500000Y-56500000D03*
X140000000Y-56400000D03*
X169000000Y-56400000D03*
X152400000Y-56400000D03*
%TO.N,/B*%
X160400000Y-53600000D03*
X147800000Y-53000000D03*
X177000000Y-53000000D03*
X164307000Y-53208817D03*
X156007000Y-53200000D03*
X172800000Y-53600000D03*
X181200000Y-53200000D03*
X143800000Y-53600000D03*
X152019301Y-53043900D03*
X168800000Y-53600000D03*
X135400000Y-53400000D03*
X139600000Y-53600000D03*
%TO.N,/DP*%
X147800000Y-59000000D03*
X181400000Y-55800000D03*
X181024968Y-59199346D03*
X164600000Y-59000000D03*
X156200000Y-59075500D03*
X152000000Y-59000000D03*
X139600000Y-59075500D03*
X160400000Y-59075500D03*
X143600000Y-58975500D03*
X168600000Y-59000000D03*
X177000000Y-59075500D03*
X135400000Y-59075500D03*
X172800000Y-59075500D03*
%TO.N,/C*%
X135810872Y-57457205D03*
X156646060Y-57465909D03*
X152407507Y-57458882D03*
X173246060Y-57465909D03*
X177400000Y-57200000D03*
X164757585Y-57369659D03*
X139983418Y-57470229D03*
X148270441Y-57464363D03*
X169007507Y-57458882D03*
X181400000Y-57400000D03*
X160759928Y-57483473D03*
X144194032Y-57399485D03*
%TO.N,/A*%
X138600000Y-52200000D03*
X171800000Y-52275500D03*
X159262500Y-52200000D03*
X165800000Y-52200000D03*
X153600000Y-52200000D03*
X150962500Y-52200000D03*
X143000000Y-52200000D03*
X134400000Y-52200000D03*
X146812500Y-52212500D03*
X179800000Y-52275500D03*
X163400000Y-52200000D03*
X175862500Y-52262500D03*
%TO.N,/G2*%
X141200000Y-60124500D03*
%TO.N,/G11*%
X174400000Y-59924500D03*
%TD*%
D14*
%TO.N,/G11*%
X174400000Y-59924500D02*
X173675500Y-59924500D01*
X173675500Y-59924500D02*
X173400000Y-60200000D01*
X173400000Y-60200000D02*
X173337201Y-60200000D01*
X173337201Y-60200000D02*
X173287201Y-60250000D01*
X173287201Y-60250000D02*
X169850000Y-60250000D01*
X169850000Y-60250000D02*
X169400000Y-60700000D01*
X169400000Y-60700000D02*
X169400000Y-61475000D01*
%TO.N,/G2*%
X141200000Y-60124500D02*
X141325500Y-60250000D01*
X146450000Y-60250000D02*
X146540000Y-60340000D01*
X141325500Y-60250000D02*
X146450000Y-60250000D01*
X146540000Y-60340000D02*
X146540000Y-61475000D01*
%TO.N,/B*%
X152019301Y-53043900D02*
X152063201Y-53000000D01*
X152063201Y-53000000D02*
X152200000Y-53000000D01*
%TO.N,/F*%
X177674529Y-54325000D02*
X173600000Y-54325000D01*
X140400000Y-54325000D02*
X136200000Y-54325000D01*
X157391875Y-54325000D02*
X157196646Y-54520229D01*
X157196646Y-54520229D02*
X157001417Y-54325000D01*
X173600000Y-54325000D02*
X157391875Y-54325000D01*
X144600000Y-54325000D02*
X140400000Y-54325000D01*
X132236144Y-54375732D02*
X132286876Y-54325000D01*
X132286876Y-54325000D02*
X136200000Y-54325000D01*
X177796752Y-54202777D02*
X177674529Y-54325000D01*
X157001417Y-54325000D02*
X144600000Y-54325000D01*
%TO.N,/G*%
X177369268Y-55430732D02*
X177600000Y-55200000D01*
X173600000Y-55430732D02*
X177369268Y-55430732D01*
X148261475Y-55430732D02*
X148044642Y-55213899D01*
X153514036Y-55430732D02*
X153269268Y-55675500D01*
X156569765Y-55430732D02*
X153514036Y-55430732D01*
X144600000Y-55430732D02*
X147827809Y-55430732D01*
X161365001Y-55573729D02*
X161507998Y-55430732D01*
X156630235Y-55430732D02*
X161222004Y-55430732D01*
X132326032Y-55485456D02*
X132380756Y-55430732D01*
X153024500Y-55430732D02*
X148261475Y-55430732D01*
X161507998Y-55430732D02*
X165400000Y-55430732D01*
X165400000Y-55430732D02*
X169600000Y-55430732D01*
X132380756Y-55430732D02*
X136200000Y-55430732D01*
X169600000Y-55430732D02*
X173600000Y-55430732D01*
X153269268Y-55675500D02*
X153024500Y-55430732D01*
X140400000Y-55430732D02*
X144600000Y-55430732D01*
X147827809Y-55430732D02*
X148044642Y-55213899D01*
X156600000Y-55400497D02*
X156630235Y-55430732D01*
X136200000Y-55430732D02*
X140400000Y-55430732D01*
X156600000Y-55400497D02*
X156569765Y-55430732D01*
X161222004Y-55430732D02*
X161365001Y-55573729D01*
%TO.N,/D*%
X180025808Y-59574192D02*
X180025808Y-59225500D01*
X151000000Y-59800000D02*
X155000000Y-59800000D01*
X176000000Y-59200000D02*
X176000000Y-59800000D01*
X139900305Y-59800500D02*
X140300805Y-59400000D01*
X134400000Y-59000000D02*
X132400000Y-59000000D01*
X151000000Y-59200000D02*
X151000000Y-59800000D01*
X142000000Y-59400000D02*
X142400000Y-59800000D01*
X131600000Y-58200000D02*
X131511144Y-58111144D01*
X167600000Y-59124500D02*
X167600000Y-59800000D01*
X133125000Y-51475000D02*
X135399500Y-51475000D01*
X159200000Y-59800000D02*
X163400000Y-59800000D01*
X155000000Y-59800000D02*
X159200000Y-59800000D01*
X142400000Y-59800000D02*
X146800000Y-59800000D01*
X159200000Y-59200000D02*
X159200000Y-59800000D01*
X133000000Y-51600000D02*
X133125000Y-51475000D01*
X172099695Y-59800500D02*
X173100305Y-59800500D01*
X134400000Y-59800000D02*
X138400000Y-59800000D01*
X140300805Y-59400000D02*
X142000000Y-59400000D01*
X139000000Y-59800000D02*
X139000500Y-59800500D01*
X173700805Y-59200000D02*
X176000000Y-59200000D01*
X138400000Y-59800000D02*
X139000000Y-59800000D01*
X171600000Y-59200000D02*
X171600000Y-59800000D01*
X171600000Y-59800000D02*
X172099195Y-59800000D01*
X146800000Y-59200000D02*
X146800000Y-59800000D01*
X131511144Y-53088856D02*
X133000000Y-51600000D01*
X163400000Y-59200000D02*
X163400000Y-59800000D01*
X176000000Y-59800000D02*
X179800000Y-59800000D01*
X167600000Y-59800000D02*
X171600000Y-59800000D01*
X146800000Y-59800000D02*
X151000000Y-59800000D01*
X131511144Y-58111144D02*
X131511144Y-53088856D01*
X163400000Y-59800000D02*
X167600000Y-59800000D01*
X139000500Y-59800500D02*
X139900305Y-59800500D01*
X142547408Y-59652592D02*
X142400000Y-59800000D01*
X132400000Y-59000000D02*
X131600000Y-58200000D01*
X173100305Y-59800500D02*
X173700805Y-59200000D01*
X135399500Y-51475000D02*
X135400000Y-51475500D01*
X142547408Y-59134260D02*
X142547408Y-59652592D01*
X179800000Y-59800000D02*
X180025808Y-59574192D01*
X138400000Y-59200000D02*
X138400000Y-59800000D01*
X172099195Y-59800000D02*
X172099695Y-59800500D01*
X155000000Y-59200000D02*
X155000000Y-59800000D01*
X134400000Y-59000000D02*
X134400000Y-59800000D01*
%TO.N,/E*%
X156600000Y-56400000D02*
X160800000Y-56400000D01*
X173200000Y-56400000D02*
X177400000Y-56400000D01*
X165485000Y-56400000D02*
X165600000Y-56515000D01*
X177400000Y-56400000D02*
X177587701Y-56212299D01*
X140000000Y-56400000D02*
X144200000Y-56400000D01*
X148200000Y-56400000D02*
X152400000Y-56400000D01*
X144200000Y-56400000D02*
X148200000Y-56400000D01*
X165600000Y-56515000D02*
X165715000Y-56400000D01*
X169000000Y-56400000D02*
X173200000Y-56400000D01*
X135800000Y-56400000D02*
X140000000Y-56400000D01*
X132500000Y-56500000D02*
X132600000Y-56400000D01*
X132600000Y-56400000D02*
X135800000Y-56400000D01*
X165715000Y-56400000D02*
X169000000Y-56400000D01*
X160800000Y-56400000D02*
X165485000Y-56400000D01*
X152400000Y-56400000D02*
X156600000Y-56400000D01*
%TO.N,/B*%
X147800000Y-53000000D02*
X148000000Y-53000000D01*
X168800000Y-53000000D02*
X172800000Y-53000000D01*
X168800000Y-53600000D02*
X168800000Y-53000000D01*
X156200000Y-53000000D02*
X160400000Y-53000000D01*
X172800000Y-53000000D02*
X177000000Y-53000000D01*
X135400000Y-53400000D02*
X135800000Y-53000000D01*
X135800000Y-53000000D02*
X139800000Y-53000000D01*
X160400000Y-53600000D02*
X160400000Y-53000000D01*
X143800000Y-53600000D02*
X143800000Y-53000000D01*
X164307000Y-53208817D02*
X164515817Y-53000000D01*
X139800000Y-53400000D02*
X139800000Y-53000000D01*
X172800000Y-53600000D02*
X172800000Y-53000000D01*
X148000000Y-53000000D02*
X152200000Y-53000000D01*
X164515817Y-53000000D02*
X164600000Y-53000000D01*
X139800000Y-53000000D02*
X143800000Y-53000000D01*
X143800000Y-53000000D02*
X148000000Y-53000000D01*
X160400000Y-53000000D02*
X164600000Y-53000000D01*
X164600000Y-53000000D02*
X168800000Y-53000000D01*
X152200000Y-53000000D02*
X156200000Y-53000000D01*
X181000000Y-53000000D02*
X181200000Y-53200000D01*
X139600000Y-53600000D02*
X139800000Y-53400000D01*
X156200000Y-53007000D02*
X156200000Y-53000000D01*
X177000000Y-53000000D02*
X181000000Y-53000000D01*
X156007000Y-53200000D02*
X156200000Y-53007000D01*
%TO.N,/DP*%
X182125000Y-57099695D02*
X181425305Y-56400000D01*
X164600000Y-58400000D02*
X160400000Y-58400000D01*
X168600000Y-59000000D02*
X168600000Y-58600000D01*
X177000000Y-59075500D02*
X177000000Y-58600000D01*
X168600000Y-58600000D02*
X168800000Y-58400000D01*
X177000000Y-58600000D02*
X176800000Y-58400000D01*
X181425305Y-56400000D02*
X181400000Y-56400000D01*
X160400000Y-58400000D02*
X156200000Y-58400000D01*
X156200000Y-59075500D02*
X156200000Y-58400000D01*
X181024968Y-59199346D02*
X181400654Y-59199346D01*
X156200000Y-58400000D02*
X152000000Y-58400000D01*
X181024968Y-59199346D02*
X181024968Y-58624968D01*
X139600000Y-58400000D02*
X136075500Y-58400000D01*
X152000000Y-58400000D02*
X147800000Y-58400000D01*
X152000000Y-59000000D02*
X152000000Y-58400000D01*
X147800000Y-59000000D02*
X147800000Y-58400000D01*
X182125000Y-58475000D02*
X182125000Y-57200000D01*
X139600000Y-59075500D02*
X139600000Y-58400000D01*
X182125000Y-57200000D02*
X182125000Y-57099695D01*
X180800000Y-58400000D02*
X176800000Y-58400000D01*
X176800000Y-58400000D02*
X172800000Y-58400000D01*
X172800000Y-58400000D02*
X168800000Y-58400000D01*
X181800000Y-58800000D02*
X182125000Y-58475000D01*
X143800000Y-58775500D02*
X143800000Y-58400000D01*
X164600000Y-59000000D02*
X164600000Y-58400000D01*
X147800000Y-58400000D02*
X143800000Y-58400000D01*
X181400654Y-59199346D02*
X181800000Y-58800000D01*
X172800000Y-59075500D02*
X172800000Y-58400000D01*
X168800000Y-58400000D02*
X164600000Y-58400000D01*
X160400000Y-59075500D02*
X160400000Y-58400000D01*
X181024968Y-58624968D02*
X180800000Y-58400000D01*
X136075500Y-58400000D02*
X135400000Y-59075500D01*
X143800000Y-58400000D02*
X139600000Y-58400000D01*
X143600000Y-58975500D02*
X143800000Y-58775500D01*
X181400000Y-56400000D02*
X181400000Y-55800000D01*
%TO.N,/C*%
X181200000Y-57600000D02*
X181400000Y-57400000D01*
X177400000Y-57600000D02*
X181200000Y-57600000D01*
X140000000Y-57600000D02*
X177400000Y-57600000D01*
X177400000Y-57200000D02*
X177400000Y-57600000D01*
X135953667Y-57600000D02*
X140000000Y-57600000D01*
X135810872Y-57457205D02*
X135953667Y-57600000D01*
X139983418Y-57470229D02*
X139983418Y-57583418D01*
X139983418Y-57583418D02*
X140000000Y-57600000D01*
%TO.N,/A*%
X179800000Y-52275500D02*
X175875500Y-52275500D01*
X175862500Y-52262500D02*
X171813000Y-52262500D01*
X163400000Y-52200000D02*
X159262500Y-52200000D01*
X146825000Y-52200000D02*
X146812500Y-52212500D01*
X165800000Y-52200000D02*
X165875500Y-52275500D01*
X165800000Y-52200000D02*
X163400000Y-52200000D01*
X138600000Y-52200000D02*
X134400000Y-52200000D01*
X143000000Y-52200000D02*
X138600000Y-52200000D01*
X171813000Y-52262500D02*
X171800000Y-52275500D01*
X150962500Y-52200000D02*
X146825000Y-52200000D01*
X165875500Y-52275500D02*
X171800000Y-52275500D01*
X153600000Y-52200000D02*
X150962500Y-52200000D01*
X143012500Y-52212500D02*
X143000000Y-52200000D01*
X153600000Y-52200000D02*
X159262500Y-52200000D01*
X175875500Y-52275500D02*
X175862500Y-52262500D01*
X146812500Y-52212500D02*
X143012500Y-52212500D01*
%TD*%
M02*
