M48
; DRILL file {KiCad 7.99.0-3522-gc5520b3eef-dirty} date 2023-11-19T20:47:45+0000
; FORMAT={-:-/ absolute / inch / decimal}
; #@! TF.CreationDate,2023-11-19T20:47:45+00:00
; #@! TF.GenerationSoftware,Kicad,Pcbnew,7.99.0-3522-gc5520b3eef-dirty
; #@! TF.FileFunction,Plated,1,2,PTH
FMAT,2
INCH
; #@! TA.AperFunction,Plated,PTH,ViaDrill
T1C0.0157
; #@! TA.AperFunction,Plated,PTH,ComponentDrill
T2C0.0394
%
G90
G05
T1
X5.2061Y-2.1408
X5.2097Y-2.1845
X5.2165Y-2.2244
X5.2913Y-2.0551
X5.2913Y-2.3228
X5.3307Y-2.0266
X5.3307Y-2.1024
X5.3307Y-2.3258
X5.3465Y-2.2205
X5.3469Y-2.2621
X5.3622Y-2.1388
X5.3622Y-2.1823
X5.4488Y-2.3307
X5.4567Y-2.0551
X5.4961Y-2.1102
X5.4961Y-2.3258
X5.5112Y-2.2626
X5.5118Y-2.2205
X5.5276Y-2.1388
X5.5276Y-2.1823
X5.5591Y-2.3671
X5.6121Y-2.3281
X5.6299Y-2.0551
X5.6535Y-2.3219
X5.6614Y-2.1102
X5.6769Y-2.2598
X5.6772Y-2.2205
X5.6929Y-2.1388
X5.6929Y-2.1823
X5.7795Y-2.3307
X5.78Y-2.0556
X5.8189Y-2.0866
X5.8189Y-2.3228
X5.8285Y-2.1738
X5.8346Y-2.2205
X5.8374Y-2.2624
X5.8612Y-2.1518
X5.9434Y-2.0551
X5.9449Y-2.3307
X5.9843Y-2.3228
X5.985Y-2.0883
X6.0Y-2.2205
X6.0003Y-2.2622
X6.0302Y-2.1511
X6.0342Y-2.1919
X6.0472Y-2.0551
X6.1024Y-2.3307
X6.142Y-2.0945
X6.1496Y-2.3258
X6.1654Y-2.1811
X6.1654Y-2.2205
X6.1672Y-2.2624
X6.1888Y-2.1465
X6.2677Y-2.3307
X6.2702Y-2.0551
X6.315Y-2.1102
X6.315Y-2.3258
X6.3291Y-2.2631
X6.3307Y-2.2205
X6.34Y-2.1406
X6.353Y-2.1879
X6.4331Y-2.0551
X6.4331Y-2.3307
X6.4688Y-2.0948
X6.4803Y-2.3228
X6.4865Y-2.2586
X6.5112Y-2.139
X6.5118Y-2.1823
X6.5197Y-2.225
X6.5276Y-2.0551
X6.5984Y-2.3277
X6.6378Y-2.3228
X6.6457Y-2.1102
X6.6535Y-2.2205
X6.6538Y-2.2622
X6.6748Y-2.1396
X6.6772Y-2.1823
X6.7559Y-2.3307
X6.7638Y-2.0581
X6.8031Y-2.1102
X6.8031Y-2.3258
X6.8189Y-2.2205
X6.8207Y-2.2624
X6.8346Y-2.1388
X6.8346Y-2.1823
X6.8661Y-2.3592
X6.9237Y-2.0576
X6.9291Y-2.3307
X6.9685Y-2.0866
X6.9685Y-2.3258
X6.9843Y-2.252
X6.9916Y-2.2131
X6.9921Y-2.1732
X6.9999Y-2.134
X7.0787Y-2.0581
X7.0876Y-2.3317
X7.127Y-2.3307
X7.1339Y-2.0945
X7.1417Y-2.1969
X7.1417Y-2.2598
T2
X5.6693Y-2.4252
X5.7693Y-2.4252
X5.8693Y-2.4252
X5.8701Y-1.9921
X5.9693Y-2.4252
X5.9701Y-1.9921
X6.0693Y-2.4252
X6.0701Y-1.9921
X6.1693Y-2.4252
X6.1701Y-1.9921
X6.2693Y-2.4252
X6.2701Y-1.9921
X6.3693Y-2.4252
X6.3701Y-1.9921
X6.4693Y-2.4252
X6.4701Y-1.9921
X6.5693Y-2.4252
X6.5701Y-1.9921
X6.6693Y-2.4252
X6.7693Y-2.4252
T0
M30
